<svg width="140" height="140" viewBox="0 0 140 140" fill="none" xmlns="http://www.w3.org/2000/svg">
<g filter="url(#filter0_d_3703_2383)">
<circle cx="70" cy="60" r="46" fill="#00021D"/>
</g>
<path d="M91 51V69M49 45V75M85 44.1429L55 39.8571M85 75.8572L55 80.1429M47.8 45H50.2C51.8802 45 52.7202 45 53.362 44.673C53.9265 44.3854 54.3854 43.9265 54.673 43.362C55 42.7202 55 41.8802 55 40.2V37.8C55 36.1198 55 35.2798 54.673 34.638C54.3854 34.0735 53.9265 33.6146 53.362 33.327C52.7202 33 51.8802 33 50.2 33H47.8C46.1198 33 45.2798 33 44.638 33.327C44.0735 33.6146 43.6146 34.0735 43.327 34.638C43 35.2798 43 36.1198 43 37.8V40.2C43 41.8802 43 42.7202 43.327 43.362C43.6146 43.9265 44.0735 44.3854 44.638 44.673C45.2798 45 46.1198 45 47.8 45ZM47.8 87H50.2C51.8802 87 52.7202 87 53.362 86.673C53.9265 86.3854 54.3854 85.9265 54.673 85.362C55 84.7202 55 83.8802 55 82.2V79.8C55 78.1198 55 77.2798 54.673 76.638C54.3854 76.0735 53.9265 75.6146 53.362 75.327C52.7202 75 51.8802 75 50.2 75H47.8C46.1198 75 45.2798 75 44.638 75.327C44.0735 75.6146 43.6146 76.0735 43.327 76.638C43 77.2798 43 78.1198 43 79.8V82.2C43 83.8802 43 84.7202 43.327 85.362C43.6146 85.9265 44.0735 86.3854 44.638 86.673C45.2798 87 46.1198 87 47.8 87ZM89.8 51H92.2C93.8802 51 94.7202 51 95.362 50.673C95.9265 50.3854 96.3854 49.9265 96.673 49.362C97 48.7202 97 47.8802 97 46.2V43.8C97 42.1198 97 41.2798 96.673 40.638C96.3854 40.0735 95.9265 39.6146 95.362 39.327C94.7202 39 93.8802 39 92.2 39H89.8C88.1198 39 87.2798 39 86.638 39.327C86.0735 39.6146 85.6146 40.0735 85.327 40.638C85 41.2798 85 42.1198 85 43.8V46.2C85 47.8802 85 48.7202 85.327 49.362C85.6146 49.9265 86.0735 50.3854 86.638 50.673C87.2798 51 88.1198 51 89.8 51ZM89.8 81H92.2C93.8802 81 94.7202 81 95.362 80.673C95.9265 80.3854 96.3854 79.9265 96.673 79.362C97 78.7202 97 77.8802 97 76.2V73.8C97 72.1198 97 71.2798 96.673 70.638C96.3854 70.0735 95.9265 69.6146 95.362 69.327C94.7202 69 93.8802 69 92.2 69H89.8C88.1198 69 87.2798 69 86.638 69.327C86.0735 69.6146 85.6146 70.0735 85.327 70.638C85 71.2798 85 72.1198 85 73.8V76.2C85 77.8802 85 78.7202 85.327 79.362C85.6146 79.9265 86.0735 80.3854 86.638 80.673C87.2798 81 88.1198 81 89.8 81Z" stroke="white" stroke-width="2" stroke-linecap="round" stroke-linejoin="round"/>
<path d="M71 62L68 59M73.0103 51.5V50M76.9497 53.0607L78.0103 52M76.9497 61L78.0103 62.0607M69.0103 53.0607L67.9497 52M78.5103 57H80.0103M64.1313 68.8686L73.3686 59.6314C73.7646 59.2354 73.9626 59.0373 74.0368 58.809C74.1021 58.6082 74.1021 58.3918 74.0368 58.191C73.9626 57.9627 73.7646 57.7646 73.3686 57.3686L72.6313 56.6314C72.2353 56.2354 72.0373 56.0373 71.809 55.9632C71.6081 55.8979 71.3918 55.8979 71.191 55.9632C70.9626 56.0373 70.7646 56.2354 70.3686 56.6314L61.1313 65.8686C60.7353 66.2646 60.5373 66.4627 60.4631 66.691C60.3979 66.8918 60.3979 67.1082 60.4631 67.309C60.5373 67.5373 60.7353 67.7354 61.1313 68.1314L61.8686 68.8686C62.2646 69.2646 62.4626 69.4627 62.691 69.5368C62.8918 69.6021 63.1081 69.6021 63.309 69.5368C63.5373 69.4627 63.7353 69.2646 64.1313 68.8686Z" stroke="white" stroke-width="1.5" stroke-linecap="round" stroke-linejoin="round"/>
<defs>
<filter id="filter0_d_3703_2383" x="0" y="0" width="140" height="140" filterUnits="userSpaceOnUse" color-interpolation-filters="sRGB">
<feFlood flood-opacity="0" result="BackgroundImageFix"/>
<feColorMatrix in="SourceAlpha" type="matrix" values="0 0 0 0 0 0 0 0 0 0 0 0 0 0 0 0 0 0 127 0" result="hardAlpha"/>
<feOffset dy="10"/>
<feGaussianBlur stdDeviation="12"/>
<feComposite in2="hardAlpha" operator="out"/>
<feColorMatrix type="matrix" values="0 0 0 0 0.119114 0 0 0 0 0.541239 0 0 0 0 0.96845 0 0 0 0.7 0"/>
<feBlend mode="normal" in2="BackgroundImageFix" result="effect1_dropShadow_3703_2383"/>
<feBlend mode="normal" in="SourceGraphic" in2="effect1_dropShadow_3703_2383" result="shape"/>
</filter>
</defs>
</svg>
