<svg width="54" height="40" viewBox="0 0 54 40" fill="none" xmlns="http://www.w3.org/2000/svg">
<path d="M27.0566 0C38.1022 0 47.0566 8.95445 47.0566 20C47.0566 31.0456 38.1022 40 27.0566 40C16.0111 40 7.05664 31.0456 7.05664 20C7.05664 8.95445 16.0111 0 27.0566 0Z" fill="#0052FF"/>
<path d="M27.0913 26.9957C23.2149 26.9957 20.0826 23.8606 20.0826 20C20.0826 16.1394 23.2235 13.0043 27.0913 13.0043C30.561 13.0043 33.4423 15.5262 33.9961 18.8341H41.0566C40.4596 11.6484 34.4374 6 27.0826 6C19.3385 6 13.0566 12.2702 13.0566 20C13.0566 27.7298 19.3385 34 27.0826 34C34.4374 34 40.4596 28.3516 41.0566 21.1659H33.9874C33.4337 24.4738 30.561 26.9957 27.0913 26.9957Z" fill="white"/>
</svg>
