<svg width="44" height="40" viewBox="0 0 44 40" fill="none" xmlns="http://www.w3.org/2000/svg">
<g clip-path="url(#clip0_2206_1238)">
<path d="M42.3841 0L23.7659 13.5466L27.2281 5.56313L42.3841 0Z" fill="#E17726"/>
<path d="M1.04932 0.0159302L16.1647 5.56412L19.4522 13.6522L1.04932 0.0159302Z" fill="#E27625"/>
<path d="M34.8914 28.8097L43.1204 28.9637L40.2445 38.5707L30.2034 35.8521L34.8914 28.8097Z" fill="#E27625"/>
<path d="M8.49811 28.8097L13.1688 35.8522L3.14454 38.5709L0.286133 28.9637L8.49811 28.8097Z" fill="#E27625"/>
<path d="M19.0053 11.5919L19.3417 22.2725L9.27881 21.8223L12.1411 17.5761L12.1773 17.5351L19.0053 11.5919Z" fill="#E27625"/>
<path d="M24.2804 11.4728L31.2126 17.5356L31.2485 17.5762L34.1108 21.8225L24.0503 22.2726L24.2804 11.4728Z" fill="#E27625"/>
<path d="M13.4635 28.8406L18.9582 33.0504L12.5754 36.0807L13.4635 28.8406Z" fill="#E27625"/>
<path d="M29.9273 28.84L30.7969 36.0808L24.4321 33.0502L29.9273 28.84Z" fill="#E27625"/>
<path d="M24.5725 32.6536L31.0313 35.7289L25.0233 38.5367L25.0857 36.681L24.5725 32.6536Z" fill="#D5BFB2"/>
<path d="M18.8155 32.655L18.3224 36.6506L18.3629 38.5345L12.3408 35.7289L18.8155 32.655Z" fill="#D5BFB2"/>
<path d="M16.9504 23.6665L18.6382 27.1545L12.8918 25.4992L16.9504 23.6665Z" fill="#233447"/>
<path d="M26.4393 23.6668L30.517 25.4991L24.752 27.1539L26.4393 23.6668Z" fill="#233447"/>
<path d="M13.9027 28.8051L12.9738 36.3117L7.99536 28.9691L13.9027 28.8051Z" fill="#CC6228"/>
<path d="M29.4875 28.8051L35.3951 28.9691L30.3979 36.3119L29.4875 28.8051Z" fill="#CC6228"/>
<path d="M34.2564 21.3979L29.9572 25.7064L26.6425 24.2169L25.0555 27.4975L24.0151 21.8561L34.2564 21.3979Z" fill="#CC6228"/>
<path d="M9.13135 21.3978L19.3744 21.8561L18.3341 27.4976L16.7467 24.2173L13.4495 25.7065L9.13135 21.3978Z" fill="#CC6228"/>
<path d="M8.84155 20.5137L13.7057 25.3672L13.8742 30.1587L8.84155 20.5137Z" fill="#E27525"/>
<path d="M34.5531 20.5049L29.5115 30.1671L29.7013 25.3671L34.5531 20.5049Z" fill="#E27525"/>
<path d="M19.1368 20.8093L19.3325 22.0209L19.8163 25.0394L19.5053 34.3103L18.0349 26.8629L18.0344 26.7859L19.1368 20.8093Z" fill="#E27525"/>
<path d="M24.2506 20.7925L25.3559 26.7859L25.3554 26.8629L23.8814 34.3289L23.823 32.4615L23.593 24.9845L24.2506 20.7925Z" fill="#E27525"/>
<path d="M30.1336 25.1743L29.969 29.3373L24.8378 33.2685L23.8005 32.5478L24.9633 26.6586L30.1336 25.1743Z" fill="#F5841F"/>
<path d="M13.2739 25.1744L18.4264 26.6588L19.5891 32.5479L18.5518 33.2686L13.4204 29.337L13.2739 25.1744Z" fill="#F5841F"/>
<path d="M11.3589 34.8096L17.9236 37.8682L17.8959 36.5621L18.4451 36.088H24.9424L25.5115 36.5605L25.4696 37.8657L31.9927 34.8173L28.8186 37.3966L24.9803 39.9889H18.3925L14.5568 37.386L11.3589 34.8096Z" fill="#C0AC9D"/>
<path d="M24.1023 32.2466L25.0304 32.8913L25.5744 37.1588L24.7872 36.5052H18.6049L17.8328 37.1719L18.3588 32.8916L19.2873 32.2466H24.1023Z" fill="#161616"/>
<path d="M41.155 0.374939L43.3899 6.96785L41.9942 13.6339L42.9881 14.3879L41.6432 15.3968L42.6539 16.1644L41.3155 17.363L42.1372 17.9481L39.9566 20.4524L31.0125 17.8917L30.935 17.8508L24.4897 12.5044L41.155 0.374939Z" fill="#763E1A"/>
<path d="M2.23492 0.374939L18.9003 12.5044L12.455 17.8508L12.3775 17.8917L3.43335 20.4524L1.25275 17.9481L2.07377 17.3634L0.736019 16.1644L1.74484 15.3977L0.379888 14.3858L1.41124 13.6314L0 6.9681L2.23492 0.374939Z" fill="#763E1A"/>
<path d="M30.5749 17.3317L40.0517 20.0449L43.1306 29.3758L35.0079 29.3758L29.4111 29.4452L33.4813 21.6439L30.5749 17.3317Z" fill="#F5841F"/>
<path d="M12.8149 17.3317L9.90794 21.6439L13.9787 29.4452L8.38465 29.3758H0.276367L3.33795 20.0449L12.8149 17.3317Z" fill="#F5841F"/>
<path d="M27.6922 5.51862L25.0415 12.5584L24.479 22.0685L24.2638 25.0493L24.2467 32.6639H19.1431L19.1265 25.0636L18.9106 22.0659L18.3478 12.5584L15.6975 5.51862H27.6922Z" fill="#F5841F"/>
</g>
<defs>
<clipPath id="clip0_2206_1238">
<rect width="43.3898" height="40" fill="white"/>
</clipPath>
</defs>
</svg>
