<svg width="140" height="35" viewBox="0 0 140 35" fill="none" xmlns="http://www.w3.org/2000/svg">
<g clip-path="url(#clip0_2205_1226)">
<path d="M41.0592 0H0.933169C0.685675 0 0.448323 0.0819407 0.273317 0.227797C0.0983148 0.373653 0 0.571478 0 0.777751V34.2209C0 34.4272 0.0983148 34.6252 0.273317 34.7711C0.448323 34.9167 0.685675 34.9986 0.933169 34.9986H41.0592C41.307 34.9986 41.5441 34.9167 41.7194 34.7711C41.8943 34.6252 41.9927 34.4272 41.9927 34.2209V0.777751C41.9927 0.571478 41.8943 0.373653 41.7194 0.227797C41.5441 0.0819407 41.307 0 41.0592 0ZM27.995 22.5548C27.995 22.761 27.8967 22.9588 27.7217 23.1047C27.5467 23.2505 27.3094 23.3325 27.0619 23.3325H14.9307C14.6832 23.3325 14.4458 23.2505 14.2708 23.1047C14.0958 22.9588 13.9975 22.761 13.9975 22.5548V12.444C13.9975 12.2377 14.0958 12.0399 14.2708 11.8941C14.4458 11.7482 14.6832 11.6662 14.9307 11.6662H27.0619C27.3094 11.6662 27.5467 11.7482 27.7217 11.8941C27.8967 12.0399 27.995 12.2377 27.995 12.444V22.5548Z" fill="white"/>
<path d="M125.062 11.6677H112.93C112.415 11.6677 111.997 12.0159 111.997 12.4454V22.5562C111.997 22.9857 112.415 23.3339 112.93 23.3339H125.062C125.577 23.3339 125.995 22.9857 125.995 22.5562V12.4454C125.995 12.0159 125.577 11.6677 125.062 11.6677Z" fill="white"/>
<path d="M111.067 0.000610352H98.9363C98.4209 0.000610352 98.0032 0.348822 98.0032 0.77836V10.8891C98.0032 11.3186 98.4209 11.6669 98.9363 11.6669H111.067C111.583 11.6669 112.001 11.3186 112.001 10.8891V0.77836C112.001 0.348822 111.583 0.000610352 111.067 0.000610352Z" fill="white"/>
<path d="M139.067 0.000610352H126.936C126.42 0.000610352 126.002 0.348822 126.002 0.77836V10.8891C126.002 11.3186 126.42 11.6669 126.936 11.6669H139.067C139.582 11.6669 140 11.3186 140 10.8891V0.77836C140 0.348822 139.582 0.000610352 139.067 0.000610352Z" fill="white"/>
<path d="M111.067 23.3336H98.9363C98.4209 23.3336 98.0032 23.6818 98.0032 24.1113V34.2222C98.0032 34.6516 98.4209 35 98.9363 35H111.067C111.583 35 112.001 34.6516 112.001 34.2222V24.1113C112.001 23.6818 111.583 23.3336 111.067 23.3336Z" fill="white"/>
<path d="M139.067 23.3336H126.936C126.42 23.3336 126.002 23.6818 126.002 24.1113V34.2222C126.002 34.6516 126.42 35 126.936 35H139.067C139.582 35 140 34.6516 140 34.2222V24.1113C140 23.6818 139.582 23.3336 139.067 23.3336Z" fill="white"/>
<path d="M90.0543 0.000610352H77.9232C77.4078 0.000610352 76.9897 0.348822 76.9897 0.77836V10.8891C76.9897 11.3186 77.4078 11.6669 77.9232 11.6669H90.0543C90.5697 11.6669 90.9874 11.3186 90.9874 10.8891V0.77836C90.9874 0.348822 90.5697 0.000610352 90.0543 0.000610352Z" fill="white"/>
<path d="M90.0543 23.3336H77.9232C77.4078 23.3336 76.9897 23.6818 76.9897 24.1113V34.2222C76.9897 34.6516 77.4078 35 77.9232 35H90.0543C90.5697 35 90.9874 34.6516 90.9874 34.2222V24.1113C90.9874 23.6818 90.5697 23.3336 90.0543 23.3336Z" fill="white"/>
<path d="M76.986 12.4353C76.986 12.229 76.8875 12.0312 76.7126 11.8853C76.5377 11.7394 76.3003 11.6575 76.0529 11.6575H62.9884V0.77775C62.9884 0.571478 62.8899 0.373653 62.715 0.227797C62.5401 0.0819407 62.3026 0 62.0552 0H49.9242C49.6764 0 49.4393 0.0819407 49.2641 0.227797C49.0892 0.373653 48.9907 0.571478 48.9907 0.77775V34.2035C48.9907 34.4098 49.0892 34.6075 49.2641 34.7534C49.4393 34.8993 49.6764 34.9812 49.9242 34.9812H62.0552C62.3026 34.9812 62.5401 34.8993 62.715 34.7534C62.8899 34.6075 62.9884 34.4098 62.9884 34.2035V23.3237H76.0529C76.3003 23.3237 76.5377 23.2418 76.7126 23.096C76.8875 22.9501 76.986 22.7523 76.986 22.546V12.4353Z" fill="white"/>
</g>
<defs>
<clipPath id="clip0_2205_1226">
<rect width="140" height="35" fill="white"/>
</clipPath>
</defs>
</svg>
