<svg width="55" height="40" viewBox="0 0 55 40" fill="none" xmlns="http://www.w3.org/2000/svg">
<path fill-rule="evenodd" clip-rule="evenodd" d="M27.3897 0C38.4365 0 47.3896 8.95309 47.3896 19.9999C47.3896 31.0468 38.4365 39.9998 27.3897 39.9998C16.3429 39.9998 7.38977 31.0468 7.38977 19.9999C7.38977 8.95309 16.3429 0 27.3897 0Z" fill="url(#paint0_radial_2206_1272)"/>
<path d="M20.1008 15.4453C24.1242 11.5156 30.6555 11.5156 34.6789 15.4453L35.1633 15.9219C35.3664 16.1172 35.3664 16.4375 35.1633 16.6328L33.507 18.25C33.4054 18.3515 33.2414 18.3515 33.1398 18.25L32.4758 17.6015C29.6633 14.8594 25.1164 14.8594 22.3039 17.6015L21.593 18.2969C21.4914 18.3984 21.3274 18.3984 21.2258 18.2969L19.5696 16.6797C19.3664 16.4844 19.3664 16.164 19.5696 15.9687L20.1008 15.4453ZM38.1086 18.789L39.5851 20.2265C39.7882 20.4218 39.7882 20.7422 39.5851 20.9375L32.9367 27.4296C32.7336 27.6249 32.4055 27.6249 32.2101 27.4296L27.4914 22.8203C27.4445 22.7734 27.3586 22.7734 27.3117 22.8203L22.593 27.4296C22.3899 27.6249 22.0617 27.6249 21.8664 27.4296L15.1946 20.9375C14.9915 20.7422 14.9915 20.4218 15.1946 20.2265L16.6711 18.789C16.8743 18.5937 17.2024 18.5937 17.3977 18.789L22.1164 23.3984C22.1633 23.4453 22.2492 23.4453 22.2961 23.3984L27.0148 18.789C27.218 18.5937 27.5461 18.5937 27.7414 18.789L32.4601 23.3984C32.507 23.4453 32.593 23.4453 32.6398 23.3984L37.3586 18.789C37.5773 18.5937 37.9054 18.5937 38.1086 18.789Z" fill="white"/>
<defs>
<radialGradient id="paint0_radial_2206_1272" cx="0" cy="0" r="1" gradientUnits="userSpaceOnUse" gradientTransform="translate(7.38989 20.0005) scale(39.9998)">
<stop stop-color="#5D9DF6"/>
<stop offset="1" stop-color="#006FFF"/>
</radialGradient>
</defs>
</svg>
