<svg width="192" height="49" viewBox="0 0 192 49" fill="none" xmlns="http://www.w3.org/2000/svg">
<g clip-path="url(#clip0_2580_1683)">
<path d="M33.8303 11.9456C33.0032 11.4509 31.9278 11.4509 31.018 11.9456L24.5662 15.7384L20.1823 18.212L13.7306 22.0048C12.9035 22.4995 11.8282 22.4995 10.9183 22.0048L5.79003 19.0366C4.96289 18.5419 4.38387 17.6349 4.38387 16.6454V10.7913C4.38387 9.80186 4.88016 8.89489 5.79003 8.40017L10.8356 5.51433C11.6628 5.01962 12.738 5.01962 13.6479 5.51433L18.6935 8.40017C19.5206 8.89489 20.0996 9.80186 20.0996 10.7913V14.5841L24.4835 12.0281V8.23527C24.4835 7.24584 23.9873 6.33887 23.0774 5.84415L13.7306 0.402286C12.9035 -0.0924288 11.8282 -0.0924288 10.9183 0.402286L1.40616 5.84415C0.496289 6.33887 0 7.24584 0 8.23527V19.2015C0 20.1908 0.496289 21.0978 1.40616 21.5925L10.9183 27.0344C11.7455 27.5292 12.8208 27.5292 13.7306 27.0344L20.1823 23.324L24.5662 20.768L31.018 17.0577C31.8451 16.563 32.9205 16.563 33.8303 17.0577L38.8759 19.9436C39.7031 20.4382 40.2821 21.3452 40.2821 22.3346V28.1888C40.2821 29.1781 39.7858 30.0851 38.8759 30.5798L33.8303 33.5482C33.0032 34.0429 31.9278 34.0429 31.018 33.5482L25.9725 30.6623C25.1452 30.1676 24.5662 29.2607 24.5662 28.2712V24.4784L20.1823 27.0344V30.8272C20.1823 31.8166 20.6787 32.7236 21.5886 33.2183L31.1007 38.6603C31.9278 39.155 33.0032 39.155 33.913 38.6603L43.4253 33.2183C44.2524 32.7236 44.8314 31.8166 44.8314 30.8272V19.861C44.8314 18.8717 44.3351 17.9647 43.4253 17.47L33.8303 11.9456Z" fill="#7950DD"/>
<path d="M62.2961 35.5245V26.4204C63.3048 27.6635 65.1353 28.3582 67.2648 28.3582C72.6819 28.3582 76.3432 24.5923 76.3432 18.852C76.3432 13.1116 72.9808 9.3457 67.7131 9.3457C65.2847 9.3457 63.4168 10.2232 62.2961 11.6491V9.6382H57.103V35.5245H62.2961ZM66.6297 23.9707C63.8278 23.9707 61.9971 21.9232 61.9971 18.852C61.9971 15.7441 63.8278 13.6966 66.6297 13.6966C69.3569 13.6966 71.2249 15.7441 71.2249 18.852C71.2249 21.9232 69.3569 23.9707 66.6297 23.9707Z" fill="black"/>
<path d="M88.1348 28.3582C93.9256 28.3582 98.0725 24.3363 98.0725 18.852C98.0725 13.3676 93.9256 9.3457 88.1348 9.3457C82.3442 9.3457 78.1973 13.3676 78.1973 18.852C78.1973 24.3363 82.3442 28.3582 88.1348 28.3582ZM88.1348 23.9707C85.3329 23.9707 83.4276 21.8866 83.4276 18.852C83.4276 15.7807 85.3329 13.6966 88.1348 13.6966C90.9369 13.6966 92.8422 15.7807 92.8422 18.852C92.8422 21.8866 90.9369 23.9707 88.1348 23.9707Z" fill="black"/>
<path d="M106.405 28.0655V1.63086H101.212V28.0655H106.405Z" fill="black"/>
<path d="M122.015 9.63818L118.092 21.521L114.132 9.63818H108.827L115.664 27.9194L112.899 35.5244H117.868L120.521 27.9926L127.358 9.63818H122.015Z" fill="black"/>
<path d="M141.942 11.4663C140.895 10.1866 139.028 9.3457 136.749 9.3457C131.256 9.3457 127.932 13.1116 127.932 18.852C127.932 24.5923 131.256 28.3582 136.823 28.3582C139.028 28.3582 141.007 27.5538 141.98 26.201V28.6141C141.98 30.3326 140.821 31.5391 139.251 31.5391H130.584V35.5245H140.073C144.332 35.5245 147.172 33.0016 147.172 29.1626V9.6382H141.942V11.4663ZM137.645 23.9707C134.881 23.9707 133.05 21.9598 133.05 18.852C133.05 15.7441 134.881 13.6966 137.645 13.6966C140.447 13.6966 142.278 15.7441 142.278 18.852C142.278 21.9598 140.447 23.9707 137.645 23.9707Z" fill="black"/>
<path d="M160.263 28.3582C166.055 28.3582 170.201 24.3363 170.201 18.852C170.201 13.3676 166.055 9.3457 160.263 9.3457C154.473 9.3457 150.326 13.3676 150.326 18.852C150.326 24.3363 154.473 28.3582 160.263 28.3582ZM160.263 23.9707C157.461 23.9707 155.556 21.8866 155.556 18.852C155.556 15.7807 157.461 13.6966 160.263 13.6966C163.066 13.6966 164.971 15.7807 164.971 18.852C164.971 21.8866 163.066 23.9707 160.263 23.9707Z" fill="black"/>
<path d="M178.273 28.0657V17.9745C178.273 15.5979 179.879 13.8795 182.158 13.8795C184.324 13.8795 185.781 15.4882 185.781 17.7185V28.0657H191.011V16.5851C191.011 12.3438 188.247 9.3457 183.987 9.3457C181.41 9.3457 179.318 10.406 178.273 12.1976V9.6382H173.042V28.0657H178.273Z" fill="black"/>
</g>
<defs>
<clipPath id="clip0_2580_1683">
<rect width="192" height="48" fill="white" transform="translate(0 0.03125)"/>
</clipPath>
</defs>
</svg>
