<svg width="60" height="60" viewBox="0 0 60 60" fill="none" xmlns="http://www.w3.org/2000/svg">
<circle cx="30" cy="30" r="30" fill="#A7F46A"/>
<path fill-rule="evenodd" clip-rule="evenodd" d="M19.3335 23.3333C19.3335 22.597 19.9304 22 20.6668 22H39.3335C40.0699 22 40.6668 22.597 40.6668 23.3333V42C40.6668 42.7364 40.0699 43.3333 39.3335 43.3333H20.6668C19.9304 43.3333 19.3335 42.7364 19.3335 42V23.3333ZM22.0002 24.6667V40.6667H38.0002V24.6667H22.0002Z" fill="#1B1AFF"/>
<path fill-rule="evenodd" clip-rule="evenodd" d="M26.0688 37.5782C26.2502 37.0337 26.7598 36.6665 27.3337 36.6665H32.667C33.2409 36.6665 33.7504 37.0337 33.9319 37.5782L35.2652 41.5782C35.4008 41.9848 35.3326 42.4318 35.082 42.7795C34.8314 43.1271 34.4289 43.3332 34.0003 43.3332H26.0003C25.5717 43.3332 25.1693 43.1271 24.9187 42.7795C24.6681 42.4318 24.5999 41.9848 24.7354 41.5782L26.0688 37.5782ZM28.2947 39.3332L27.8502 40.6665H32.1504L31.706 39.3332H28.2947Z" fill="#1B1AFF"/>
<path fill-rule="evenodd" clip-rule="evenodd" d="M42 36.6665V28.6665H44.6667V36.6665H42Z" fill="#1B1AFF"/>
<path fill-rule="evenodd" clip-rule="evenodd" d="M28.667 23.3332V16.6665H31.3337V23.3332H28.667Z" fill="#1B1AFF"/>
<path fill-rule="evenodd" clip-rule="evenodd" d="M15.3335 36.6665V28.6665H18.0002V36.6665H15.3335Z" fill="#1B1AFF"/>
<path fill-rule="evenodd" clip-rule="evenodd" d="M34.0003 29.3332C33.6321 29.3332 33.3337 29.6316 33.3337 29.9998C33.3337 30.368 33.6321 30.6665 34.0003 30.6665C34.3685 30.6665 34.667 30.368 34.667 29.9998C34.667 29.6316 34.3685 29.3332 34.0003 29.3332ZM30.667 29.9998C30.667 28.1589 32.1594 26.6665 34.0003 26.6665C35.8413 26.6665 37.3337 28.1589 37.3337 29.9998C37.3337 31.8408 35.8413 33.3332 34.0003 33.3332C32.1594 33.3332 30.667 31.8408 30.667 29.9998Z" fill="#1B1AFF"/>
<path fill-rule="evenodd" clip-rule="evenodd" d="M26.0003 29.3332C25.6321 29.3332 25.3337 29.6316 25.3337 29.9998C25.3337 30.368 25.6321 30.6665 26.0003 30.6665C26.3685 30.6665 26.667 30.368 26.667 29.9998C26.667 29.6316 26.3685 29.3332 26.0003 29.3332ZM22.667 29.9998C22.667 28.1589 24.1594 26.6665 26.0003 26.6665C27.8413 26.6665 29.3337 28.1589 29.3337 29.9998C29.3337 31.8408 27.8413 33.3332 26.0003 33.3332C24.1594 33.3332 22.667 31.8408 22.667 29.9998Z" fill="#1B1AFF"/>
</svg>
