<svg width="60" height="60" viewBox="0 0 60 60" fill="none" xmlns="http://www.w3.org/2000/svg">
<circle cx="30" cy="30" r="30" fill="#A7F46A"/>
<path fill-rule="evenodd" clip-rule="evenodd" d="M15.3335 30C15.3335 23.3726 20.7061 18 27.3335 18H32.6668C39.2942 18 44.6668 23.3726 44.6668 30V31.8085C44.6668 35.7025 40.1789 37.8837 37.117 35.4779L34.1795 33.1699C33.7646 32.8439 33.2521 32.6667 32.7244 32.6667C31.6905 32.6667 30.7774 33.341 30.4734 34.3292L29.9405 36.0611C28.9762 39.1949 26.0809 41.3333 22.8021 41.3333C18.6773 41.3333 15.3335 37.9895 15.3335 33.8647V30ZM27.3335 20.6667C22.1788 20.6667 18.0002 24.8453 18.0002 30V33.8647C18.0002 36.5168 20.1501 38.6667 22.8021 38.6667C24.9102 38.6667 26.7718 37.2918 27.3917 35.2769L27.9246 33.545C28.573 31.4379 30.5198 30 32.7244 30C33.8497 30 34.9423 30.3779 35.8271 31.0731L38.7645 33.3811C40.0768 34.4122 42.0002 33.4773 42.0002 31.8085V30C42.0002 24.8453 37.8215 20.6667 32.6668 20.6667H27.3335Z" fill="#1B1AFF"/>
<path fill-rule="evenodd" clip-rule="evenodd" d="M22.6668 33.3332C22.2986 33.3332 22.0002 33.6316 22.0002 33.9998C22.0002 34.368 22.2986 34.6665 22.6668 34.6665C23.035 34.6665 23.3335 34.368 23.3335 33.9998C23.3335 33.6316 23.035 33.3332 22.6668 33.3332ZM19.3335 33.9998C19.3335 32.1589 20.8259 30.6665 22.6668 30.6665C24.5078 30.6665 26.0002 32.1589 26.0002 33.9998C26.0002 35.8408 24.5078 37.3332 22.6668 37.3332C20.8259 37.3332 19.3335 35.8408 19.3335 33.9998Z" fill="#1B1AFF"/>
<path fill-rule="evenodd" clip-rule="evenodd" d="M24.0003 26.0002C23.6321 26.0002 23.3337 26.2986 23.3337 26.6668C23.3337 27.035 23.6321 27.3335 24.0003 27.3335C24.3685 27.3335 24.667 27.035 24.667 26.6668C24.667 26.2986 24.3685 26.0002 24.0003 26.0002ZM20.667 26.6668C20.667 24.8259 22.1594 23.3335 24.0003 23.3335C25.8413 23.3335 27.3337 24.8259 27.3337 26.6668C27.3337 28.5078 25.8413 30.0002 24.0003 30.0002C22.1594 30.0002 20.667 28.5078 20.667 26.6668Z" fill="#1B1AFF"/>
<path fill-rule="evenodd" clip-rule="evenodd" d="M32.0003 24.0002C31.6321 24.0002 31.3337 24.2986 31.3337 24.6668C31.3337 25.035 31.6321 25.3335 32.0003 25.3335C32.3685 25.3335 32.667 25.035 32.667 24.6668C32.667 24.2986 32.3685 24.0002 32.0003 24.0002ZM28.667 24.6668C28.667 22.8259 30.1594 21.3335 32.0003 21.3335C33.8413 21.3335 35.3337 22.8259 35.3337 24.6668C35.3337 26.5078 33.8413 28.0002 32.0003 28.0002C30.1594 28.0002 28.667 26.5078 28.667 24.6668Z" fill="#1B1AFF"/>
</svg>
