<svg width="60" height="60" viewBox="0 0 60 60" fill="none" xmlns="http://www.w3.org/2000/svg">
<circle cx="30" cy="30" r="30" fill="#A7F46A"/>
<path fill-rule="evenodd" clip-rule="evenodd" d="M30.0003 27.3332C28.5276 27.3332 27.3337 28.5271 27.3337 29.9998C27.3337 31.4726 28.5276 32.6665 30.0003 32.6665C31.4731 32.6665 32.667 31.4726 32.667 29.9998C32.667 28.5271 31.4731 27.3332 30.0003 27.3332ZM24.667 29.9998C24.667 27.0543 27.0548 24.6665 30.0003 24.6665C32.9458 24.6665 35.3337 27.0543 35.3337 29.9998C35.3337 32.9454 32.9458 35.3332 30.0003 35.3332C27.0548 35.3332 24.667 32.9454 24.667 29.9998Z" fill="#1B1AFF"/>
<path fill-rule="evenodd" clip-rule="evenodd" d="M18.6668 18.0002C18.2986 18.0002 18.0002 18.2986 18.0002 18.6668C18.0002 19.035 18.2986 19.3335 18.6668 19.3335C19.035 19.3335 19.3335 19.035 19.3335 18.6668C19.3335 18.2986 19.035 18.0002 18.6668 18.0002ZM15.3335 18.6668C15.3335 16.8259 16.8259 15.3335 18.6668 15.3335C20.5078 15.3335 22.0002 16.8259 22.0002 18.6668C22.0002 20.5078 20.5078 22.0002 18.6668 22.0002C16.8259 22.0002 15.3335 20.5078 15.3335 18.6668Z" fill="#1B1AFF"/>
<path fill-rule="evenodd" clip-rule="evenodd" d="M41.6098 29.0572C41.0891 28.5365 40.2449 28.5365 39.7242 29.0572C39.2035 29.5779 39.2035 30.4221 39.7242 30.9428C40.2449 31.4635 41.0891 31.4635 41.6098 30.9428C42.1305 30.4221 42.1305 29.5779 41.6098 29.0572ZM37.8386 27.1716C39.4007 25.6095 41.9333 25.6095 43.4954 27.1716C45.0575 28.7337 45.0575 31.2663 43.4954 32.8284C41.9333 34.3905 39.4007 34.3905 37.8386 32.8284C36.2765 31.2663 36.2765 28.7337 37.8386 27.1716Z" fill="#1B1AFF"/>
<path fill-rule="evenodd" clip-rule="evenodd" d="M19.3335 39.3332C18.5971 39.3332 18.0002 39.9301 18.0002 40.6665C18.0002 41.4029 18.5971 41.9998 19.3335 41.9998C20.0699 41.9998 20.6668 41.4029 20.6668 40.6665C20.6668 39.9301 20.0699 39.3332 19.3335 39.3332ZM15.3335 40.6665C15.3335 38.4574 17.1244 36.6665 19.3335 36.6665C21.5426 36.6665 23.3335 38.4574 23.3335 40.6665C23.3335 42.8756 21.5426 44.6665 19.3335 44.6665C17.1244 44.6665 15.3335 42.8756 15.3335 40.6665Z" fill="#1B1AFF"/>
<path fill-rule="evenodd" clip-rule="evenodd" d="M36.6219 18.9889C36.4313 18.2776 35.7002 17.8555 34.9889 18.0461C34.2776 18.2367 33.8555 18.9678 34.0461 19.6791C34.2367 20.3904 34.9678 20.8125 35.6791 20.6219C36.3904 20.4313 36.8125 19.7002 36.6219 18.9889ZM34.2987 15.4703C36.4326 14.8985 38.6259 16.1649 39.1977 18.2987C39.7695 20.4326 38.5031 22.6259 36.3693 23.1977C34.2354 23.7695 32.0421 22.5031 31.4703 20.3693C30.8985 18.2354 32.1649 16.0421 34.2987 15.4703Z" fill="#1B1AFF"/>
<path fill-rule="evenodd" clip-rule="evenodd" d="M34 28.6665L37.7712 28.6665V31.3332H34V28.6665Z" fill="#1B1AFF"/>
<path fill-rule="evenodd" clip-rule="evenodd" d="M21.2137 19.3281L27.8804 25.9948L25.9948 27.8804L19.3281 21.2137L21.2137 19.3281Z" fill="#1B1AFF"/>
<path fill-rule="evenodd" clip-rule="evenodd" d="M20.4111 37.7041L26.4111 31.9541L28.2562 33.8794L22.2562 39.6294L20.4111 37.7041Z" fill="#1B1AFF"/>
<path fill-rule="evenodd" clip-rule="evenodd" d="M35.1095 22.7394L32.4429 26.7394L30.2241 25.2603L32.8907 21.2603L35.1095 22.7394Z" fill="#1B1AFF"/>
</svg>
