<svg width="60" height="60" viewBox="0 0 60 60" fill="none" xmlns="http://www.w3.org/2000/svg">
<circle cx="30" cy="30" r="30" fill="#A7F46A"/>
<path fill-rule="evenodd" clip-rule="evenodd" d="M15.3335 22C15.3335 19.7909 17.1244 18 19.3335 18H40.6668C42.876 18 44.6668 19.7909 44.6668 22V38C44.6668 40.2091 42.876 42 40.6668 42H19.3335C17.1244 42 15.3335 40.2091 15.3335 38V22ZM19.3335 20.6667C18.5971 20.6667 18.0002 21.2636 18.0002 22V38C18.0002 38.7364 18.5971 39.3333 19.3335 39.3333H40.6668C41.4032 39.3333 42.0002 38.7364 42.0002 38V22C42.0002 21.2636 41.4032 20.6667 40.6668 20.6667H19.3335Z" fill="#1B1AFF"/>
<path fill-rule="evenodd" clip-rule="evenodd" d="M24.9431 29.4952C24.4224 28.9745 23.5782 28.9745 23.0575 29.4952L17.6097 34.9429L15.7241 33.0573L21.1718 27.6096C22.7339 26.0475 25.2666 26.0475 26.8287 27.6096L38.9431 39.7239L37.0575 41.6096L24.9431 29.4952Z" fill="#1B1AFF"/>
<path fill-rule="evenodd" clip-rule="evenodd" d="M37.7099 30.0014C37.1737 29.358 36.184 29.3624 35.6536 30.0107L31.6987 34.8445L29.6348 33.1559L33.5897 28.322C35.1809 26.3773 38.1499 26.364 39.7585 28.2942L44.3577 33.8133L42.3091 35.5205L37.7099 30.0014Z" fill="#1B1AFF"/>
<path fill-rule="evenodd" clip-rule="evenodd" d="M30.0003 24.0002C29.6321 24.0002 29.3337 24.2986 29.3337 24.6668C29.3337 25.035 29.6321 25.3335 30.0003 25.3335C30.3685 25.3335 30.667 25.035 30.667 24.6668C30.667 24.2986 30.3685 24.0002 30.0003 24.0002ZM26.667 24.6668C26.667 22.8259 28.1594 21.3335 30.0003 21.3335C31.8413 21.3335 33.3337 22.8259 33.3337 24.6668C33.3337 26.5078 31.8413 28.0002 30.0003 28.0002C28.1594 28.0002 26.667 26.5078 26.667 24.6668Z" fill="#1B1AFF"/>
</svg>
