<svg width="60" height="60" viewBox="0 0 60 60" fill="none" xmlns="http://www.w3.org/2000/svg">
<circle cx="30" cy="30" r="30" fill="#A7F46A"/>
<path fill-rule="evenodd" clip-rule="evenodd" d="M30.0003 18.0002C29.6321 18.0002 29.3337 18.2986 29.3337 18.6668C29.3337 19.035 29.6321 19.3335 30.0003 19.3335C30.3685 19.3335 30.667 19.035 30.667 18.6668C30.667 18.2986 30.3685 18.0002 30.0003 18.0002ZM26.667 18.6668C26.667 16.8259 28.1594 15.3335 30.0003 15.3335C31.8413 15.3335 33.3337 16.8259 33.3337 18.6668C33.3337 20.5078 31.8413 22.0002 30.0003 22.0002C28.1594 22.0002 26.667 20.5078 26.667 18.6668Z" fill="#1B1AFF"/>
<path fill-rule="evenodd" clip-rule="evenodd" d="M20.6668 36.0002C20.2986 36.0002 20.0002 36.2986 20.0002 36.6668C20.0002 37.035 20.2986 37.3335 20.6668 37.3335C21.035 37.3335 21.3335 37.035 21.3335 36.6668C21.3335 36.2986 21.035 36.0002 20.6668 36.0002ZM17.3335 36.6668C17.3335 34.8259 18.8259 33.3335 20.6668 33.3335C22.5078 33.3335 24.0002 34.8259 24.0002 36.6668C24.0002 38.5078 22.5078 40.0002 20.6668 40.0002C18.8259 40.0002 17.3335 38.5078 17.3335 36.6668Z" fill="#1B1AFF"/>
<path fill-rule="evenodd" clip-rule="evenodd" d="M39.3333 36.0002C38.9651 36.0002 38.6667 36.2986 38.6667 36.6668C38.6667 37.035 38.9651 37.3335 39.3333 37.3335C39.7015 37.3335 40 37.035 40 36.6668C40 36.2986 39.7015 36.0002 39.3333 36.0002ZM36 36.6668C36 34.8259 37.4924 33.3335 39.3333 33.3335C41.1743 33.3335 42.6667 34.8259 42.6667 36.6668C42.6667 38.5078 41.1743 40.0002 39.3333 40.0002C37.4924 40.0002 36 38.5078 36 36.6668Z" fill="#1B1AFF"/>
<path fill-rule="evenodd" clip-rule="evenodd" d="M27.6904 24H32.3102C31.8492 23.2029 30.9874 22.6667 30.0003 22.6667C29.0133 22.6667 28.1515 23.2029 27.6904 24ZM24.667 25.3333C24.667 22.3878 27.0548 20 30.0003 20C32.9458 20 35.3337 22.3878 35.3337 25.3333C35.3337 26.0697 34.7367 26.6667 34.0003 26.6667H26.0003C25.2639 26.6667 24.667 26.0697 24.667 25.3333Z" fill="#1B1AFF"/>
<path fill-rule="evenodd" clip-rule="evenodd" d="M18.3569 42H22.9767C22.5157 41.2029 21.6539 40.6667 20.6668 40.6667C19.6798 40.6667 18.818 41.2029 18.3569 42ZM15.3335 43.3333C15.3335 40.3878 17.7213 38 20.6668 38C23.6123 38 26.0002 40.3878 26.0002 43.3333C26.0002 44.0697 25.4032 44.6667 24.6668 44.6667H16.6668C15.9304 44.6667 15.3335 44.0697 15.3335 43.3333Z" fill="#1B1AFF"/>
<path fill-rule="evenodd" clip-rule="evenodd" d="M37.0234 42H41.6432C41.1822 41.2029 40.3204 40.6667 39.3333 40.6667C38.3463 40.6667 37.4845 41.2029 37.0234 42ZM34 43.3333C34 40.3878 36.3878 38 39.3333 38C42.2789 38 44.6667 40.3878 44.6667 43.3333C44.6667 44.0697 44.0697 44.6667 43.3333 44.6667H35.3333C34.597 44.6667 34 44.0697 34 43.3333Z" fill="#1B1AFF"/>
<path fill-rule="evenodd" clip-rule="evenodd" d="M30 31.3337C29.2636 31.3337 28.6667 31.9306 28.6667 32.667C28.6667 33.4034 29.2636 34.0003 30 34.0003C30.7364 34.0003 31.3333 33.4034 31.3333 32.667C31.3333 31.9306 30.7364 31.3337 30 31.3337ZM26 32.667C26 30.4579 27.7909 28.667 30 28.667C32.2091 28.667 34 30.4579 34 32.667C34 34.8761 32.2091 36.667 30 36.667C27.7909 36.667 26 34.8761 26 32.667Z" fill="#1B1AFF"/>
<path fill-rule="evenodd" clip-rule="evenodd" d="M31.3337 25.3335V30.0002H28.667V25.3335H31.3337Z" fill="#1B1AFF"/>
<path fill-rule="evenodd" clip-rule="evenodd" d="M22.1416 34.7744L26.8083 32.7744L27.8587 35.2255L23.192 37.2255L22.1416 34.7744Z" fill="#1B1AFF"/>
<path fill-rule="evenodd" clip-rule="evenodd" d="M37.8589 34.7744L33.1922 32.7744L32.1418 35.2255L36.8084 37.2255L37.8589 34.7744Z" fill="#1B1AFF"/>
</svg>
