<svg width="502" height="557" viewBox="0 0 502 557" fill="none" xmlns="http://www.w3.org/2000/svg">
<path d="M307.146 601.134C144.507 601.456 12.3903 467.415 12.0739 301.725C11.7576 136.034 143.362 1.47014 306.001 1.14792C468.639 0.825704 600.756 134.867 601.073 300.558C601.389 466.248 469.785 600.812 307.146 601.134Z" stroke="#B4B4B4"/>
<path d="M339.16 601.064C176.521 601.382 44.4007 467.338 44.0807 301.647C43.7606 135.957 175.362 1.39612 338.001 1.07765C500.639 0.759179 632.759 134.804 633.08 300.494C633.4 466.184 501.799 600.745 339.16 601.064Z" stroke="#B4B4B4"/>
<path d="M14.0316 332.904L11.1916 324.62L11.1211 324.414L10.907 324.377L2.27481 322.874L10.6078 319.803L10.8144 319.726L10.8573 319.51L12.5857 310.804L15.4258 319.088L15.4962 319.294L15.7103 319.331L24.3425 320.834L16.0096 323.905L15.8029 323.981L15.76 324.197L14.0316 332.904Z" fill="#A7F46A" stroke="#B4B4B4" stroke-width="0.76"/>
</svg>
