<svg width="25" height="21" viewBox="0 0 25 21" fill="none" xmlns="http://www.w3.org/2000/svg">
<path d="M13.5343 1.53662C13.5343 1.99145 13.3413 2.40018 13.0343 2.68188V4.60978H18.0343C18.83 4.60978 19.593 4.93356 20.1556 5.50989C20.7183 6.08622 21.0343 6.86789 21.0343 7.68295V17.9268C21.0343 18.7419 20.7183 19.5236 20.1556 20.0999C19.593 20.6762 18.83 21 18.0343 21H6.03432C5.23868 21 4.47561 20.6762 3.913 20.0999C3.35039 19.5236 3.03432 18.7419 3.03432 17.9268V7.68295C3.03432 6.86789 3.35039 6.08622 3.913 5.50989C4.47561 4.93356 5.23868 4.60978 6.03432 4.60978H11.0343V2.68188C10.8478 2.51101 10.706 2.29506 10.6218 2.05369C10.5376 1.81233 10.5137 1.55323 10.5522 1.29997C10.5907 1.04671 10.6905 0.807353 10.8424 0.603685C10.9943 0.400017 11.1936 0.238511 11.422 0.133874C11.6504 0.0292375 11.9007 -0.0152061 12.1502 0.00459033C12.3996 0.0243868 12.6403 0.107794 12.8503 0.247218C13.0602 0.386642 13.2328 0.577653 13.3523 0.802857C13.4717 1.02806 13.5343 1.2803 13.5343 1.53662ZM6.03432 6.65856C5.76911 6.65856 5.51475 6.76649 5.32722 6.9586C5.13968 7.15071 5.03432 7.41126 5.03432 7.68295V17.9268C5.03432 18.1985 5.13968 18.4591 5.32722 18.6512C5.51475 18.8433 5.76911 18.9512 6.03432 18.9512H18.0343C18.2995 18.9512 18.5539 18.8433 18.7414 18.6512C18.929 18.4591 19.0343 18.1985 19.0343 17.9268V7.68295C19.0343 7.41126 18.929 7.15071 18.7414 6.9586C18.5539 6.76649 18.2995 6.65856 18.0343 6.65856H6.03432ZM2.03432 9.73172H0.0343246V15.8781H2.03432V9.73172ZM22.0343 9.73172H24.0343V15.8781H22.0343V9.73172ZM9.03432 14.3415C9.43215 14.3415 9.81368 14.1796 10.095 13.8914C10.3763 13.6033 10.5343 13.2124 10.5343 12.8049C10.5343 12.3974 10.3763 12.0065 10.095 11.7184C9.81368 11.4302 9.43215 11.2683 9.03432 11.2683C8.6365 11.2683 8.25497 11.4302 7.97366 11.7184C7.69236 12.0065 7.53432 12.3974 7.53432 12.8049C7.53432 13.2124 7.69236 13.6033 7.97366 13.8914C8.25497 14.1796 8.6365 14.3415 9.03432 14.3415ZM15.0343 14.3415C15.4321 14.3415 15.8137 14.1796 16.095 13.8914C16.3763 13.6033 16.5343 13.2124 16.5343 12.8049C16.5343 12.3974 16.3763 12.0065 16.095 11.7184C15.8137 11.4302 15.4321 11.2683 15.0343 11.2683C14.6365 11.2683 14.255 11.4302 13.9737 11.7184C13.6924 12.0065 13.5343 12.3974 13.5343 12.8049C13.5343 13.2124 13.6924 13.6033 13.9737 13.8914C14.255 14.1796 14.6365 14.3415 15.0343 14.3415Z" fill="#01060E"/>
</svg>
