<svg width="18" height="19" viewBox="0 0 18 19" fill="none" xmlns="http://www.w3.org/2000/svg">
<path d="M4 5.75016L2.225 3.9835L3.4 2.8085L5.16667 4.5835L4 5.75016ZM9.83333 0.833496V3.3335H8.16667V0.833496H9.83333ZM15.775 3.9835L14 5.75016L12.8333 4.5835L14.6 2.8085L15.775 3.9835ZM2.75 8.75016V10.4168H0.25V8.75016H2.75ZM15.25 8.75016H17.75V10.4168H15.25V8.75016ZM4 16.6668H14C14.442 16.6668 14.8659 16.8424 15.1785 17.155C15.4911 17.4675 15.6667 17.8915 15.6667 18.3335H2.33333C2.33333 17.8915 2.50893 17.4675 2.82149 17.155C3.13405 16.8424 3.55797 16.6668 4 16.6668ZM9 4.16683C10.3261 4.16683 11.5979 4.69361 12.5355 5.6313C13.4732 6.56898 14 7.84075 14 9.16683V15.8335H4V9.16683C4 7.84075 4.52678 6.56898 5.46447 5.6313C6.40215 4.69361 7.67392 4.16683 9 4.16683Z" fill="#1B1AFF"/>
</svg>
