<svg width="34" height="15" viewBox="0 0 34 15" fill="none" xmlns="http://www.w3.org/2000/svg">
<path d="M1.60415 6.03536C2.20641 2.70368 5.10682 0.280563 8.4925 0.280563H31.5717C32.8187 0.280563 33.7617 1.40924 33.5398 2.63634L32.3959 8.96464C31.7936 12.2963 28.8932 14.7194 25.5075 14.7194H2.42829C1.1813 14.7194 0.238362 13.5908 0.460183 12.3637L1.60415 6.03536Z" fill="black" fill-opacity="0.8"/>
<path d="M21.7093 10.3878C21.64 10.3878 21.5938 10.3589 21.5707 10.3011C21.5418 10.2434 21.5447 10.1856 21.5794 10.1279L24.8195 4.55736C24.8541 4.49383 24.9003 4.43896 24.9581 4.39275C25.0158 4.34655 25.0938 4.32345 25.192 4.32345H26.3529C26.4453 4.32345 26.5117 4.34655 26.5521 4.39275C26.5926 4.43896 26.6157 4.49383 26.6214 4.55736L27.5051 10.1279C27.5166 10.2087 27.5022 10.2723 27.4618 10.3185C27.4213 10.3647 27.3694 10.3878 27.3058 10.3878H26.4222C26.3355 10.3878 26.2749 10.3676 26.2402 10.3271C26.2056 10.2867 26.1825 10.2405 26.1709 10.1885L25.9977 9.24422H23.5546L22.9742 10.2145C22.9453 10.2549 22.9078 10.2954 22.8615 10.3358C22.8153 10.3704 22.7518 10.3878 22.671 10.3878H21.7093ZM24.1177 8.12665H25.911L25.5385 5.63161L24.1177 8.12665Z" fill="#71FF00"/>
<path d="M18.9192 10.3878C18.8614 10.3878 18.8152 10.3676 18.7806 10.3271C18.7459 10.2867 18.7344 10.2347 18.7459 10.1712L19.7422 5.52765H18.1655C18.1077 5.52765 18.0615 5.50744 18.0269 5.46701C17.9922 5.42658 17.9807 5.37749 17.9922 5.31973L18.1568 4.54003C18.1684 4.4765 18.1972 4.42452 18.2435 4.38409C18.2954 4.34366 18.3532 4.32345 18.4167 4.32345H22.9563C23.0198 4.32345 23.066 4.34366 23.0949 4.38409C23.1296 4.42452 23.1411 4.4765 23.1296 4.54003L22.9563 5.31973C22.9447 5.37749 22.9159 5.42658 22.8697 5.46701C22.8235 5.50744 22.7686 5.52765 22.7051 5.52765H21.137L20.1407 10.1712C20.1292 10.2347 20.0974 10.2867 20.0454 10.3271C19.9992 10.3676 19.9444 10.3878 19.8808 10.3878H18.9192Z" fill="#71FF00"/>
<path d="M12.1539 10.3878C12.0962 10.3878 12.05 10.3676 12.0153 10.3271C11.9807 10.2867 11.9691 10.2347 11.9807 10.1712L13.1762 4.54003C13.1878 4.4765 13.2195 4.42452 13.2715 4.38409C13.3235 4.34366 13.3784 4.32345 13.4361 4.32345H17.3606C17.4241 4.32345 17.4703 4.34366 17.4992 4.38409C17.5339 4.42452 17.5454 4.4765 17.5339 4.54003L17.3866 5.2331C17.375 5.29085 17.3433 5.33995 17.2913 5.38037C17.2451 5.4208 17.1902 5.44102 17.1267 5.44102H14.3198L14.0252 6.80116H16.6415C16.7051 6.80116 16.7513 6.82137 16.7802 6.8618C16.8148 6.90223 16.8264 6.95421 16.8148 7.01774L16.6762 7.65883C16.6647 7.71658 16.6329 7.76568 16.5809 7.8061C16.5347 7.84653 16.4798 7.86675 16.4163 7.86675H13.8086L13.5054 9.27021H16.3816C16.4452 9.27021 16.4914 9.29042 16.5203 9.33085C16.5549 9.37128 16.5665 9.42326 16.5549 9.48679L16.4076 10.1712C16.3961 10.2347 16.3643 10.2867 16.3123 10.3271C16.2661 10.3676 16.2113 10.3878 16.1477 10.3878H12.1539Z" fill="#71FF00"/>
<path d="M6.12177 10.3878C6.06401 10.3878 6.01781 10.3676 5.98315 10.3271C5.9485 10.2867 5.93695 10.2347 5.9485 10.1712L7.14404 4.54003C7.15559 4.4765 7.18736 4.42452 7.23933 4.38409C7.29131 4.34366 7.34618 4.32345 7.40394 4.32345H9.89031C10.3408 4.32345 10.7104 4.39275 10.9992 4.53137C11.2938 4.66998 11.5017 4.86635 11.623 5.12047C11.75 5.3746 11.776 5.67204 11.7009 6.0128C11.6547 6.23804 11.5739 6.43152 11.4584 6.59324C11.3486 6.75495 11.2274 6.88779 11.0945 6.99175C10.9617 7.08994 10.8375 7.16213 10.722 7.20834C10.9241 7.32385 11.0859 7.5 11.2071 7.7368C11.3284 7.96782 11.3544 8.24793 11.2851 8.57714C11.2042 8.941 11.0656 9.25866 10.8693 9.53011C10.6787 9.80156 10.4188 10.0124 10.0896 10.1625C9.76036 10.3127 9.35319 10.3878 8.86804 10.3878H6.12177ZM7.49923 9.37417H8.82472C9.09617 9.37417 9.32431 9.2962 9.50913 9.14026C9.69394 8.97854 9.80945 8.78795 9.85566 8.56848C9.90764 8.34323 9.88165 8.15553 9.77769 8.00536C9.6795 7.84942 9.47736 7.77145 9.17126 7.77145H7.8371L7.49923 9.37417ZM8.04502 6.77517H9.27522C9.54089 6.77517 9.76036 6.70875 9.93363 6.57591C10.1069 6.4373 10.2195 6.26115 10.2715 6.04745C10.3177 5.83375 10.2917 5.66338 10.1935 5.53631C10.0953 5.40348 9.91341 5.33706 9.64774 5.33706H8.3569L8.04502 6.77517Z" fill="#71FF00"/>
</svg>
