<svg width="78" height="77" viewBox="0 0 78 77" fill="none" xmlns="http://www.w3.org/2000/svg">
<path d="M67.865 34.3608C69.479 34.3608 70.7874 35.6693 70.7874 37.2833V69.9941H74.7495C76.5067 69.9941 77.9311 71.4185 77.9311 73.1756V73.1756C77.9311 74.9327 76.5067 76.3572 74.7495 76.3572H3.18154C1.42442 76.3572 0 74.9327 0 73.1756V73.1756C0 71.4185 1.42443 69.9941 3.18154 69.9941H6.49426V61.1514C6.49426 59.358 7.94805 57.9042 9.74139 57.9042V57.9042C11.5347 57.9042 12.9885 59.358 12.9885 61.1514V69.9941H25.977V43.3347C25.977 41.5414 27.4308 40.0876 29.2242 40.0876V40.0876C31.0175 40.0876 32.4713 41.5414 32.4713 43.3347V69.9941H45.4598V55.4246C45.4598 53.6312 46.9136 52.1775 48.7069 52.1775V52.1775C50.5003 52.1775 51.9541 53.6312 51.9541 55.4246V69.9941H64.9426V37.2833C64.9426 35.6693 66.251 34.3608 67.865 34.3608V34.3608Z" fill="white"/>
<path d="M68.6322 0C73.0505 0 76.6322 3.58172 76.6322 8V23.4778C76.6322 25.2711 75.1784 26.7249 73.3851 26.7249V26.7249C71.5918 26.7249 70.138 25.2711 70.138 23.4778V10.1809L48.7069 31.1791V31.1791C45.7674 33.6992 41.389 33.5536 38.6234 30.8439L32.4713 24.816L6.7726 49.9956C5.53559 51.2076 3.55637 51.2076 2.31937 49.9956V49.9956C1.04614 48.7481 1.04614 46.6981 2.31937 45.4506L27.0301 21.239C30.0773 18.2533 34.9312 18.1841 38.0624 21.0815L44.1609 26.7249L64.9426 6.36308H53.8367C52.0796 6.36308 50.6552 4.93865 50.6552 3.18154V3.18154C50.6552 1.42442 52.0796 0 53.8367 0H68.6322Z" fill="#A3EE6F"/>
</svg>
