<svg width="1440" height="245" viewBox="0 0 1440 245" fill="none" xmlns="http://www.w3.org/2000/svg">
<rect width="1440" height="245" fill="#1B1AFF"/>
<mask id="mask0_2283_837" style="mask-type:alpha" maskUnits="userSpaceOnUse" x="0" y="0" width="1440" height="245">
<rect width="1440" height="245" fill="#0F172A"/>
</mask>
<g mask="url(#mask0_2283_837)">
<path opacity="0.2" d="M1425.2 66C1410.95 67.4781 1395.47 67.7099 1381.59 71.1667C1368 74.5492 1353.69 80.6856 1341.74 87.1667C1319.71 99.11 1308.43 115.83 1298.19 135.778C1281.3 168.697 1275.19 202.841 1274.92 238.611C1274.75 262.291 1275.57 285.731 1277.79 309.333C1278.47 316.54 1278.13 324.777 1282.89 331" stroke="white" stroke-width="3" stroke-linecap="round"/>
<path opacity="0.1" d="M1454 83C1439.32 84.5228 1423.38 84.7615 1409.08 88.3226C1395.09 91.8072 1380.35 98.1289 1368.04 104.806C1345.35 117.11 1333.73 134.334 1323.19 154.884C1305.79 188.798 1299.5 223.972 1299.22 260.822C1299.04 285.217 1299.89 309.364 1302.18 333.679C1302.88 341.103 1302.53 349.59 1307.43 356" stroke="white" stroke-width="3" stroke-linecap="round"/>
<path opacity="0.1" d="M-93.6 54.438C-76.6716 69.0872 -61.6337 84.6971 -40.9016 95.3611C-26.0942 102.978 -10.0619 107.453 7.08384 107.898C39.0512 108.729 71.9464 104.511 101.662 93.8945C132.027 83.0466 163.911 73.6347 191.153 57.182C216.481 41.8851 240.148 23.5734 266.398 9.58819C310.381 -13.8442 364.026 -17 414.05 -17C440.514 -17 467.07 -16.8162 493.526 -16.1484C510.128 -15.7294 527.104 -13.57 543.6 -15.3915" stroke="white" stroke-width="3" stroke-linecap="round"/>
<path opacity="0.2" d="M-100.8 87.1531C-82.5088 102.974 -66.2602 119.833 -43.859 131.35C-27.8595 139.576 -10.5364 144.409 7.98967 144.89C42.5307 145.787 78.0742 141.231 110.183 129.766C142.992 118.05 177.443 107.885 206.878 90.1166C234.245 73.5959 259.817 53.8192 288.181 38.7152C335.705 13.4082 393.669 10 447.72 10C476.315 10 505.009 10.1986 533.594 10.9197C551.533 11.3722 569.876 13.7044 587.7 11.7372" stroke="white" stroke-width="3" stroke-linecap="round"/>
</g>
</svg>
