<svg width="499" height="437" viewBox="0 0 499 437" fill="none" xmlns="http://www.w3.org/2000/svg">
<path d="M111.468 501.652C50.6514 350.801 127.604 177.671 283.391 114.973C439.177 52.2753 614.754 123.772 675.571 274.623C736.388 425.474 659.436 598.604 503.649 661.302C347.862 724 172.285 652.503 111.468 501.652Z" stroke="white"/>
<path d="M123.435 531.335C62.6178 380.484 139.571 207.354 295.357 144.656C451.144 81.958 626.721 153.455 687.538 304.306C748.355 455.156 671.402 628.287 515.615 690.984C359.829 753.682 184.252 682.185 123.435 531.335Z" stroke="white"/>
<path d="M147.192 222.127L150.248 213.812L150.323 213.608L150.18 213.444L144.397 206.828L152.862 209.641L153.071 209.71L153.24 209.569L160.123 203.787L157.068 212.102L156.993 212.306L157.136 212.469L162.919 219.085L154.454 216.273L154.245 216.203L154.076 216.345L147.192 222.127Z" fill="#A2F3B3" stroke="white" stroke-width="0.76"/>
</svg>
