<svg width="18" height="20" viewBox="0 0 18 20" fill="none" xmlns="http://www.w3.org/2000/svg">
<path d="M2.33333 3.33333V18.3333H15.6667V20H2.33333C1.41666 20 0.666664 19.25 0.666664 18.3333V3.33333H2.33333ZM11.5 5.83333H16.0833L11.5 1.25V5.83333ZM5.66666 0H12.3333L17.3333 5V15C17.3333 15.925 16.5917 16.6667 15.6667 16.6667H5.66666C5.22464 16.6667 4.80071 16.4911 4.48815 16.1785C4.17559 15.8659 4 15.442 4 15V1.66667C4 0.741667 4.74166 0 5.66666 0ZM13.1667 13.3333V11.6667H5.66666V13.3333H13.1667ZM15.6667 10V8.33333H5.66666V10H15.6667Z" fill="#1B1AFF"/>
</svg>
