<svg id="Layer_1" data-name="Layer 1" xmlns="http://www.w3.org/2000/svg" viewBox="0 0 32 32"><defs></defs><circle class="cls-1" cx="16" cy="16" r="16"/><path class="cls-2" d="M16,0A16,16,0,1,0,32,16,16,16,0,0,0,16,0Zm6.86,16.34a4.2,4.2,0,0,1-3,2.22c-.44.11-.89.17-1.36.27a2.92,2.92,0,0,1,.7,2.26c0,.85,0,1.7,0,2.55,0,.42.18.65.49.66H13.29a.46.46,0,0,0,.51-.42c0-.7,0-1.39,0-2.07a12,12,0,0,1-1.45.06,2.39,2.39,0,0,1-2.28-1.53,2.91,2.91,0,0,0-1.2-1.48,1,1,0,0,1-.28-.25c-.11-.13-.09-.26.08-.29a1.36,1.36,0,0,1,.53,0,2.23,2.23,0,0,1,1.49,1.1,2.23,2.23,0,0,0,3,.93.28.28,0,0,0,.17-.15,2.6,2.6,0,0,1,.65-1.33c-.41-.08-.79-.13-1.16-.22A4.62,4.62,0,0,1,10.6,17a4.83,4.83,0,0,1-1-2.47,4.61,4.61,0,0,1,.95-3.85.32.32,0,0,0,.05-.25,4,4,0,0,1,0-2.36c.12-.41.16-.43.58-.37h.07a6.29,6.29,0,0,1,2.28,1A.63.63,0,0,0,14,8.8a10.52,10.52,0,0,1,5.11,0,.56.56,0,0,0,.33-.06c.38-.21.76-.44,1.15-.63A3.25,3.25,0,0,1,22,7.72a.37.37,0,0,1,.26.17,4,4,0,0,1,.13,2.53.44.44,0,0,0,.06.31,8.48,8.48,0,0,1,.74,1.35A5.68,5.68,0,0,1,22.86,16.34Z"/></svg>