<svg width="80" height="84" viewBox="0 0 80 84" fill="none" xmlns="http://www.w3.org/2000/svg">
<g filter="url(#filter0_d_1_1508)">
<path d="M39.014 26.824C39.2021 25.7132 40.7979 25.7132 40.986 26.824L42.7605 37.3057C42.8306 37.7199 43.1521 38.0461 43.5653 38.1222L51.6601 39.613C52.7519 39.8141 52.7519 41.3789 51.6601 41.58L43.5708 43.0698C43.1549 43.1464 42.8322 43.4762 42.7647 43.8937L40.9872 54.8919C40.8061 56.0125 39.1939 56.0125 39.0128 54.8919L37.2353 43.8937C37.1678 43.4762 36.8451 43.1464 36.4292 43.0698L28.3399 41.58C27.2481 41.3789 27.2481 39.8141 28.3399 39.613L36.4347 38.1222C36.8479 38.0461 37.1694 37.7199 37.2395 37.3057L39.014 26.824Z" fill="#A7F46A"/>
</g>
<defs>
<filter id="filter0_d_1_1508" x="0.521057" y="-0.0090332" width="78.9579" height="83.7415" filterUnits="userSpaceOnUse" color-interpolation-filters="sRGB">
<feFlood flood-opacity="0" result="BackgroundImageFix"/>
<feColorMatrix in="SourceAlpha" type="matrix" values="0 0 0 0 0 0 0 0 0 0 0 0 0 0 0 0 0 0 127 0" result="hardAlpha"/>
<feOffset dy="1"/>
<feGaussianBlur stdDeviation="13.5"/>
<feComposite in2="hardAlpha" operator="out"/>
<feColorMatrix type="matrix" values="0 0 0 0 1 0 0 0 0 1 0 0 0 0 1 0 0 0 0.55 0"/>
<feBlend mode="normal" in2="BackgroundImageFix" result="effect1_dropShadow_1_1508"/>
<feBlend mode="normal" in="SourceGraphic" in2="effect1_dropShadow_1_1508" result="shape"/>
</filter>
</defs>
</svg>
