<svg width="444" height="394" viewBox="0 0 444 394" fill="none" xmlns="http://www.w3.org/2000/svg">
<path d="M307.146 392.956C144.462 393.249 12.39 271.298 12.0738 120.65C11.7576 -29.9976 143.316 -152.423 306.001 -152.716C468.685 -153.01 600.756 -31.0591 601.073 119.589C601.389 270.237 469.83 392.662 307.146 392.956Z" stroke="#EDEDED"/>
<path d="M339.159 392.892C176.475 393.182 44.4005 271.228 44.0805 120.58C43.7606 -30.0676 175.316 -152.49 338.001 -152.78C500.685 -153.07 632.759 -31.1167 633.079 119.531C633.399 270.179 501.844 392.602 339.159 392.892Z" stroke="#EDEDED"/>
<path d="M14.0308 149.002L11.188 141.459L11.1113 141.256L10.8963 141.221L2.40953 139.878L10.6021 137.131L10.8096 137.061L10.8563 136.847L12.5864 128.92L15.4293 136.463L15.506 136.666L15.721 136.7L24.2077 138.044L16.0152 140.791L15.8077 140.861L15.761 141.075L14.0308 149.002Z" fill="#A7F46A" stroke="#EDEDED" stroke-width="0.76"/>
</svg>
