<svg width="104" height="104" viewBox="0 0 104 104" fill="none" xmlns="http://www.w3.org/2000/svg">
<g clip-path="url(#clip0_1_1505)">
<path d="M19.7539 91.0101C19.2867 91.0101 18.8195 90.8781 18.4031 90.6039C17.2859 89.8523 16.9812 88.339 17.7226 87.2218L22.039 80.7523C22.364 80.275 22.8414 79.9195 23.3898 79.757C24.2836 79.4929 25.3703 79.0156 25.7359 78.7211C26.6703 76.7609 25.0351 72.6781 24.0703 70.9718C23.8875 70.6469 23.7859 70.2812 23.7554 69.9156C23.6742 68.6258 23.4609 66.8992 23.2273 66.1781C22.8211 65.7109 21.3078 64.7359 19.9468 64.0656C19.5304 63.8625 19.1851 63.5476 18.9414 63.1515C18.525 62.4711 14.8383 56.3469 14.8383 52.0406C14.8383 46.932 18.5148 44.2304 22.1914 43.814C24.8218 43.3265 26.264 40.9297 26.3554 40.7672C26.6703 40.1578 27.2086 39.7515 27.8687 39.5789C29.6156 39.1117 31.657 38.1672 32.1445 37.5984C32.1851 37.3344 32.2461 36.3187 31.657 33.8406C31.2508 32.1445 30.7633 30.6922 30.7531 30.682C30.6008 30.2453 30.5804 29.7679 30.6922 29.3109C30.8445 28.6609 31.1898 26.4875 30.7125 25.1469C30.2554 23.857 28.6508 22.5062 28.1226 22.1304C27.7367 21.8562 27.4422 21.4906 27.2593 21.0539C26.6703 19.6219 24.6898 15.5594 22.6281 14.0359C21.5414 13.2336 21.3179 11.7101 22.1203 10.6234C22.9226 9.5367 24.4461 9.31326 25.5328 10.1156C28.5187 12.3195 30.7328 16.8492 31.5047 18.5758C32.5203 19.3883 34.4804 21.1961 35.3031 23.5117C36.1054 25.7969 35.8008 28.4578 35.5672 29.7375C35.7906 30.4586 36.1562 31.6875 36.4609 33.0281C37.2328 36.3898 37.2125 38.5226 36.4101 39.9344C35.6687 41.2344 34.1961 42.3312 31.9109 43.2961C31.2 43.5906 30.5297 43.8242 30.0219 43.9969C29.0062 45.3984 26.6804 47.9679 22.9328 48.6179C22.882 48.6281 22.8312 48.6383 22.7703 48.6383C21.8461 48.7398 19.6929 49.2578 19.6929 52.0304C19.6929 54.0617 21.4398 57.7687 22.7297 60.0234C23.1461 60.2469 23.7047 60.5617 24.2836 60.9172C26.1929 62.1054 27.239 63.1312 27.6859 64.2383C28.2344 65.6094 28.4679 67.9351 28.5594 69.0625C29.5344 70.9414 32.2664 76.9437 29.9101 81.189C29.3515 82.1945 28.3156 82.9969 26.6297 83.7281C26.2539 83.8906 25.8984 84.0226 25.6039 84.1344L21.7851 89.9234C21.3179 90.6344 20.5461 91.0101 19.7539 91.0101ZM68.1281 34.8562C67.8437 34.8562 67.5695 34.8359 67.2953 34.7953C62.6133 34.1351 58.3375 29.5547 57.8601 29.0367C57.4336 28.5695 57.2101 27.95 57.2304 27.3203C57.3015 25.1875 57.2304 22.9226 57.0781 21.5109C55.382 21.9679 52.7109 22.6179 50.5172 20.8609C49.4914 20.0383 48.2929 18.3726 48.3843 15.0922C48.3945 14.7875 48.4148 14.4828 48.4351 14.2086C48.232 14.1273 48.0289 14.0359 47.8258 13.9445C45.5203 12.8984 44.2711 11.8422 43.7937 10.5219C43.0422 8.47029 44.2203 6.07341 45.2562 3.97107C45.4797 3.51404 45.764 2.93513 45.8351 2.73201C46.2515 1.45232 47.6226 0.75154 48.9023 1.15779C50.182 1.5742 50.8929 2.94529 50.4765 4.22498C50.3039 4.77341 49.989 5.4031 49.6336 6.1242C49.3594 6.69295 48.689 8.04373 48.4961 8.79529C49.1461 9.24217 50.5883 9.89217 51.8984 10.3086C53.1375 10.6945 53.8586 11.9844 53.5336 13.2437C53.1375 14.8484 53.2187 16.7679 53.5742 17.0828C53.9195 17.357 55.2703 16.9812 55.9914 16.7781C57.1289 16.4633 58.307 16.1383 59.4648 16.5344C61.4453 17.1945 61.9226 19.4797 62.0851 23.1969C62.1359 24.4359 62.1359 25.6344 62.1258 26.457C63.4461 27.7265 65.8937 29.707 67.9656 30.0015C68.1992 30.032 69.5297 30.0828 72.5156 27.6859C74.3437 26.2234 75.7656 24.6594 75.7758 24.639C76.1109 24.2633 76.5578 24.0094 77.0453 23.8976C77.1265 23.8773 85.0687 22.0492 89.4664 19.9367C90.6851 19.3578 92.1375 19.8656 92.7164 21.0844C93.2953 22.3031 92.7875 23.7554 91.5687 24.3344C87.4656 26.3047 81.0265 27.95 78.8531 28.4781C78.2031 29.1484 77.025 30.3164 75.6031 31.4539C72.7492 33.7289 70.2914 34.8562 68.1281 34.8562ZM56.9765 90.1976C56.4484 90.1976 55.9304 90.1367 55.4226 89.9945C54.1328 89.639 52.3758 88.6336 51.3094 85.8304C49.725 81.6765 50.3953 75.0445 52.7718 71.368C52.8633 71.2359 53.1273 70.6773 53.0258 69.0929C52.9343 67.8133 52.65 66.4219 52.3961 65.2031C52.2133 64.3297 52.0609 63.6086 52 62.9992C51.6851 62.4812 50.507 61.3742 49.7859 60.6937C47.7648 58.7945 46.0179 57.1492 46.0179 55.1078C46.0179 53.8687 46.4445 51.8273 49.7758 47.0336C51.4719 44.5859 53.1476 42.5547 53.2187 42.4734C53.5133 42.1179 53.8992 41.8539 54.3359 41.7117C54.3969 41.6914 55.7984 41.2344 57.4336 40.8179C60.7445 39.975 62.0445 40.0867 62.8062 40.2797C64.4008 40.6758 66.7265 41.9859 67.8031 42.6258C69.6515 42.8187 74.4047 43.4078 76.7406 44.6469C76.9234 44.7383 77.0961 44.8601 77.2484 45.0023L80.082 47.5922C80.3258 47.6937 80.6203 47.8054 80.9758 47.9578C81.707 48.2625 82.814 48.7398 83.9718 49.3187C87.4047 51.0351 89.3344 52.6195 90.0453 54.3054C91.1117 56.8445 89.893 60.2672 89.0601 62.0851C88.5726 63.1719 86.7648 66.8078 84.175 68.0976C80.7625 69.8039 78.8937 71.7742 78.325 72.6679C78.1828 72.9015 77.868 73.7547 77.6344 74.3742C76.5375 77.3297 75.0343 81.382 71.7234 82.682C70.9312 82.9867 69.3976 84.0531 67.9148 85.0687C64.3601 87.4859 60.4195 90.1976 56.9765 90.1976ZM50.9336 54.8742C51.3297 55.4429 52.4367 56.4789 53.1273 57.1289C55.0468 58.9367 56.7023 60.5008 56.8445 62.4C56.8648 62.7351 57.0273 63.4765 57.1695 64.1976C57.789 67.1836 58.6422 71.2664 56.875 74.0086C55.3312 76.3953 54.8336 81.3922 55.8695 84.0937C56.1742 84.8859 56.5195 85.2312 56.7226 85.2922C56.8648 85.3328 57.6976 85.475 59.8914 84.3476C61.5875 83.4742 63.4765 82.1844 65.1422 81.0367C67.0109 79.7469 68.6258 78.6398 69.9461 78.1219C70.1593 78.0406 70.7281 77.7054 71.4797 76.3445C72.1195 75.207 72.6172 73.8562 73.0539 72.6578C73.4601 71.5508 73.7851 70.6672 74.2015 70.0273C75.6133 67.8031 78.5281 65.4469 81.9914 63.7101C82.4992 63.4562 83.6265 62.1867 84.5711 60.1351C85.5562 58.0023 85.6476 56.5398 85.5461 56.1844C85.475 56.0726 84.825 55.1687 81.7476 53.6351C79.8992 52.7109 78.1726 52.0609 77.9797 51.9898C77.675 51.8883 77.3906 51.7156 77.1469 51.4922L74.2218 48.8211C72.7086 48.1711 69.0523 47.6125 66.7976 47.4094C66.4219 47.3789 66.0562 47.257 65.7312 47.0539C64.5836 46.3429 62.5726 45.2461 61.6586 45.0023C60.9781 44.9414 58.7031 45.439 56.5297 46.1094C55.9508 46.8406 54.8742 48.2117 53.8179 49.7351C51.614 52.9039 51.0656 54.3664 50.9336 54.8742Z" fill="#A7F46A"/>
<path d="M52.0508 103.238C45.1445 103.238 38.4414 101.888 32.1242 99.2164C26.0305 96.6367 20.5562 92.95 15.8539 88.2477C11.1516 83.5453 7.46484 78.0711 4.88516 71.9773C2.21406 65.6602 0.863281 58.957 0.863281 52.0508C0.863281 45.1445 2.21406 38.4414 4.88516 32.1242C7.46484 26.0305 11.1516 20.5562 15.8539 15.8539C20.5562 11.1516 26.0305 7.46484 32.1242 4.88516C38.4414 2.21406 45.1445 0.863281 52.0508 0.863281C58.957 0.863281 65.6602 2.21406 71.9773 4.88516C78.0711 7.46484 83.5453 11.1516 88.2477 15.8539C92.95 20.5562 96.6367 26.0305 99.2164 32.1242C101.888 38.4414 103.238 45.1445 103.238 52.0508C103.238 58.957 101.888 65.6602 99.2164 71.9773C96.6367 78.0711 92.95 83.5453 88.2477 88.2477C83.5453 92.95 78.0711 96.6367 71.9773 99.2164C65.6602 101.888 58.957 103.238 52.0508 103.238ZM52.0508 5.73828C26.518 5.73828 5.73828 26.518 5.73828 52.0508C5.73828 77.5836 26.518 98.3633 52.0508 98.3633C77.5836 98.3633 98.3633 77.5836 98.3633 52.0508C98.3633 26.518 77.5836 5.73828 52.0508 5.73828Z" fill="white"/>
</g>
<defs>
<clipPath id="clip0_1_1505">
<rect width="104" height="104" fill="white"/>
</clipPath>
</defs>
</svg>
