<svg width="101" height="102" viewBox="0 0 101 102" fill="none" xmlns="http://www.w3.org/2000/svg">
<path d="M64.2891 71.4704C67.7422 73.8267 69.8344 77.615 69.7024 81.6267C69.5297 86.8267 65.7516 91.2243 59.1704 93.4689C59.0993 98.1915 55.2501 101 50.5071 101C45.7235 101 41.8438 98.1204 41.8438 93.3368C41.8438 88.5532 45.7235 84.6735 50.5071 84.6735C53.8079 84.6735 56.6821 86.522 58.1446 89.2439C60.4602 88.411 62.2274 87.2837 63.4461 85.9532C64.6852 84.6024 65.3251 83.0689 65.3758 81.4845C65.4876 78.336 63.2735 75.2689 59.7696 73.9892L59.8102 73.8876C58.754 74.3853 57.6672 74.8423 56.5501 75.2587C50.1516 77.6861 43.1438 78.7829 36.8977 78.4478C30.5196 78.1024 25.3297 76.2845 22.5469 73.136C19.7743 70.0079 19.6118 65.9962 22.0188 61.7001C20.0079 61.1923 18.261 60.2376 16.8493 58.8868C12.6243 59.6993 8.81568 58.0845 5.97193 54.611C3.4735 51.554 1.80787 47.1665 1.22896 42.4134C0.639902 37.6501 1.18834 32.8462 2.86412 28.9767C4.57037 25.036 7.36334 22.2126 11.0805 20.9634C11.9133 15.347 13.9751 10.9189 17.093 7.79073C20.1704 4.71339 24.1415 3.04777 28.4172 2.84464C31.9008 2.68214 35.3235 3.49464 38.218 5.01808C41.1735 1.84933 46.0079 -0.0498914 50.8118 0.366515C55.0368 0.742296 58.886 2.7837 62.0344 6.43995C66.2188 5.03839 71.1547 4.76417 75.3188 6.13526C79.0766 7.37433 82.0219 9.8423 83.9008 13.5493C89.5274 15.1337 94.4938 18.6579 96.6165 23.1064C98.729 27.5548 98.9524 32.6634 97.043 37.5485C100.953 42.5251 101.563 49.5837 98.4344 54.936C96.6571 57.9728 93.8235 60.2173 90.1876 61.3446C86.2977 62.5431 81.6157 62.4415 76.3141 60.9384C76.0602 60.8673 75.8266 60.7556 75.6235 60.6032C75.1055 61.3548 74.5571 62.1064 73.9782 62.8579C71.3782 66.24 68.0876 69.1142 64.2891 71.4704ZM26.9243 62.086C25.5126 63.965 24.7915 65.6306 24.6696 67.0321C24.568 68.261 24.9337 69.3071 25.7766 70.2618C27.6555 72.3845 31.7891 73.8267 37.1212 74.1212C42.768 74.4259 49.1665 73.4204 55.0063 71.2064C61.4251 68.7689 66.8383 65.0314 70.5555 60.2275C74.1102 55.6267 76.1008 51.4118 76.5883 47.5829C72.8001 46.6485 69.9969 43.236 69.9969 39.1634C69.9969 34.3798 73.8766 30.5001 78.6602 30.5001C83.4438 30.5001 86.9969 34.3798 86.9969 39.1634C86.9969 43.1548 84.6735 45.9945 80.9969 47C80.7024 50.0164 79.6352 53.6665 77.9087 56.886C82.2657 58.0642 85.9626 58.115 88.9079 57.2009C91.518 56.3985 93.468 54.8446 94.6969 52.7524C97.0836 48.6696 96.3829 43.0431 92.9501 39.4376C92.3305 38.7876 92.1782 37.8329 92.5641 37.0204C94.4938 32.9275 94.4633 28.6618 92.7063 24.9751C91.4672 22.3751 88.918 20.1204 85.6782 18.7087C85.8102 19.3181 85.9118 19.9376 86.0032 20.5876C86.1657 21.7759 85.3329 22.8626 84.1547 23.0251C82.9665 23.1876 81.8797 22.3548 81.7172 21.1767C80.8844 15.0626 78.1422 11.64 73.968 10.2587C71.1649 9.33448 67.7422 9.39542 64.6751 10.1775C65.3352 11.3048 65.9446 12.5337 66.5032 13.854C66.9704 14.961 66.4524 16.2306 65.3454 16.6876C64.2383 17.1548 62.9688 16.6368 62.5118 15.5298C60.9579 11.8431 58.9977 9.11105 56.7532 7.30323C54.8032 5.72902 52.6602 4.86573 50.436 4.67276C47.186 4.38839 43.9055 5.58683 41.8235 7.52667C43.9055 9.4462 45.3883 11.8532 45.9063 14.5446C46.1399 15.7228 45.368 16.8603 44.1899 17.0837C43.0118 17.3173 41.8743 16.5454 41.6508 15.3673C40.7266 10.6142 34.836 6.85636 28.6204 7.15089C25.3907 7.30323 22.4454 8.5423 20.1602 10.8275C17.5094 13.4782 15.7727 17.49 15.1938 22.8728C15.0922 23.8071 14.4016 24.579 13.4774 24.7618C10.4712 25.3814 8.23678 27.4228 6.83521 30.6728C5.48443 33.7907 5.0274 37.8329 5.5149 41.8751C6.0024 45.8665 7.37349 49.4821 9.31334 51.8485C10.7352 53.5853 12.3704 54.5603 14.1883 54.7228C12.736 50.0509 14.9399 44.1704 19.754 40.047C18.6469 38.615 17.9969 36.797 17.9969 34.8368C17.9969 30.0532 21.8766 26.5 26.6602 26.5C31.4438 26.5 34.9969 30.0532 34.9969 34.8368C34.9969 39.6204 31.454 43.5001 26.6602 43.5001C25.3399 43.5001 24.0805 43.2056 22.9532 42.6673C17.8547 46.6993 16.636 51.6048 19.0227 54.8446C20.2211 56.4798 22.029 57.4853 24.4055 57.7392C27.2087 58.0337 30.6922 57.272 34.7141 55.3321C36.8368 54.3064 38.8579 53.7782 40.9196 53.6259C42.4532 53.5142 43.6211 53.5954 45.8555 53.8595C47.0743 54.0017 47.5008 54.0525 48.0899 54.0829C50.5172 54.2251 52.254 53.7173 54.4376 51.9399C56.5602 50.2134 57.1391 47.2985 55.9305 42.8501C54.9149 43.2665 53.8079 43.5001 52.6399 43.5001C47.8563 43.5001 43.9766 39.6204 43.9766 34.8368C43.9766 30.0532 47.8563 26.5 52.6399 26.5C57.4235 26.5 60.9969 30.0532 60.9969 34.8368C60.9969 36.7767 60.6633 38.5642 59.5868 40.0064C59.5969 40.0368 59.6071 40.0673 59.6172 40.0876C61.8415 46.8618 61.1305 52.072 57.1594 55.3017C54.1024 57.79 51.2993 58.6025 47.836 58.4095C47.1251 58.3689 46.6477 58.3181 45.3274 58.1657C43.3571 57.9321 42.4024 57.8712 41.2141 57.9524C39.6907 58.0642 38.1977 58.4501 36.5727 59.2423C33.1297 60.9181 29.8696 61.8626 26.9243 62.086ZM52.6399 39.5C55.0368 39.5 56.9969 37.2235 56.9969 34.8267C56.9969 32.4298 55.0571 30.5001 52.6602 30.5001C50.2633 30.5001 47.836 32.44 47.836 34.8368C47.836 37.2337 50.2532 39.5 52.6399 39.5ZM26.4969 39.5C28.8938 39.5 30.9969 37.2235 30.9969 34.8267C30.9969 32.4298 29.0571 30.5001 26.6602 30.5001C24.2633 30.5001 21.9969 32.44 21.9969 34.8368C21.9969 37.2337 24.1102 39.5 26.4969 39.5ZM78.6602 43.5001C81.0571 43.5001 82.9969 41.5603 82.9969 39.1634C82.9969 36.7665 81.0571 34.5 78.6602 34.5C76.2633 34.5 73.4969 36.7665 73.4969 39.1634C73.4969 41.5603 76.2735 43.5001 78.6602 43.5001ZM50.4969 97.6634C52.8938 97.6634 54.8336 95.7235 54.8336 93.3267C54.8336 90.9298 52.8938 88.0001 50.4969 88.0001C48.1001 88.0001 46.1602 90.94 46.1602 93.3368C46.1602 95.7337 48.1001 97.6634 50.4969 97.6634Z" fill="white" stroke="white" stroke-width="0.5"/>
<circle cx="26.4969" cy="35" r="6.5" stroke="#A7F46A" stroke-width="5"/>
<circle cx="52.4969" cy="35" r="6.5" stroke="#A7F46A" stroke-width="5"/>
<circle cx="78.4969" cy="39" r="6.5" stroke="#A7F46A" stroke-width="5"/>
<circle cx="50.4969" cy="93" r="6.5" stroke="#A7F46A" stroke-width="5"/>
</svg>
