<svg width="86" height="115" viewBox="0 0 86 115" fill="none" xmlns="http://www.w3.org/2000/svg">
<path d="M6.47297 72.619V73.847L7.33075 72.9683L22.4389 57.4921L22.4464 57.4844L22.4535 57.4765L22.4535 57.4765L22.4535 57.4765L22.4541 57.4758L22.4572 57.4724L22.4703 57.4579C22.4822 57.4448 22.5003 57.425 22.5243 57.3989C22.5725 57.3467 22.6446 57.2694 22.7388 57.1706C22.9272 56.9729 23.2039 56.6894 23.5543 56.3492L23.5545 56.3494L23.5638 56.3397L24.5056 55.375L24.5664 55.4061L24.8219 55.1812C26.2048 53.9633 28.0932 52.4898 30.2462 51.3228C32.4024 50.154 34.793 49.3095 37.1892 49.3095H48.8108C54.3216 49.3095 58.4838 52.5022 61.2276 55.1335L61.4847 55.38L61.4944 55.3751L61.9144 55.8052L61.9143 55.8052L61.9181 55.809C62.3105 56.2025 62.6676 56.5722 62.9869 56.9028L63.0945 57.0141L63.0963 57.0159L63.5611 57.4921L78.6692 72.9683L79.527 73.847V72.619V11.9048C79.527 10.513 78.9874 9.17599 78.0232 8.18831C77.0587 7.20023 75.7478 6.64286 74.3784 6.64286H11.6216C10.2522 6.64286 8.94133 7.20023 7.97675 8.18831C7.01257 9.17599 6.47297 10.513 6.47297 11.9048V72.619ZM79.527 84.5238V84.327L79.3928 84.1829L55.9613 59.0377L55.9335 59.0079L55.9013 58.983C52.6618 56.4787 48.3545 55.4524 43 55.4524C37.6455 55.4524 33.337 56.4786 30.0986 58.983L30.0664 59.0079L30.0387 59.0377L6.60717 84.1829L6.47297 84.327V84.5238V88.0952C6.47297 88.7846 6.60551 89.4675 6.86329 90.105C7.12109 90.7425 7.49924 91.3225 7.97675 91.8117C8.45428 92.3008 9.02185 92.6895 9.64736 92.9549C10.2729 93.2204 10.9438 93.3571 11.6216 93.3571H18.1297H18.4163L18.5612 93.1098L24.8086 82.4437C25.0983 82.1313 25.3877 81.7559 25.6671 81.3817C25.7495 81.2712 25.831 81.1611 25.9118 81.0518C26.1235 80.7654 26.3307 80.4852 26.5399 80.2215C26.8291 79.8569 27.0984 79.5549 27.3493 79.347C27.6083 79.1324 27.784 79.0714 27.8919 79.0714C28.3033 79.0714 28.5979 79.1563 28.8146 79.2834C29.0298 79.4096 29.1997 79.5958 29.3338 79.8504C29.6079 80.3709 29.7119 81.1366 29.7161 82.0833L27.4062 91.5481L27.3917 91.6073L27.3919 91.6682C27.393 92.0453 27.3706 92.4221 27.3247 92.7963L27.2559 93.3571H27.821H58.179H58.744L58.6753 92.7963C58.6295 92.4221 58.607 92.0453 58.6081 91.6681L58.6083 91.6072L58.5939 91.5481L56.2839 82.0833C56.2881 81.1366 56.3921 80.3709 56.6662 79.8504C56.8003 79.5958 56.9702 79.4096 57.1854 79.2834C57.4021 79.1563 57.6967 79.0714 58.1081 79.0714C58.2144 79.0714 58.3918 79.1332 58.6551 79.3522C58.9093 79.5636 59.1823 79.8698 59.4737 80.2368C59.6876 80.5061 59.899 80.7921 60.1137 81.0826C60.1913 81.1875 60.2693 81.2931 60.348 81.3986C60.6248 81.7698 60.9099 82.1404 61.1915 82.4439L67.4388 93.1098L67.5837 93.3571H67.8703H74.3784C75.7478 93.3571 77.0587 92.7998 78.0232 91.8117C78.9874 90.824 79.527 89.4869 79.527 88.0952V84.5238ZM76.7027 99.5H9.2973C6.96805 99.5 4.73169 98.5523 3.0809 96.8613C1.42971 95.1698 0.5 92.8733 0.5 90.4762V9.52381C0.5 7.12671 1.42971 4.83015 3.0809 3.13873C4.73169 1.44772 6.96805 0.5 9.2973 0.5H76.7027C79.032 0.5 81.2683 1.44772 82.9191 3.13873C84.5703 4.83015 85.5 7.12671 85.5 9.52381V90.4762C85.5 92.8733 84.5703 95.1698 82.9191 96.8613C81.2683 98.5523 79.032 99.5 76.7027 99.5Z" fill="white" stroke="#3837F1"/>
<g filter="url(#filter0_d_1_1516)">
<path d="M42.014 57.824C42.2021 56.7132 43.7979 56.7132 43.986 57.824L45.7605 68.3057C45.8306 68.7199 46.1521 69.0461 46.5653 69.1222L54.6601 70.613C55.7519 70.8141 55.7519 72.3789 54.6601 72.58L46.5708 74.0698C46.1549 74.1464 45.8322 74.4762 45.7647 74.8937L43.9872 85.8919C43.8061 87.0125 42.1939 87.0125 42.0128 85.8919L40.2353 74.8937C40.1678 74.4762 39.8451 74.1464 39.4292 74.0698L31.3399 72.58C30.2481 72.3789 30.2481 70.8141 31.3399 70.613L39.4347 69.1222C39.8479 69.0461 40.1694 68.7199 40.2395 68.3057L42.014 57.824Z" fill="#A7F46A"/>
</g>
<circle cx="43" cy="37" r="15" stroke="#A7F46A" stroke-width="6"/>
<defs>
<filter id="filter0_d_1_1516" x="3.52106" y="30.991" width="78.9579" height="83.7415" filterUnits="userSpaceOnUse" color-interpolation-filters="sRGB">
<feFlood flood-opacity="0" result="BackgroundImageFix"/>
<feColorMatrix in="SourceAlpha" type="matrix" values="0 0 0 0 0 0 0 0 0 0 0 0 0 0 0 0 0 0 127 0" result="hardAlpha"/>
<feOffset dy="1"/>
<feGaussianBlur stdDeviation="13.5"/>
<feComposite in2="hardAlpha" operator="out"/>
<feColorMatrix type="matrix" values="0 0 0 0 1 0 0 0 0 1 0 0 0 0 1 0 0 0 0.55 0"/>
<feBlend mode="normal" in2="BackgroundImageFix" result="effect1_dropShadow_1_1516"/>
<feBlend mode="normal" in="SourceGraphic" in2="effect1_dropShadow_1_1516" result="shape"/>
</filter>
</defs>
</svg>
