<svg width="77" height="85" viewBox="0 0 77 85" fill="none" xmlns="http://www.w3.org/2000/svg">
<path d="M38.612 84.3002C37.3795 84.3002 36.1469 83.9983 35.0329 83.3712L3.93495 66.0926C1.68319 64.8385 0.261032 62.4697 0.261032 59.9383L0.000301638 24.8933C-0.0234011 22.3619 1.35136 19.9931 3.57941 18.7158L34.4167 0.972682C36.6447 -0.304634 39.4179 -0.327858 41.6697 0.926234L73.2654 18.3442C75.3986 19.5286 76.726 21.7581 76.726 24.1502V59.706C76.726 62.0516 75.4461 64.2579 73.3602 65.4656L42.2622 83.348C41.1482 83.975 39.892 84.3002 38.612 84.3002ZM38.0906 5.57102C37.8061 5.57102 37.5454 5.64069 37.3084 5.78004L6.44744 23.5231C5.97339 23.8018 5.66525 24.3127 5.66525 24.8701L5.94968 59.915C5.94968 60.4724 6.25782 60.9601 6.75558 61.2388L37.8535 78.5406C38.3513 78.8193 38.9439 78.7961 39.4179 78.5406L70.5159 60.6582C70.8477 60.4724 71.0611 60.1008 71.0611 59.706V24.1502C71.0611 23.7554 70.8477 23.3838 70.4922 23.198L38.8965 5.78004C38.6357 5.64069 38.375 5.57102 38.0906 5.57102Z" fill="white"/>
<path fill-rule="evenodd" clip-rule="evenodd" d="M35.2805 43.261L11.0696 30.3278C9.69485 29.5846 9.17339 27.8893 9.93188 26.5423C10.6904 25.1953 12.4207 24.6844 13.7954 25.4276L38.1144 38.433L62.2438 25.265C63.6185 24.5218 65.3488 25.0095 66.1073 26.3565C66.8658 27.7035 66.368 29.3989 64.9933 30.142L40.9694 43.2458L41.1483 70.9456C41.1483 72.5016 39.892 73.7557 38.304 73.7557C36.7396 73.7557 35.4596 72.5248 35.4596 70.9921L35.2805 43.261Z" fill="#A3EE6F"/>
</svg>
