<svg id="Layer_1" data-name="Layer 1" xmlns="http://www.w3.org/2000/svg" viewBox="0 0 32 32"><defs></defs><circle class="cls-1" cx="16" cy="16" r="16"/><path class="cls-2" d="M11.6,14.73c-.15,2.34.38,3.61-.53,3.61s-.37-1.26-.52-3.61c-.33-.05-1.34.23-1.34-.51a.51.51,0,0,1,.51-.51c1.92.14,3.22-.36,3.22.51S12,14.67,11.6,14.73Z"/><path class="cls-2" d="M14.89,14.23a.74.74,0,0,0-1.41,0c-.74,2.32-1.74,3.75-1.13,4,.82.37.84-.47,1-.84H15c.19.37.21,1.21,1,.84C16.64,18,15.65,16.59,14.89,14.23ZM13.66,16.5,14.19,15l.52,1.48Z"/><path class="cls-2" d="M19.18,17.78c0,.77-1.19.38-2.19.48s-.34-1.19-.5-4a.54.54,0,0,1,1.07,0V17.3C18.07,17.37,19.18,17.05,19.18,17.78Z"/><path class="cls-2" d="M22.7,17.48a.53.53,0,0,1-.84.63l-1.24-1.62-.18.18v1.14a.52.52,0,0,1-.53.52c-.91,0-.36-1.32-.52-4.1a.52.52,0,0,1,.52-.52c.8,0,.46,1.12.53,1.65,1.49-1.43,1.45-1.58,1.76-1.58a.5.5,0,0,1,.4.81l-1.2,1.19Z"/><path class="cls-2" d="M16,0A16,16,0,1,0,32,16,16,16,0,0,0,16,0Zm.12,23a12.12,12.12,0,0,1-1.62-.11c-5.25,3.67-4.51,3.39-3.23-1C8.7,20.63,7,18.4,7,15.85,7,11.9,11.08,8.7,16.12,8.7s9.11,3.2,9.11,7.15S21.15,23,16.12,23Z"/></svg>