<svg width="60" height="60" viewBox="0 0 60 60" fill="none" xmlns="http://www.w3.org/2000/svg">
<circle cx="30" cy="30" r="30" fill="#A7F46A"/>
<circle cx="30" cy="25.3333" r="3.33333" stroke="black" stroke-linejoin="round"/>
<circle cx="39.3333" cy="28.6667" r="2.66667" stroke="black" stroke-linejoin="round"/>
<circle cx="20.6667" cy="28.6667" r="2.66667" stroke="black" stroke-linejoin="round"/>
<path d="M32.3333 28.667H27.6667C26.0098 28.667 24.6667 30.0101 24.6667 31.667V37.0003C24.6667 37.5526 25.1144 38.0003 25.6667 38.0003H34.3333C34.8856 38.0003 35.3333 37.5526 35.3333 37.0003V31.667C35.3333 30.0101 33.9902 28.667 32.3333 28.667Z" stroke="black"/>
<path d="M40.3333 31.333H38.3333C36.6765 31.333 35.3333 32.6762 35.3333 34.333V36.9997C35.3333 37.552 35.781 37.9997 36.3333 37.9997H42.3333C42.8856 37.9997 43.3333 37.552 43.3333 36.9997V34.333C43.3333 32.6762 41.9902 31.333 40.3333 31.333Z" stroke="black"/>
<path d="M21.6667 31.333H19.6667C18.0098 31.333 16.6667 32.6762 16.6667 34.333V36.9997C16.6667 37.552 17.1144 37.9997 17.6667 37.9997H23.6667C24.2189 37.9997 24.6667 37.552 24.6667 36.9997V34.333C24.6667 32.6762 23.3235 31.333 21.6667 31.333Z" stroke="black"/>
</svg>
