<svg width="208" height="43" viewBox="0 0 208 43" fill="none" xmlns="http://www.w3.org/2000/svg">
<g clip-path="url(#clip0_2283_954)">
<path d="M37.0085 13.1364C36.1168 12.5909 34.9575 12.5909 33.9766 13.1364L27.0207 17.3181L22.2944 20.0454L15.3386 24.2273C14.4469 24.7727 13.2876 24.7727 12.3066 24.2273L6.77765 20.9546C5.88589 20.4091 5.26164 19.4091 5.26164 18.3181V11.8636C5.26164 10.7727 5.7967 9.77273 6.77765 9.22728L12.2174 6.04545C13.1092 5.5 14.2684 5.5 15.2495 6.04545L20.6892 9.22728C21.581 9.77273 22.2052 10.7727 22.2052 11.8636V16.0455L26.9316 13.2273V9.04545C26.9316 7.95454 26.3966 6.95455 25.4156 6.4091L15.3386 0.409091C14.4469 -0.136364 13.2876 -0.136364 12.3066 0.409091L2.05129 6.4091C1.07034 6.95455 0.535278 7.95454 0.535278 9.04545V21.1364C0.535278 22.2272 1.07034 23.2273 2.05129 23.7727L12.3066 29.7727C13.1984 30.3182 14.3577 30.3182 15.3386 29.7727L22.2944 25.6818L27.0207 22.8636L33.9766 18.7727C34.8683 18.2273 36.0277 18.2273 37.0085 18.7727L42.4483 21.9546C43.3402 22.5 43.9644 23.5 43.9644 24.5909V31.0455C43.9644 32.1363 43.4293 33.1363 42.4483 33.6818L37.0085 36.9546C36.1168 37.5 34.9575 37.5 33.9766 36.9546L28.5368 33.7727C27.645 33.2273 27.0207 32.2273 27.0207 31.1363V26.9546L22.2944 29.7727V33.9545C22.2944 35.0454 22.8294 36.0454 23.8105 36.5909L34.0658 42.591C34.9575 43.1364 36.1168 43.1364 37.0977 42.591L47.3531 36.5909C48.2449 36.0454 48.8691 35.0454 48.8691 33.9545V21.8636C48.8691 20.7728 48.334 19.7727 47.3531 19.2273L37.0085 13.1364Z" fill="#7950DD"/>
<path d="M67.6981 39.1333V29.0955C68.7856 30.4661 70.7591 31.232 73.0551 31.232C78.8953 31.232 82.8427 27.0798 82.8427 20.7508C82.8427 14.4217 79.2176 10.2695 73.5384 10.2695C70.9203 10.2695 68.9064 11.237 67.6981 12.8092V10.592H62.0994V39.1333H67.6981ZM72.3704 26.3945C69.3495 26.3945 67.3758 24.137 67.3758 20.7508C67.3758 17.3242 69.3495 15.0667 72.3704 15.0667C75.3106 15.0667 77.3246 17.3242 77.3246 20.7508C77.3246 24.137 75.3106 26.3945 72.3704 26.3945Z" fill="black"/>
<path d="M95.5557 31.232C101.799 31.232 106.27 26.7977 106.27 20.7508C106.27 14.7039 101.799 10.2695 95.5557 10.2695C89.3127 10.2695 84.8418 14.7039 84.8418 20.7508C84.8418 26.7977 89.3127 31.232 95.5557 31.232ZM95.5557 26.3945C92.5349 26.3945 90.4807 24.0967 90.4807 20.7508C90.4807 17.3645 92.5349 15.0667 95.5557 15.0667C98.5767 15.0667 100.631 17.3645 100.631 20.7508C100.631 24.0967 98.5767 26.3945 95.5557 26.3945Z" fill="black"/>
<path d="M115.253 30.9096V1.76367H109.654V30.9096H115.253Z" fill="black"/>
<path d="M132.083 10.5918L127.854 23.6934L123.584 10.5918H117.865L125.235 30.748L122.255 39.133H127.612L130.472 30.8287L137.843 10.5918H132.083Z" fill="black"/>
<path d="M153.566 12.6077C152.438 11.1967 150.425 10.2695 147.968 10.2695C142.046 10.2695 138.462 14.4217 138.462 20.7508C138.462 27.0798 142.046 31.232 148.048 31.232C150.425 31.232 152.559 30.3452 153.607 28.8536V31.5142C153.607 33.4089 152.358 34.7392 150.666 34.7392H141.321V39.1333H151.552C156.144 39.1333 159.206 36.3517 159.206 32.1189V10.592H153.566V12.6077ZM148.934 26.3945C145.953 26.3945 143.98 24.1773 143.98 20.7508C143.98 17.3242 145.953 15.0667 148.934 15.0667C151.955 15.0667 153.929 17.3242 153.929 20.7508C153.929 24.1773 151.955 26.3945 148.934 26.3945Z" fill="black"/>
<path d="M173.319 31.232C179.563 31.232 184.033 26.7977 184.033 20.7508C184.033 14.7039 179.563 10.2695 173.319 10.2695C167.077 10.2695 162.605 14.7039 162.605 20.7508C162.605 26.7977 167.077 31.232 173.319 31.232ZM173.319 26.3945C170.298 26.3945 168.245 24.0967 168.245 20.7508C168.245 17.3645 170.298 15.0667 173.319 15.0667C176.341 15.0667 178.394 17.3645 178.394 20.7508C178.394 24.0967 176.341 26.3945 173.319 26.3945Z" fill="black"/>
<path d="M192.735 30.9095V19.7833C192.735 17.163 194.467 15.2683 196.924 15.2683C199.259 15.2683 200.83 17.042 200.83 19.5011V30.9095H206.469V18.2514C206.469 13.5752 203.489 10.2695 198.897 10.2695C196.118 10.2695 193.862 11.4386 192.735 13.4139V10.592H187.096V30.9095H192.735Z" fill="black"/>
</g>
<defs>
<clipPath id="clip0_2283_954">
<rect width="207" height="43" fill="white" transform="translate(0.535278)"/>
</clipPath>
</defs>
</svg>
