<svg id="Layer_1" data-name="Layer 1" xmlns="http://www.w3.org/2000/svg" viewBox="0 0 32 32"><defs></defs><circle class="cls-1" cx="16" cy="16" r="16"/><path class="cls-2" d="M16,0A16,16,0,1,0,32,16,16,16,0,0,0,16,0Zm7.81,10.07-1.25,1.19a.36.36,0,0,0-.13.35v8.77a.34.34,0,0,0,.14.35l1.21,1.2v.26H17.65v-.27l1.27-1.22c.12-.12.12-.16.12-.35V13.27l-3.51,8.89h-.48L11,13.27v6a.78.78,0,0,0,.22.68l1.64,2v.26H8.18V21.9l1.64-2a.77.77,0,0,0,.21-.68V12.34a.57.57,0,0,0-.2-.51L8.38,10.07V9.81h4.53l3.5,7.67,3.08-7.67h4.32Z"/></svg>