<svg width="54" height="13" viewBox="0 0 54 13" fill="none" xmlns="http://www.w3.org/2000/svg">
<path fill-rule="evenodd" clip-rule="evenodd" d="M12.7895 6.39474C12.7895 9.92645 9.92645 12.7895 6.39474 12.7895C2.86302 12.7895 0 9.92645 0 6.39474C0 2.86302 2.86302 0 6.39474 0C9.92645 0 12.7895 2.86302 12.7895 6.39474ZM33.3947 6.39474C33.3947 9.92645 30.5317 12.7895 27 12.7895C23.4683 12.7895 20.6053 9.92645 20.6053 6.39474C20.6053 2.86302 23.4683 0 27 0C30.5317 0 33.3947 2.86302 33.3947 6.39474ZM47.6053 12.7895C51.137 12.7895 54 9.92645 54 6.39474C54 2.86302 51.137 0 47.6053 0C44.0735 0 41.2105 2.86302 41.2105 6.39474C41.2105 9.92645 44.0735 12.7895 47.6053 12.7895Z" fill="white"/>
</svg>
