<svg width="71" height="71" viewBox="0 0 71 71" fill="none" xmlns="http://www.w3.org/2000/svg">
<path d="M39.618 48.0035C39.618 47.5969 39.7002 47.1942 39.8599 46.8184C40.0196 46.4427 40.2537 46.1013 40.5488 45.8138C40.8438 45.5262 41.1941 45.2981 41.5797 45.1425C41.9652 44.9868 42.3784 44.9067 42.7957 44.9067H67.5133C67.9306 44.9067 68.3438 44.9868 68.7294 45.1425C69.1149 45.2981 69.4652 45.5262 69.7603 45.8138C70.0554 46.1013 70.2894 46.4427 70.4491 46.8184C70.6088 47.1942 70.691 47.5969 70.691 48.0035V66.9273C70.691 67.334 70.6088 67.7367 70.4491 68.1124C70.2894 68.4881 70.0554 68.8295 69.7603 69.1171C69.4652 69.4047 69.1149 69.6328 68.7294 69.7884C68.3438 69.944 67.9306 70.0241 67.5133 70.0241H42.7957C42.3784 70.0241 41.9652 69.944 41.5797 69.7884C41.1941 69.6328 40.8438 69.4047 40.5488 69.1171C40.2537 68.8295 40.0196 68.4881 39.8599 68.1124C39.7002 67.7367 39.618 67.334 39.618 66.9273V48.0035ZM45.9734 51.1003V63.8305H64.3356V51.1003H45.9734Z" fill="#A3EE6F"/>
<path d="M0 3.11351C-1.5048e-08 2.70464 0.0821986 2.29977 0.241904 1.92202C0.401609 1.54427 0.635694 1.20104 0.930791 0.911926C1.22589 0.62281 1.57622 0.393469 1.96178 0.237001C2.34734 0.0805326 2.76059 -1.4743e-08 3.17792 0H27.8972C28.3146 -1.4743e-08 28.7278 0.0805326 29.1134 0.237001C29.4989 0.393469 29.8492 0.62281 30.1443 0.911926C30.4394 1.20104 30.6735 1.54427 30.8332 1.92202C30.9929 2.29977 31.0751 2.70464 31.0751 3.11351V22.1394C31.0751 22.5483 30.9929 22.9532 30.8332 23.3309C30.6735 23.7087 30.4394 24.0519 30.1443 24.341C29.8492 24.6301 29.4989 24.8595 29.1134 25.0159C28.7278 25.1724 28.3146 25.2529 27.8972 25.2529H3.17792C2.76059 25.2529 2.34734 25.1724 1.96178 25.0159C1.57622 24.8595 1.22589 24.6301 0.930791 24.341C0.635694 24.0519 0.401609 23.7087 0.241904 23.3309C0.0821986 22.9532 0 22.5483 0 22.1394V3.11351ZM6.35583 6.22701V19.0259H24.7193V6.22701H6.35583ZM39.6159 3.11351C39.6159 2.70464 39.6981 2.29977 39.8578 1.92202C40.0175 1.54427 40.2515 1.20104 40.5466 0.911926C40.8417 0.62281 41.1921 0.393469 41.5776 0.237001C41.9632 0.0805326 42.3764 -1.4743e-08 42.7938 0H67.5131C67.9304 -1.4743e-08 68.3436 0.0805326 68.7292 0.237001C69.1148 0.393469 69.4651 0.62281 69.7602 0.911926C70.0553 1.20104 70.2894 1.54427 70.4491 1.92202C70.6088 2.29977 70.691 2.70464 70.691 3.11351V32.5194C70.691 32.9283 70.6088 33.3331 70.4491 33.7109C70.2894 34.0886 70.0553 34.4319 69.7602 34.721C69.4651 35.0101 69.1148 35.2394 68.7292 35.3959C68.3436 35.5524 67.9304 35.6329 67.5131 35.6329H42.7938C42.3764 35.6329 41.9632 35.5524 41.5776 35.3959C41.1921 35.2394 40.8417 35.0101 40.5466 34.721C40.2515 34.4319 40.0175 34.0886 39.8578 33.7109C39.6981 33.3331 39.6159 32.9283 39.6159 32.5194V3.11351ZM45.9717 6.22701V29.4059H64.3352V6.22701H45.9717ZM3.17792 34.3865C2.76059 34.3865 2.34734 34.4671 1.96178 34.6235C1.57622 34.78 1.22589 35.0093 0.930791 35.2985C0.635694 35.5876 0.401609 35.9308 0.241904 36.3086C0.0821986 36.6863 -1.5048e-08 37.0912 0 37.5V66.9107C0 68.6255 1.42273 70.0242 3.17792 70.0242H27.8972C28.3146 70.0242 28.7278 69.9437 29.1134 69.7872C29.4989 69.6307 29.8492 69.4014 30.1443 69.1123C30.4394 68.8232 30.6735 68.4799 30.8332 68.1022C30.9929 67.7244 31.0751 67.3196 31.0751 66.9107V37.5C31.0751 37.0912 30.9929 36.6863 30.8332 36.3086C30.6735 35.9308 30.4394 35.5876 30.1443 35.2985C29.8492 35.0093 29.4989 34.78 29.1134 34.6235C28.7278 34.4671 28.3146 34.3865 27.8972 34.3865H3.17792ZM6.35583 63.7972V40.6135H24.7193V63.7972H6.35583Z" fill="white"/>
</svg>
