<svg width="126" height="48" viewBox="0 0 126 48" fill="none" xmlns="http://www.w3.org/2000/svg">
<g clip-path="url(#clip0_2283_913)">
<path d="M52.0638 37.1268C50.7924 37.1268 49.6993 36.6555 48.7848 35.7133C47.8703 34.7711 47.413 33.6448 47.413 32.3347V30.4386H51.8296V31.335C51.8296 31.9786 51.8631 32.3461 51.93 32.4382C52.0193 32.5071 52.376 32.5416 53.0007 32.5416H65.8826C66.5072 32.5416 66.8529 32.5071 66.9198 32.4382C67.0091 32.3461 67.0536 31.9786 67.0536 31.335V28.1977C67.0536 27.5541 67.0091 27.1979 66.9198 27.129C66.8529 27.037 66.5072 26.9911 65.8826 26.9911H52.0638C50.7924 26.9911 49.6993 26.5198 48.7848 25.5776C47.8703 24.6353 47.413 23.5091 47.413 22.199V17.0967C47.413 15.7867 47.8703 14.6605 48.7848 13.7182C49.6993 12.7759 50.7924 12.3047 52.0638 12.3047H66.8529C68.1244 12.3047 69.2174 12.7759 70.1319 13.7182C71.0464 14.6605 71.5037 15.7867 71.5037 17.0967V18.9929H67.0536V18.0965C67.0536 17.453 67.0091 17.0967 66.9198 17.0278C66.8529 16.9358 66.5072 16.8899 65.8826 16.8899H53.0007C52.376 16.8899 52.0193 16.9358 51.93 17.0278C51.8631 17.0967 51.8296 17.453 51.8296 18.0965V21.2337C51.8296 21.8773 51.8631 22.2335 51.93 22.3025C52.0193 22.3714 52.376 22.4059 53.0007 22.4059H66.8529C68.1244 22.4059 69.2174 22.8886 70.1319 23.8539C71.0464 24.7962 71.5037 25.9224 71.5037 27.2324V32.3347C71.5037 33.6448 71.0464 34.7711 70.1319 35.7133C69.2174 36.6555 68.1244 37.1268 66.8529 37.1268H52.0638ZM83.789 37.1268V16.8899H73.952V12.3047H98.0427V16.8899H88.2391V37.1268H83.789ZM100.545 37.1268V12.3392H119.952C121.246 12.3392 122.35 12.8103 123.264 13.7526C124.179 14.695 124.636 15.8212 124.636 17.1312V23.8194C124.636 25.1294 124.179 26.2556 123.264 27.1979C122.35 28.1402 121.246 28.6114 119.952 28.6114L104.962 28.6459V37.1268H100.545ZM106.133 24.0262H119.015C119.617 24.0262 119.963 23.9918 120.052 23.9228C120.141 23.8309 120.186 23.4746 120.186 22.8541V18.0965C120.186 17.453 120.141 17.0967 120.052 17.0278C119.963 16.9358 119.617 16.8899 119.015 16.8899H106.133C105.508 16.8899 105.152 16.9358 105.062 17.0278C104.995 17.0967 104.962 17.453 104.962 18.0965V22.8541C104.962 23.4746 104.995 23.8309 105.062 23.9228C105.152 23.9918 105.508 24.0262 106.133 24.0262Z" fill="white"/>
<path d="M37.6607 0H19.1293L0.340515 24H18.8719L37.6607 0Z" fill="#25AAE1"/>
<path d="M37.4034 23.8672H18.8721L0.083313 47.8672H18.6147L37.4034 23.8672Z" fill="white"/>
</g>
<defs>
<clipPath id="clip0_2283_913">
<rect width="125.087" height="48" fill="white" transform="translate(0.083313)"/>
</clipPath>
</defs>
</svg>
