<svg id="Layer_1" data-name="Layer 1" xmlns="http://www.w3.org/2000/svg" viewBox="0 0 32 32"><defs></defs><circle class="cls-1" cx="16" cy="16" r="16"/><path class="cls-2" d="M16,0A16,16,0,1,0,32,16,16,16,0,0,0,16,0Zm6.73,12.82c0,.14,0,.27,0,.42a9.11,9.11,0,0,1-14,7.66,5,5,0,0,0,.77.05,6.39,6.39,0,0,0,4-1.37,3.22,3.22,0,0,1-3-2.23,2.4,2.4,0,0,0,.6.06,2.84,2.84,0,0,0,.84-.11,3.2,3.2,0,0,1-2.56-3.14v0a3.22,3.22,0,0,0,1.44.39,3.21,3.21,0,0,1-1.42-2.66,3.3,3.3,0,0,1,.44-1.62,9,9,0,0,0,6.6,3.35,2.92,2.92,0,0,1-.08-.73,3.2,3.2,0,0,1,3.2-3.2,3.24,3.24,0,0,1,2.34,1,6.32,6.32,0,0,0,2-.77,3.23,3.23,0,0,1-1.41,1.77,6.79,6.79,0,0,0,1.84-.51A6.32,6.32,0,0,1,22.73,12.82Z"/></svg>