<svg width="18" height="18" viewBox="0 0 18 18" fill="none" xmlns="http://www.w3.org/2000/svg">
<path d="M9.00002 14.9998C6.91669 14.9998 5.07502 13.9332 4.00002 12.3332C4.02502 10.6665 7.33335 9.74984 9.00002 9.74984C10.6667 9.74984 13.975 10.6665 14 12.3332C13.4491 13.1535 12.7049 13.8258 11.833 14.2908C10.9611 14.7558 9.98819 14.9993 9.00002 14.9998ZM9.00002 3.1665C9.66306 3.1665 10.2989 3.4299 10.7678 3.89874C11.2366 4.36758 11.5 5.00346 11.5 5.6665C11.5 6.32955 11.2366 6.96543 10.7678 7.43427C10.2989 7.90311 9.66306 8.1665 9.00002 8.1665C8.33698 8.1665 7.70109 7.90311 7.23225 7.43427C6.76341 6.96543 6.50002 6.32955 6.50002 5.6665C6.50002 5.00346 6.76341 4.36758 7.23225 3.89874C7.70109 3.4299 8.33698 3.1665 9.00002 3.1665ZM9.00002 0.666504C7.90567 0.666504 6.82204 0.882052 5.81099 1.30084C4.79994 1.71963 3.88129 2.33346 3.10746 3.10728C1.54466 4.67008 0.666687 6.7897 0.666687 8.99984C0.666687 11.21 1.54466 13.3296 3.10746 14.8924C3.88129 15.6662 4.79994 16.28 5.81099 16.6988C6.82204 17.1176 7.90567 17.3332 9.00002 17.3332C11.2102 17.3332 13.3298 16.4552 14.8926 14.8924C16.4554 13.3296 17.3334 11.21 17.3334 8.99984C17.3334 4.3915 13.5834 0.666504 9.00002 0.666504Z" fill="#1B1AFF"/>
</svg>
