<svg id="Layer_1" data-name="Layer 1" xmlns="http://www.w3.org/2000/svg" viewBox="0 0 32 32"><defs></defs><circle class="cls-1" cx="16" cy="16" r="16"/><path class="cls-2" d="M12.18,13.34a.92.92,0,0,1-1.46.51.93.93,0,1,1,1.46-.51Z"/><path class="cls-2" d="M16.75,13.14h0a.92.92,0,1,1-1.24-.9A.93.93,0,0,1,16.75,13.15Z"/><path class="cls-2" d="M17.58,17a.74.74,0,1,0,1,1A.75.75,0,0,0,17.58,17Zm3.82,0a.85.85,0,0,0-.7.72,1.2,1.2,0,0,0,.26.56A.76.76,0,0,0,22.15,18h0A.76.76,0,0,0,21.4,17Zm0,0a.85.85,0,0,0-.7.72,1.2,1.2,0,0,0,.26.56A.76.76,0,0,0,22.15,18h0A.76.76,0,0,0,21.4,17Zm-3.82,0a.74.74,0,1,0,1,1A.75.75,0,0,0,17.58,17ZM16,0A16,16,0,1,0,32,16,16,16,0,0,0,16,0ZM11.12,20.33,8.91,21.51c.21-.65.42-1.29.65-1.94A5.65,5.65,0,0,1,7.1,16.23c-.94-3.6,2.54-6.78,6.5-6.78a7.31,7.31,0,0,1,3.63,1h0a5.72,5.72,0,0,1,2.89,3.77c-4.4-.31-7.37,3.21-6.21,6.54A8.27,8.27,0,0,1,11.12,20.33ZM22.91,23q.29.78.51,1.59c-.61-.3-1.18-.7-1.81-.94-6.81,2-10.45-5.58-5-8.4,3-1.54,6.87-.41,8.09,2.36C25.49,19.32,25,21.45,22.91,23ZM21.4,17a.85.85,0,0,0-.7.72,1.2,1.2,0,0,0,.26.56A.76.76,0,0,0,22.15,18h0A.76.76,0,0,0,21.4,17Zm-3.82,0a.74.74,0,1,0,1,1A.75.75,0,0,0,17.58,17Zm0,0a.74.74,0,1,0,1,1A.75.75,0,0,0,17.58,17Zm3.82,0a.85.85,0,0,0-.7.72,1.2,1.2,0,0,0,.26.56A.76.76,0,0,0,22.15,18h0A.76.76,0,0,0,21.4,17Zm0,0a.85.85,0,0,0-.7.72,1.2,1.2,0,0,0,.26.56A.76.76,0,0,0,22.15,18h0A.76.76,0,0,0,21.4,17Zm-3.82,0a.74.74,0,1,0,1,1A.75.75,0,0,0,17.58,17Z"/></svg>