<svg id="Layer_1" data-name="Layer 1" xmlns="http://www.w3.org/2000/svg" viewBox="0 0 32 32"><defs></defs><circle class="cls-1" cx="16" cy="16" r="16"/><path class="cls-2" d="M13,20.49c-1.38.32-1.62-1.42-.37-1.7C14.14,18.45,14,20.26,13,20.49Z"/><path class="cls-2" d="M14.71,18.53a.4.4,0,0,1-.74.21C14,18.21,14.65,18.16,14.71,18.53Z"/><path class="cls-2" d="M10.55,16.1c-3.72,2.15-2.15,6,2.42,6.31a7.76,7.76,0,0,0,6-2,3.1,3.1,0,0,0,.84-2C19.8,15,13.82,14.21,10.55,16.1Zm.32,4.08c-.71-1.91,1-3.43,2.79-3.62a2.73,2.73,0,0,1,3,1.61C17.78,21.5,11.94,23.05,10.87,20.18Zm-.32-4.08c-3.72,2.15-2.15,6,2.42,6.31a7.76,7.76,0,0,0,6-2,3.1,3.1,0,0,0,.84-2C19.8,15,13.82,14.21,10.55,16.1Zm.32,4.08c-.71-1.91,1-3.43,2.79-3.62a2.73,2.73,0,0,1,3,1.61C17.78,21.5,11.94,23.05,10.87,20.18ZM16,0A16,16,0,1,0,32,16,16,16,0,0,0,16,0Zm7,18.63c-.48,3.87-8.67,6.46-13.78,3.62-1.4-.78-2.85-1.92-2.63-4.19.19-1.95,1.53-3.47,2.84-4.76a9.21,9.21,0,0,1,4.37-2.63c1.94-.49,2.52,1.11,2,2.69,1.13-.08,3.52-1.32,4.58-.11a2.31,2.31,0,0,1,0,2.23C21.7,16.18,23.28,16.53,23,18.63ZM21.7,13.3a1.37,1.37,0,0,0-.68-1c-.6-.28-1.52.2-1.52-.62,0-.61.53-.55.84-.57,2.79-.21,3,3.34,1.89,3.41C21.46,14.54,21.75,14,21.7,13.3Zm2.9,2c-1.13.1-.54-1.12-.53-1.86a3.63,3.63,0,0,0-3.63-3.62c-.51,0-1.71.34-1.52-.73.08-.47.48-.46.89-.51A4.77,4.77,0,0,1,25.39,13C25.47,14,25.29,15.26,24.6,15.32Zm-14,.78c-3.72,2.15-2.15,6,2.42,6.31a7.76,7.76,0,0,0,6-2,3.1,3.1,0,0,0,.84-2C19.8,15,13.82,14.21,10.55,16.1Zm.32,4.08c-.71-1.91,1-3.43,2.79-3.62a2.73,2.73,0,0,1,3,1.61C17.78,21.5,11.94,23.05,10.87,20.18Zm-.32-4.08c-3.72,2.15-2.15,6,2.42,6.31a7.76,7.76,0,0,0,6-2,3.1,3.1,0,0,0,.84-2C19.8,15,13.82,14.21,10.55,16.1Zm.32,4.08c-.71-1.91,1-3.43,2.79-3.62a2.73,2.73,0,0,1,3,1.61C17.78,21.5,11.94,23.05,10.87,20.18Zm-.32-4.08c-3.72,2.15-2.15,6,2.42,6.31a7.76,7.76,0,0,0,6-2,3.1,3.1,0,0,0,.84-2C19.8,15,13.82,14.21,10.55,16.1Zm.32,4.08c-.71-1.91,1-3.43,2.79-3.62a2.73,2.73,0,0,1,3,1.61C17.78,21.5,11.94,23.05,10.87,20.18Z"/></svg>