<svg width="101" height="100" viewBox="0 0 101 100" fill="none" xmlns="http://www.w3.org/2000/svg">
<path d="M50.4121 99.9219C78.2506 99.9219 100.818 77.5538 100.818 49.9611C100.818 22.3683 78.2506 0 50.4121 0C22.5734 0 0.00579834 22.3683 0.00579834 49.9611C0.00579834 77.5538 22.5734 99.9219 50.4121 99.9219Z" fill="#F06040"/>
<path d="M79.8147 9.38436C71.7178 3.61933 62.0781 0.36354 52.1142 0.0287017C42.1506 -0.306137 32.3105 2.29501 23.8384 7.50321C15.3662 12.7114 8.64249 20.2928 4.51742 29.2886C0.392361 38.2842 -0.948737 48.2904 0.663711 58.0416C2.27616 67.7928 6.76973 76.8511 13.5762 84.0711C20.3827 91.2911 29.1963 96.3483 38.9027 98.6034C48.609 100.859 58.7719 100.21 68.1065 96.7404C77.4411 93.2706 85.5279 87.135 91.3443 79.11C95.2063 73.7812 97.9715 67.7508 99.4824 61.3631C100.993 54.9751 101.219 48.3548 100.149 41.8803C99.0781 35.4058 96.7315 29.2035 93.2424 23.6278C89.7536 18.0521 85.1907 13.2122 79.8147 9.38436Z" fill="#F1603F"/>
<path d="M8.7738 78.1429C8.7738 78.1429 42.0827 67.3274 100.788 48.3523C100.788 48.3523 104.004 79.4266 71.5061 95.6353C71.5061 95.6353 55.4808 103.249 37.8995 98.3649C37.8995 98.3649 20.3928 95.0894 8.7738 78.1429Z" fill="#2B286C"/>
</svg>
