<svg width="21" height="20" viewBox="0 0 21 20" fill="none" xmlns="http://www.w3.org/2000/svg">
<path d="M18.6679 3.333C18.5921 3.3252 18.5158 3.3252 18.4401 3.333H2.88453C2.78483 3.33454 2.6858 3.34949 2.59009 3.37745L10.6179 11.3719L18.6679 3.333Z" fill="white"/>
<path d="M19.49 4.10547L11.4012 12.161C11.193 12.368 10.9114 12.4841 10.6178 12.4841C10.3243 12.4841 10.0427 12.368 9.83449 12.161L1.81782 4.16658C1.79317 4.25716 1.78011 4.35049 1.77893 4.44436V15.5555C1.77893 15.8502 1.89599 16.1328 2.10437 16.3411C2.31274 16.5495 2.59536 16.6666 2.89004 16.6666H18.4456C18.7403 16.6666 19.0229 16.5495 19.2313 16.3411C19.4396 16.1328 19.5567 15.8502 19.5567 15.5555V4.44436C19.5523 4.32861 19.5298 4.21427 19.49 4.10547ZM3.65115 15.5555H2.87893V14.761L6.91782 10.7555L7.70115 11.5388L3.65115 15.5555ZM18.4345 15.5555H17.6567L13.6067 11.5388L14.39 10.7555L18.4289 14.761L18.4345 15.5555Z" fill="white"/>
</svg>
