<svg width="18" height="14" viewBox="0 0 18 14" fill="none" xmlns="http://www.w3.org/2000/svg">
<path d="M2.33919 3.05301C2.3494 2.95156 2.33572 2.84913 2.29926 2.75392C2.26279 2.65871 2.20455 2.57335 2.12918 2.50467L0.572518 0.615508V0.333008H5.40419L9.13918 8.58717L12.4225 0.333008H17.0292V0.615508L15.6984 1.89967C15.642 1.94321 15.5984 2.00125 15.5725 2.06759C15.5465 2.13393 15.539 2.20608 15.5509 2.27634V11.7213C15.539 11.7916 15.5465 11.8637 15.5725 11.9301C15.5984 11.9964 15.642 12.0545 15.6984 12.098L16.9984 13.383V13.6663H10.4617V13.3838L11.8084 12.0672C11.9409 11.9338 11.9409 11.8947 11.9409 11.6913V4.05634L8.19752 13.6347H7.69252L3.33419 4.05634V10.4763C3.29835 10.7455 3.38752 11.018 3.57585 11.213L5.32668 13.353V13.6347H0.362518V13.353L2.11252 11.213C2.20511 11.1164 2.27383 10.9995 2.31319 10.8715C2.35254 10.7436 2.36145 10.6083 2.33919 10.4763V3.05301Z" fill="white"/>
</svg>
