<svg width="23" height="18" viewBox="0 0 23 18" fill="none" xmlns="http://www.w3.org/2000/svg">
<path d="M22.6959 2.17863C21.8777 2.5375 21.006 2.77538 20.0971 2.89088C21.0321 2.33263 21.7457 1.45537 22.0812 0.398C21.2095 0.91775 20.247 1.28488 19.2212 1.48975C18.3935 0.608375 17.2137 0.0625 15.9267 0.0625C13.4297 0.0625 11.4195 2.08925 11.4195 4.57387C11.4195 4.93138 11.4497 5.27513 11.524 5.60238C7.77436 5.4195 4.45649 3.62238 2.22761 0.88475C1.83849 1.55988 1.61024 2.33262 1.61024 3.1645C1.61024 4.7265 2.41461 6.11112 3.61361 6.91275C2.88899 6.899 2.17811 6.68863 1.57586 6.35725C1.57586 6.371 1.57586 6.38888 1.57586 6.40675C1.57586 8.5985 3.13924 10.419 5.18936 10.8384C4.82224 10.9388 4.42211 10.9869 4.00686 10.9869C3.71811 10.9869 3.42661 10.9704 3.15299 10.9099C3.73736 12.696 5.39561 14.0091 7.36736 14.0518C5.83286 15.2521 3.88449 15.9754 1.77524 15.9754C1.40536 15.9754 1.05061 15.9589 0.695862 15.9135C2.69374 17.2019 5.06149 17.9375 7.61486 17.9375C15.9144 17.9375 20.4519 11.0625 20.4519 5.10325C20.4519 4.90387 20.445 4.71137 20.4354 4.52025C21.3305 3.885 22.0826 3.09163 22.6959 2.17863Z" fill="white"/>
</svg>
