<svg width="21" height="20" viewBox="0 0 21 20" fill="none" xmlns="http://www.w3.org/2000/svg">
<path d="M14.1852 7.37109C14.3005 7.37109 14.4157 7.375 14.529 7.38086C14.0524 4.86719 11.4372 2.94531 8.28094 2.94531C4.78876 2.94531 1.95673 5.30078 1.95673 8.20703C1.95673 9.79102 2.80829 11.2187 4.14227 12.1836C4.19729 12.2224 4.24216 12.2739 4.2731 12.3338C4.30403 12.3936 4.32012 12.46 4.32001 12.5273C4.32001 12.5742 4.31024 12.6172 4.29852 12.6621C4.1911 13.0586 4.02118 13.6934 4.01337 13.7227C3.99969 13.7734 3.98016 13.8242 3.98016 13.877C3.98016 13.9922 4.07391 14.0879 4.1911 14.0879C4.23602 14.0879 4.27313 14.0703 4.31219 14.0488L5.69696 13.25C5.80048 13.1895 5.9118 13.1523 6.0329 13.1523C6.0954 13.1523 6.1579 13.1621 6.21844 13.1797C6.86493 13.3652 7.56219 13.4687 8.2829 13.4687C8.40009 13.4687 8.51532 13.4668 8.63055 13.4609C8.49188 13.0508 8.41766 12.6191 8.41766 12.1719C8.41766 9.51953 10.9997 7.37109 14.1852 7.37109ZM10.3903 5.68164C10.8552 5.68164 11.2341 6.05859 11.2341 6.52344C11.2341 6.98828 10.8571 7.36523 10.3903 7.36523C9.92548 7.36523 9.54657 6.98828 9.54657 6.52344C9.54657 6.05859 9.92548 5.68164 10.3903 5.68164ZM6.17352 7.36523C5.70868 7.36523 5.32977 6.98828 5.32977 6.52344C5.32977 6.05859 5.70673 5.68164 6.17352 5.68164C6.64032 5.68164 7.01727 6.05859 7.01727 6.52344C7.01727 6.98828 6.63837 7.36523 6.17352 7.36523ZM17.6345 15.4824C18.7458 14.6777 19.4548 13.4902 19.4548 12.168C19.4548 9.74609 17.0954 7.7832 14.1833 7.7832C11.2731 7.7832 8.9118 9.74609 8.9118 12.168C8.9118 14.5898 11.2712 16.5527 14.1833 16.5527C14.7849 16.5527 15.3669 16.4668 15.904 16.3125C15.9548 16.2969 16.0056 16.2891 16.0583 16.2891C16.1599 16.2891 16.2516 16.3203 16.3376 16.3691L17.4919 17.0332C17.5251 17.0527 17.5563 17.0664 17.5934 17.0664C17.6166 17.0666 17.6396 17.0622 17.661 17.0535C17.6825 17.0448 17.702 17.0319 17.7184 17.0156C17.7347 16.9992 17.7476 16.9796 17.7563 16.9582C17.765 16.9367 17.7694 16.9138 17.7692 16.8906C17.7692 16.8477 17.7516 16.8047 17.7419 16.7617C17.736 16.7383 17.5934 16.209 17.5036 15.877C17.4938 15.8398 17.486 15.8027 17.486 15.7656C17.488 15.6504 17.5466 15.5469 17.6345 15.4824ZM12.4294 11.4688C12.0407 11.4688 11.7263 11.1543 11.7263 10.7676C11.7263 10.3809 12.0407 10.0664 12.4294 10.0664C12.8181 10.0664 13.1325 10.3809 13.1325 10.7676C13.1325 11.1543 12.8161 11.4688 12.4294 11.4688ZM15.9431 11.4688C15.5544 11.4688 15.2399 11.1543 15.2399 10.7676C15.2399 10.3809 15.5544 10.0664 15.9431 10.0664C16.3317 10.0664 16.6462 10.3809 16.6462 10.7676C16.6453 10.9536 16.5708 11.1317 16.4391 11.263C16.3074 11.3944 16.1291 11.4683 15.9431 11.4688Z" fill="white"/>
</svg>
