<?xml version="1.0" standalone="no"?><!DOCTYPE svg PUBLIC "-//W3C//DTD SVG 1.1//EN" "http://www.w3.org/Graphics/SVG/1.1/DTD/svg11.dtd"><svg t="1630651299696" class="icon" viewBox="0 0 1024 1024" version="1.1" xmlns="http://www.w3.org/2000/svg" p-id="2069" xmlns:xlink="http://www.w3.org/1999/xlink" width="200" height="200"><defs><style type="text/css"></style></defs><path d="M938.666667 247.466667a362.24 362.24 0 0 1-100.693334 27.306666 176.213333 176.213333 0 0 0 77.226667-96.853333 350.293333 350.293333 0 0 1-111.36 42.666667 174.933333 174.933333 0 0 0-298.666667 159.573333 496.64 496.64 0 0 1-360.533333-183.04 177.493333 177.493333 0 0 0-23.466667 88.32 174.506667 174.506667 0 0 0 77.653334 145.493333 172.8 172.8 0 0 1-79.36-21.76v2.133334a174.933333 174.933333 0 0 0 140.8 170.666666 167.68 167.68 0 0 1-46.933334 7.253334 209.066667 209.066667 0 0 1-32.853333-2.986667 175.36 175.36 0 0 0 163.413333 121.173333A350.72 350.72 0 0 1 128 782.506667a338.346667 338.346667 0 0 1-42.666667-2.56 493.653333 493.653333 0 0 0 268.373334 78.933333A494.506667 494.506667 0 0 0 853.333333 360.533333v-22.613333a359.68 359.68 0 0 0 85.333334-90.453333z" p-id="2070" fill="#ffffff"></path></svg>