<svg width="49" height="48" viewBox="0 0 49 48" fill="none" xmlns="http://www.w3.org/2000/svg">
<rect x="0.5" width="47.963" height="48" rx="23.9815" fill="#ECFCF1"/>
<path d="M14 15C14 14.4477 14.4477 14 15 14H33C33.5523 14 34 14.4477 34 15V29C34 29.5523 33.5523 30 33 30H15C14.4477 30 14 29.5523 14 29V15Z" stroke="#23262F" stroke-linejoin="round"/>
<path d="M24 30V34" stroke="#23262F" stroke-linejoin="round"/>
<path d="M24 30L17 34" stroke="#23262F" stroke-linejoin="round"/>
<path d="M24 30L31 34" stroke="#23262F" stroke-linejoin="round"/>
<path d="M17 17H21" stroke="#23262F" stroke-linejoin="round"/>
<path d="M17 20H22" stroke="#23262F" stroke-linejoin="round"/>
<rect x="25" y="17" width="6" height="3" stroke="#23262F" stroke-linejoin="round"/>
<rect x="17" y="23" width="5" height="4" stroke="#23262F" stroke-linejoin="round"/>
<path d="M25 27V24" stroke="#23262F" stroke-linejoin="round"/>
<path d="M28 27V25" stroke="#23262F" stroke-linejoin="round"/>
<path d="M31 27V23" stroke="#23262F" stroke-linejoin="round"/>
</svg>
