<svg width="48" height="48" viewBox="0 0 48 48" fill="none" xmlns="http://www.w3.org/2000/svg">
<rect width="47.963" height="48" rx="23.9815" fill="url(#paint0_linear_557_2783)"/>
<path d="M27.8535 19.7812C28.9902 19.7812 29.9531 20.7441 29.9531 21.8809C29.9531 23.0176 28.9902 23.9805 27.8535 23.9805C26.6289 24.0684 25.7539 23.1055 25.7539 21.8809C25.7539 20.7422 26.6289 19.7812 27.8535 19.7812ZM27.8535 23.1914C28.5527 23.1914 29.166 22.5801 29.166 21.8789C29.166 21.1797 28.5547 20.5664 27.8535 20.5664C27.1543 20.5664 26.541 21.1777 26.541 21.8789C26.541 22.5781 27.1523 23.1914 27.8535 23.1914ZM16.834 16.9824H31.1758C32.0508 16.9824 32.75 17.6816 32.75 18.5566V29.4883C32.75 30.3633 32.0508 31.0625 31.1758 31.0625H16.834C15.959 31.0625 15.2598 30.3633 15.2598 29.4883V18.5566C15.2598 17.6816 16.1348 16.9824 16.9219 16.9824H16.834ZM16.3086 29.2246C16.3086 29.6621 16.6582 30.0996 17.1836 30.0996H30.9141C31.3516 30.0996 31.7891 29.75 31.7891 29.2246V28.5254L28.0293 26.4258L25.5801 27.8242C25.4043 27.9121 24.9688 28 24.6172 27.6484L19.1953 22.9277L16.3086 24.502V29.2246ZM16.3086 23.3652L19.0195 21.8789C19.457 21.7031 19.8945 22.2285 19.9824 22.2285L25.3164 26.7773L27.502 25.5527C27.5898 25.4648 27.9395 25.2031 28.2891 25.377L31.7891 27.3008V18.8184C31.7891 18.3809 31.4395 17.9434 30.9141 17.9434H17.0957C16.6582 17.9434 16.2207 18.293 16.2207 18.8184V23.3652H16.3086Z" fill="#0049C6"/>
<defs>
<linearGradient id="paint0_linear_557_2783" x1="23.9815" y1="0" x2="23.9815" y2="48" gradientUnits="userSpaceOnUse">
<stop stop-color="white"/>
<stop offset="1" stop-color="white" stop-opacity="0.7"/>
</linearGradient>
</defs>
</svg>
