<svg width="48" height="48" viewBox="0 0 48 48" fill="none" xmlns="http://www.w3.org/2000/svg">
<rect width="47.963" height="48" rx="23.9815" fill="url(#paint0_linear_3450_959)"/>
<path fill-rule="evenodd" clip-rule="evenodd" d="M18.3533 16.3817H29.6467C30.2708 16.3817 30.8694 16.6296 31.3107 17.0709C31.7521 17.5123 32 18.1109 32 18.735V26.265C32 26.8891 31.7521 27.4877 31.3107 27.9291C30.8694 28.3704 30.2708 28.6183 29.6467 28.6183H18.3533C17.7292 28.6183 17.1306 28.3704 16.6893 27.9291C16.2479 27.4877 16 26.8891 16 26.265V18.735C16 18.1109 16.2479 17.5123 16.6893 17.0709C17.1306 16.6296 17.7292 16.3817 18.3533 16.3817ZM30.6449 27.2615C30.9096 26.9968 31.0583 26.6377 31.0583 26.2633V18.735C31.0583 18.3606 30.9096 18.0015 30.6449 17.7368C30.3801 17.4721 30.0211 17.3233 29.6467 17.3233H18.3533C17.9789 17.3233 17.6199 17.4721 17.3551 17.7368C17.0904 18.0015 16.9417 18.3606 16.9417 18.735V26.2633C16.9417 26.6377 17.0904 26.9968 17.3551 27.2615C17.6199 27.5263 17.9789 27.675 18.3533 27.675H29.6467C30.0211 27.675 30.3801 27.5263 30.6449 27.2615ZM17.1848 31.4719C17.2785 31.5657 17.4057 31.6183 17.5383 31.6183H30.4617C30.5943 31.6183 30.7215 31.5657 30.8152 31.4719C30.909 31.3781 30.9617 31.2509 30.9617 31.1183C30.9617 30.9857 30.909 30.8585 30.8152 30.7648C30.7215 30.671 30.5943 30.6183 30.4617 30.6183H17.5383C17.4057 30.6183 17.2785 30.671 17.1848 30.7648C17.091 30.8585 17.0383 30.9857 17.0383 31.1183C17.0383 31.2509 17.091 31.3781 17.1848 31.4719ZM25.51 23.5L28.5366 19.8483H28.5316C28.6012 19.7641 28.7015 19.711 28.8102 19.7007C28.919 19.6904 29.0274 19.7237 29.1116 19.7933C29.1958 19.863 29.2489 19.9632 29.2592 20.0719C29.2696 20.1807 29.2362 20.2891 29.1666 20.3733L25.8566 24.3733C25.8202 24.4173 25.775 24.4532 25.7239 24.4787C25.6728 24.5042 25.617 24.5189 25.56 24.5217C25.5029 24.5242 25.446 24.515 25.3927 24.4947C25.3393 24.4743 25.2908 24.4432 25.25 24.4033L23.3616 22.5367L21 25.1667C20.962 25.2081 20.9159 25.2413 20.8646 25.2642C20.8133 25.2871 20.7578 25.2993 20.7016 25.3H20.6866C20.5798 25.3003 20.477 25.2591 20.4 25.185L18.8616 23.7C18.788 23.6231 18.747 23.5208 18.7472 23.4143C18.7474 23.3079 18.7888 23.2057 18.8628 23.1291C18.9368 23.0526 19.0375 23.0077 19.1439 23.0038C19.2502 22.9999 19.354 23.0374 19.4333 23.1083L20.6666 24.2983L23.04 21.6633C23.0772 21.6222 23.1224 21.5891 23.1728 21.5659C23.2232 21.5427 23.2778 21.5299 23.3333 21.5283C23.3891 21.5265 23.4447 21.5363 23.4966 21.5569C23.5485 21.5776 23.5956 21.6087 23.635 21.6483L25.51 23.5Z" fill="url(#paint1_linear_3450_959)"/>
<defs>
<linearGradient id="paint0_linear_3450_959" x1="23.9815" y1="0" x2="23.5" y2="47.5" gradientUnits="userSpaceOnUse">
<stop stop-color="#0049C6"/>
<stop offset="1" stop-color="#28B06E"/>
</linearGradient>
<linearGradient id="paint1_linear_3450_959" x1="24.0041" y1="19.6989" x2="24.0041" y2="25.3" gradientUnits="userSpaceOnUse">
<stop stop-color="white"/>
<stop offset="1" stop-color="#A5E7FF"/>
</linearGradient>
</defs>
</svg>
