<svg width="48" height="48" viewBox="0 0 48 48" fill="none" xmlns="http://www.w3.org/2000/svg">
<rect width="47.963" height="48" rx="23.9815" fill="url(#paint0_linear_431_2562)"/>
<path d="M13.5 15C13.5 14.4477 13.9477 14 14.5 14H32.5C33.0523 14 33.5 14.4477 33.5 15V29C33.5 29.5523 33.0523 30 32.5 30H14.5C13.9477 30 13.5 29.5523 13.5 29V15Z" stroke="#0049C6" stroke-linejoin="round"/>
<path d="M23.5 30V34" stroke="#0049C6" stroke-linejoin="round"/>
<path d="M23.5 30L16.5 34" stroke="#0049C6" stroke-linejoin="round"/>
<path d="M23.5 30L30.5 34" stroke="#0049C6" stroke-linejoin="round"/>
<path d="M16.5 17H20.5" stroke="#0049C6" stroke-linejoin="round"/>
<path d="M16.5 20H21.5" stroke="#0049C6" stroke-linejoin="round"/>
<rect x="24.5" y="17" width="6" height="3" stroke="#0049C6" stroke-linejoin="round"/>
<rect x="16.5" y="23" width="5" height="4" stroke="#0049C6" stroke-linejoin="round"/>
<path d="M24.5 27V24" stroke="#0049C6" stroke-linejoin="round"/>
<path d="M27.5 27V25" stroke="#0049C6" stroke-linejoin="round"/>
<path d="M30.5 27V23" stroke="#0049C6" stroke-linejoin="round"/>
<defs>
<linearGradient id="paint0_linear_431_2562" x1="23.9815" y1="0" x2="23.9815" y2="48" gradientUnits="userSpaceOnUse">
<stop stop-color="white"/>
<stop offset="1" stop-color="white" stop-opacity="0.7"/>
</linearGradient>
</defs>
</svg>
