<svg width="48" height="48" viewBox="0 0 48 48" fill="none" xmlns="http://www.w3.org/2000/svg">
<rect width="47.963" height="48" rx="23.9815" fill="url(#paint0_linear_91_33)"/>
<path d="M31.1786 16.9474C29.2915 15.0602 26.7319 14 24.063 14C21.3941 14 18.8346 15.0602 16.9474 16.9474C15.0602 18.8346 14 21.3941 14 24.063C14 26.7319 15.0602 29.2915 16.9474 31.1786C18.8346 33.0658 21.3941 34.126 24.063 34.126C26.7319 34.126 29.2915 33.0658 31.1786 31.1786C33.0658 29.2915 34.126 26.7319 34.126 24.063C34.126 21.3941 33.0658 18.8346 31.1786 16.9474ZM30.2299 30.2299C28.8032 31.6584 26.9254 32.5481 24.9163 32.7472C22.9072 32.9462 20.8912 32.4425 19.212 31.3217C17.5327 30.201 16.294 28.5325 15.7071 26.6008C15.1201 24.6691 15.2212 22.5936 15.9931 20.7281C16.765 18.8625 18.1599 17.3224 19.9401 16.3701C21.7203 15.4178 23.7757 15.1123 25.7559 15.5057C27.7361 15.899 29.5187 16.9669 30.7998 18.5273C32.0809 20.0877 32.7812 22.0441 32.7815 24.063C32.7847 25.2085 32.5609 26.3434 32.123 27.4019C31.685 28.4604 31.0416 29.4216 30.2299 30.2299Z" fill="#0049C6"/>
<path d="M25.7663 22.6255C25.7663 22.8028 25.8367 22.9728 25.9621 23.0982C26.0874 23.2235 26.2574 23.2939 26.4347 23.2939C26.612 23.2939 26.782 23.2235 26.9074 23.0982C27.0327 22.9728 27.1032 22.8028 27.1032 22.6255V17.8961C27.1052 17.8073 27.088 17.719 27.0528 17.6374C27.03 17.5626 26.9907 17.4938 26.9378 17.4361C26.8824 17.3755 26.8134 17.3287 26.7366 17.2996C26.655 17.2644 26.5667 17.2472 26.4778 17.2492H21.691C21.5137 17.2492 21.3437 17.3197 21.2183 17.445C21.093 17.5704 21.0225 17.7404 21.0225 17.9177C21.0225 18.095 21.093 18.265 21.2183 18.3903C21.3437 18.5157 21.5137 18.5861 21.691 18.5861H24.8175L17.4216 25.9605C17.2969 26.0869 17.2271 26.2573 17.2271 26.4349C17.2271 26.6124 17.2969 26.7828 17.4216 26.9092C17.548 27.0339 17.7184 27.1038 17.896 27.1038C18.0735 27.1038 18.2439 27.0339 18.3703 26.9092L25.7663 19.5133V22.6255Z" fill="#0049C6"/>
<path d="M30.704 21.188C30.5776 21.0634 30.4072 20.9935 30.2297 20.9935C30.0521 20.9935 29.8817 21.0634 29.7553 21.188L22.3593 28.6127V25.5005C22.3593 25.3232 22.2889 25.1532 22.1636 25.0279C22.0382 24.9025 21.8682 24.8321 21.6909 24.8321C21.5136 24.8321 21.3436 24.9025 21.2183 25.0279C21.0929 25.1532 21.0225 25.3232 21.0225 25.5005V30.2443C21.0215 30.4184 21.0886 30.586 21.2093 30.7115C21.3348 30.8322 21.5024 30.8993 21.6765 30.8983H26.4203C26.5976 30.8983 26.7676 30.8279 26.8929 30.7025C27.0183 30.5772 27.0887 30.4072 27.0887 30.2299C27.0887 30.0526 27.0183 29.8826 26.8929 29.7572C26.7676 29.6319 26.5976 29.5615 26.4203 29.5615H23.344L30.704 22.1655C30.7701 22.1024 30.8228 22.0266 30.8587 21.9426C30.8947 21.8586 30.9132 21.7681 30.9132 21.6768C30.9132 21.5854 30.8947 21.495 30.8587 21.411C30.8228 21.3269 30.7701 21.2511 30.704 21.188Z" fill="#0049C6"/>
<defs>
<linearGradient id="paint0_linear_91_33" x1="23.9815" y1="0" x2="23.9815" y2="48" gradientUnits="userSpaceOnUse">
<stop stop-color="white"/>
<stop offset="1" stop-color="white" stop-opacity="0.7"/>
</linearGradient>
</defs>
</svg>
