<svg width="48" height="48" viewBox="0 0 48 48" fill="none" xmlns="http://www.w3.org/2000/svg">
<rect width="47.963" height="48" rx="23.9815" fill="url(#paint0_linear_431_2559)"/>
<path d="M31 23V17C31 15.3431 29.6569 14 28 14H18C16.3431 14 15 15.3431 15 17V31C15 32.6569 16.3431 34 18 34H22" stroke="#0049C6" stroke-linejoin="round"/>
<path d="M29.0315 27.7696L31.2304 29.9686M29.0315 27.7696L25.3665 31.4346L25 34L27.5655 33.6335L31.2304 29.9686M29.0315 27.7696L30.4974 26.3036C30.9022 25.8988 31.5586 25.8988 31.9634 26.3036L32.6964 27.0366C33.1012 27.4414 33.1012 28.0978 32.6964 28.5026L31.2304 29.9686" stroke="#0049C6" stroke-linejoin="round"/>
<path d="M19 19H27" stroke="#0049C6" stroke-linejoin="round"/>
<path d="M19 24H27" stroke="#0049C6" stroke-linejoin="round"/>
<path d="M19 29H23" stroke="#0049C6" stroke-linejoin="round"/>
<defs>
<linearGradient id="paint0_linear_431_2559" x1="23.9815" y1="0" x2="23.9815" y2="48" gradientUnits="userSpaceOnUse">
<stop stop-color="white"/>
<stop offset="1" stop-color="white" stop-opacity="0.7"/>
</linearGradient>
</defs>
</svg>
