<svg width="48" height="48" viewBox="0 0 48 48" fill="none" xmlns="http://www.w3.org/2000/svg">
<rect width="47.963" height="48" rx="23.9815" fill="url(#paint0_linear_3450_971)"/>
<path fill-rule="evenodd" clip-rule="evenodd" d="M17.7689 15H30.1938C30.8805 15 31.5391 15.2728 32.0246 15.7583C32.5102 16.2439 32.783 16.9025 32.783 17.5891V25.8736C32.783 26.5603 32.5102 27.2189 32.0246 27.7044C31.5391 28.19 30.8805 28.4627 30.1938 28.4627H17.7689C17.0823 28.4627 16.4237 28.19 15.9381 27.7044C15.4526 27.2189 15.1798 26.5603 15.1798 25.8736V17.5891C15.1798 16.9025 15.4526 16.2439 15.9381 15.7583C16.4237 15.2728 17.0823 15 17.7689 15ZM31.2921 26.97C31.5833 26.6787 31.7469 26.2837 31.7469 25.8718V17.5891C31.7469 17.1772 31.5833 16.7822 31.2921 16.4909C31.0008 16.1996 30.6057 16.036 30.1938 16.036H17.7689C17.357 16.036 16.962 16.1996 16.6707 16.4909C16.3795 16.7822 16.2158 17.1772 16.2158 17.5891V25.8718C16.2158 26.2837 16.3795 26.6787 16.6707 26.97C16.962 27.2613 17.357 27.4249 17.7689 27.4249H30.1938C30.6057 27.4249 31.0008 27.2613 31.2921 26.97ZM16.4833 31.6022C16.5865 31.7054 16.7264 31.7633 16.8723 31.7633H31.0905C31.2364 31.7633 31.3763 31.7054 31.4795 31.6022C31.5826 31.4991 31.6406 31.3591 31.6406 31.2132C31.6406 31.0673 31.5826 30.9274 31.4795 30.8243C31.3763 30.7211 31.2364 30.6631 31.0905 30.6631H16.8723C16.7264 30.6631 16.5865 30.7211 16.4833 30.8243C16.3801 30.9274 16.3222 31.0673 16.3222 31.2132C16.3222 31.3591 16.3801 31.4991 16.4833 31.6022ZM25.6426 22.8316L28.9726 18.814H28.9671C29.0437 18.7214 29.1539 18.663 29.2736 18.6516C29.3933 18.6403 29.5125 18.6769 29.6052 18.7535C29.6978 18.8301 29.7562 18.9404 29.7676 19.06C29.7789 19.1797 29.7423 19.299 29.6657 19.3916L26.024 23.7924C25.9839 23.8408 25.9342 23.8802 25.878 23.9083C25.8218 23.9364 25.7604 23.9525 25.6976 23.9556C25.6349 23.9584 25.5723 23.9483 25.5136 23.9259C25.4549 23.9035 25.4015 23.8693 25.3566 23.8254L23.279 21.7717L20.6807 24.6652C20.6389 24.7108 20.5883 24.7473 20.5318 24.7725C20.4754 24.7978 20.4143 24.8112 20.3525 24.8119H20.336C20.2185 24.8123 20.1054 24.7669 20.0206 24.6854L18.3282 23.0516C18.2471 22.9671 18.202 22.8544 18.2023 22.7373C18.2025 22.6202 18.2481 22.5078 18.3295 22.4235C18.4108 22.3393 18.5216 22.2899 18.6387 22.2856C18.7557 22.2814 18.8698 22.3226 18.9571 22.4007L20.314 23.7099L22.9252 20.8109C22.9662 20.7656 23.0159 20.7292 23.0713 20.7036C23.1268 20.6781 23.1868 20.6641 23.2479 20.6623C23.3093 20.6604 23.3705 20.6711 23.4276 20.6938C23.4847 20.7165 23.5365 20.7508 23.5798 20.7944L25.6426 22.8316Z" fill="#0049C6"/>
<defs>
<linearGradient id="paint0_linear_3450_971" x1="23.9815" y1="0" x2="23.9815" y2="48" gradientUnits="userSpaceOnUse">
<stop stop-color="white"/>
<stop offset="1" stop-color="white" stop-opacity="0.7"/>
</linearGradient>
</defs>
</svg>
