<svg width="48" height="48" viewBox="0 0 48 48" fill="none" xmlns="http://www.w3.org/2000/svg">
<rect width="47.963" height="48" rx="23.9815" fill="#0049C6" fill-opacity="0.4"/>
<path d="M14 14H34V28H14V14Z" stroke="url(#paint0_linear_382_3519)" stroke-linejoin="round"/>
<path d="M21 16.5H31.5V25.5H21V16.5Z" stroke="url(#paint1_linear_382_3519)" stroke-linejoin="round"/>
<circle cx="17.5" cy="21" r="1.5" stroke="url(#paint2_linear_382_3519)" stroke-linejoin="round"/>
<path d="M16.5 17H18.5" stroke="url(#paint3_linear_382_3519)" stroke-linejoin="round"/>
<path d="M16.5 25H18.5" stroke="url(#paint4_linear_382_3519)" stroke-linejoin="round"/>
<path d="M20 31H28.5C29.3284 31 30 31.6716 30 32.5V32.5C30 33.3284 29.3284 34 28.5 34H20L18 32.5L20 31Z" stroke="url(#paint5_linear_382_3519)" stroke-linejoin="round"/>
<defs>
<linearGradient id="paint0_linear_382_3519" x1="24" y1="14" x2="24" y2="28" gradientUnits="userSpaceOnUse">
<stop stop-color="white"/>
<stop offset="1" stop-color="white" stop-opacity="0.7"/>
</linearGradient>
<linearGradient id="paint1_linear_382_3519" x1="26.25" y1="16.5" x2="26.25" y2="25.5" gradientUnits="userSpaceOnUse">
<stop stop-color="white"/>
<stop offset="1" stop-color="white" stop-opacity="0.7"/>
</linearGradient>
<linearGradient id="paint2_linear_382_3519" x1="17.5" y1="19.5" x2="17.5" y2="22.5" gradientUnits="userSpaceOnUse">
<stop stop-color="white"/>
<stop offset="1" stop-color="white" stop-opacity="0.7"/>
</linearGradient>
<linearGradient id="paint3_linear_382_3519" x1="17.5" y1="17" x2="17.5" y2="18" gradientUnits="userSpaceOnUse">
<stop stop-color="white"/>
<stop offset="1" stop-color="white" stop-opacity="0.7"/>
</linearGradient>
<linearGradient id="paint4_linear_382_3519" x1="17.5" y1="25" x2="17.5" y2="26" gradientUnits="userSpaceOnUse">
<stop stop-color="white"/>
<stop offset="1" stop-color="white" stop-opacity="0.7"/>
</linearGradient>
<linearGradient id="paint5_linear_382_3519" x1="24" y1="31" x2="24" y2="34" gradientUnits="userSpaceOnUse">
<stop stop-color="white"/>
<stop offset="1" stop-color="white" stop-opacity="0.7"/>
</linearGradient>
</defs>
</svg>
