<svg width="48" height="48" viewBox="0 0 48 48" fill="none" xmlns="http://www.w3.org/2000/svg">
<rect width="47.963" height="48" rx="23.9815" fill="#0049C6" fill-opacity="0.4"/>
<path d="M14 18C14 16.8954 14.8954 16 16 16H32C33.1046 16 34 16.8954 34 18V20H14V18Z" stroke="url(#paint0_linear_431_2546)" stroke-linejoin="round"/>
<path d="M34 20H14V32C14 33.1046 14.8954 34 16 34H32C33.1046 34 34 33.1046 34 32V20Z" stroke="url(#paint1_linear_431_2546)" stroke-linejoin="round"/>
<path d="M24 14V17" stroke="url(#paint2_linear_431_2546)" stroke-linejoin="round"/>
<path d="M29 14V17" stroke="url(#paint3_linear_431_2546)" stroke-linejoin="round"/>
<path d="M19 14V17" stroke="url(#paint4_linear_431_2546)" stroke-linejoin="round"/>
<path d="M17 24L19 26L22 23" stroke="url(#paint5_linear_431_2546)" stroke-linejoin="round"/>
<path d="M26 24L28 26L31 23" stroke="url(#paint6_linear_431_2546)" stroke-linejoin="round"/>
<path d="M26 29L28 31L31 28" stroke="url(#paint7_linear_431_2546)" stroke-linejoin="round"/>
<path d="M17 30H22" stroke="url(#paint8_linear_431_2546)" stroke-linejoin="round"/>
<defs>
<linearGradient id="paint0_linear_431_2546" x1="24" y1="16" x2="24" y2="20" gradientUnits="userSpaceOnUse">
<stop stop-color="white"/>
<stop offset="1" stop-color="white" stop-opacity="0.7"/>
</linearGradient>
<linearGradient id="paint1_linear_431_2546" x1="24" y1="20" x2="24" y2="34" gradientUnits="userSpaceOnUse">
<stop stop-color="white"/>
<stop offset="1" stop-color="white" stop-opacity="0.7"/>
</linearGradient>
<linearGradient id="paint2_linear_431_2546" x1="24.5" y1="14" x2="24.5" y2="17" gradientUnits="userSpaceOnUse">
<stop stop-color="white"/>
<stop offset="1" stop-color="white" stop-opacity="0.7"/>
</linearGradient>
<linearGradient id="paint3_linear_431_2546" x1="29.5" y1="14" x2="29.5" y2="17" gradientUnits="userSpaceOnUse">
<stop stop-color="white"/>
<stop offset="1" stop-color="white" stop-opacity="0.7"/>
</linearGradient>
<linearGradient id="paint4_linear_431_2546" x1="19.5" y1="14" x2="19.5" y2="17" gradientUnits="userSpaceOnUse">
<stop stop-color="white"/>
<stop offset="1" stop-color="white" stop-opacity="0.7"/>
</linearGradient>
<linearGradient id="paint5_linear_431_2546" x1="19.5" y1="23" x2="19.5" y2="26" gradientUnits="userSpaceOnUse">
<stop stop-color="white"/>
<stop offset="1" stop-color="white" stop-opacity="0.7"/>
</linearGradient>
<linearGradient id="paint6_linear_431_2546" x1="28.5" y1="23" x2="28.5" y2="26" gradientUnits="userSpaceOnUse">
<stop stop-color="white"/>
<stop offset="1" stop-color="white" stop-opacity="0.7"/>
</linearGradient>
<linearGradient id="paint7_linear_431_2546" x1="28.5" y1="28" x2="28.5" y2="31" gradientUnits="userSpaceOnUse">
<stop stop-color="white"/>
<stop offset="1" stop-color="white" stop-opacity="0.7"/>
</linearGradient>
<linearGradient id="paint8_linear_431_2546" x1="19.5" y1="30" x2="19.5" y2="31" gradientUnits="userSpaceOnUse">
<stop stop-color="white"/>
<stop offset="1" stop-color="white" stop-opacity="0.7"/>
</linearGradient>
</defs>
</svg>
