<svg width="57" height="30" viewBox="0 0 57 30" fill="none" xmlns="http://www.w3.org/2000/svg">
<path d="M5.29964 6.18418C5.68607 4.3293 7.32086 3 9.21556 3H52.0438C54.5811 3 56.4772 5.3319 55.9597 7.81582L52.6264 23.8158C52.24 25.6707 50.6052 27 48.7105 27H5.88223C3.34497 27 1.44882 24.6681 1.96631 22.1842L5.29964 6.18418Z" fill="url(#paint0_linear_3453_983)"/>
<path d="M10.395 21L12.627 8.4H14.949L19.269 17.382L20.853 8.4H23.157L20.925 21H18.621L14.301 12.018L12.699 21H10.395ZM27.6157 21.216C26.4277 21.216 25.4797 20.874 24.7717 20.19C24.0757 19.506 23.7277 18.582 23.7277 17.418C23.7277 16.662 23.8597 15.948 24.1237 15.276C24.3877 14.604 24.7657 14.016 25.2577 13.512C25.7497 12.996 26.3317 12.594 27.0037 12.306C27.6877 12.006 28.4377 11.856 29.2537 11.856C30.0457 11.856 30.7237 12.012 31.2877 12.324C31.8517 12.624 32.2837 13.044 32.5837 13.584C32.8957 14.112 33.0517 14.718 33.0517 15.402C33.0517 15.69 33.0217 15.99 32.9617 16.302C32.9137 16.602 32.8537 16.866 32.7817 17.094H25.9957C25.9957 17.19 25.9957 17.292 25.9957 17.4C25.9957 18 26.1757 18.474 26.5357 18.822C26.8957 19.158 27.3637 19.326 27.9397 19.326C28.3957 19.326 28.7977 19.224 29.1457 19.02C29.5057 18.804 29.7997 18.528 30.0277 18.192H32.3677C32.0917 18.768 31.7137 19.284 31.2337 19.74C30.7657 20.196 30.2197 20.556 29.5957 20.82C28.9837 21.084 28.3237 21.216 27.6157 21.216ZM28.9477 13.728C28.3957 13.728 27.8737 13.89 27.3817 14.214C26.8897 14.526 26.5297 15.006 26.3017 15.654H30.7477C30.7597 15.558 30.7657 15.492 30.7657 15.456C30.7777 14.928 30.6157 14.508 30.2797 14.196C29.9437 13.884 29.4997 13.728 28.9477 13.728ZM35.4668 21L34.4228 12.072H36.6908L37.1228 18.498L40.0568 12.072H42.6128L43.2788 18.516L45.9788 12.072H48.2468L44.0708 21H41.6768L40.9388 14.322L37.8608 21H35.4668Z" fill="#0E855A"/>
<defs>
<linearGradient id="paint0_linear_3453_983" x1="0.963012" y1="7.5" x2="51.963" y2="27" gradientUnits="userSpaceOnUse">
<stop stop-color="#E3FF95"/>
<stop offset="1" stop-color="#73FFB3"/>
</linearGradient>
</defs>
</svg>
