<svg width="123" height="123" viewBox="0 0 123 123" fill="none" xmlns="http://www.w3.org/2000/svg">
<path d="M23.2825 62.2886C30.0645 42.172 52.1304 31.2789 72.5659 37.921C93.0433 44.5744 104.169 66.2935 97.3781 86.4409C96.7153 88.407 95.8959 90.3087 94.931 92.1322C94.7162 92.538 94.4235 92.8975 94.0697 93.1903C93.7159 93.483 93.3079 93.7031 92.869 93.8382C92.4301 93.9732 91.9689 94.0205 91.5118 93.9773C91.0546 93.9341 90.6105 93.8013 90.2046 93.5865C89.7988 93.3716 89.4393 93.0789 89.1465 92.7251C88.8538 92.3713 88.6337 91.9633 88.4986 91.5244C88.3636 91.0856 88.3163 90.6244 88.3595 90.1672C88.4027 89.71 88.5355 89.2659 88.7503 88.86C89.5418 87.3694 90.2102 85.8172 90.7528 84.2091C96.2902 67.7729 87.2038 50.0279 70.4068 44.5716C53.5931 39.1068 35.4593 48.0562 29.9079 64.5232C29.3576 66.1499 28.9441 67.8198 28.6717 69.5153C28.5992 69.9687 28.4381 70.4033 28.1975 70.7945C27.957 71.1856 27.6418 71.5255 27.2699 71.7948C26.898 72.0641 26.4768 72.2575 26.0301 72.364C25.5835 72.4705 25.1202 72.488 24.6669 72.4155C24.2135 72.3429 23.7788 72.1818 23.3877 71.9413C22.9966 71.7008 22.6566 71.3856 22.3873 71.0137C22.118 70.6418 21.9246 70.2205 21.8181 69.7739C21.7116 69.3272 21.6941 68.864 21.7667 68.4106C22.0995 66.3438 22.6057 64.2967 23.2825 62.2858V62.2886ZM30.6518 78.2941C32.0585 89.7018 40.0655 99.4427 51.4732 103.134C62.6572 106.748 74.7808 103.803 82.908 95.8546L83.5429 95.2169L88.577 100.069C78.6095 110.409 63.3591 114.321 49.3225 109.785C35.6187 105.352 25.875 93.7598 23.8334 80.0476L23.7132 79.1527L30.649 78.2941H30.6518Z" fill="url(#paint0_linear_6807_8169)"/>
<path d="M2.54497 54.5139C4.64809 48.1095 13.013 45.5001 25.4555 45.8106C25.9146 45.8221 26.3669 45.924 26.7866 46.1104C27.2063 46.2968 27.5852 46.564 27.9017 46.8968C28.2181 47.2296 28.4659 47.6215 28.6309 48.05C28.7959 48.4786 28.8748 48.9355 28.8633 49.3945C28.8517 49.8536 28.7498 50.3059 28.5635 50.7256C28.3771 51.1454 28.1099 51.5243 27.7771 51.8407C27.4443 52.1571 27.0524 52.4049 26.6238 52.5699C26.1953 52.7349 25.7384 52.8139 25.2793 52.8023C15.7034 52.5618 9.95342 54.3545 9.18433 56.6981C7.1791 62.7949 27.4104 77.114 55.0837 86.5389L56.2387 86.9304C84.5077 96.3441 109.879 97.0964 111.907 90.9381C112.69 88.5609 109.074 83.6163 101.142 78.0173C100.762 77.755 100.436 77.4196 100.186 77.0307C99.9355 76.6418 99.7648 76.2071 99.6836 75.7517C99.6024 75.2963 99.6124 74.8294 99.713 74.3779C99.8135 73.9264 100.003 73.4994 100.27 73.1215C100.536 72.7437 100.876 72.4225 101.267 72.1767C101.659 71.9309 102.096 71.7653 102.552 71.6895C103.009 71.6137 103.475 71.6292 103.926 71.7351C104.376 71.841 104.801 72.0352 105.175 72.3065C115.442 79.5527 120.661 86.6983 118.549 93.1223C114.606 105.117 86.1886 104.273 54.0294 93.5614L51.75 92.7895C20.8074 82.0837 -1.30049 66.1985 2.54497 54.5139ZM111.812 42.5384C113.621 42.5384 115.112 43.9116 115.291 45.6735L115.308 46.0315V57.0561C115.312 57.955 114.97 58.821 114.352 59.4742C113.734 60.1274 112.889 60.5175 111.991 60.5636C111.093 60.6097 110.212 60.3082 109.531 59.7216C108.85 59.1351 108.421 58.3087 108.333 57.4141L108.316 57.0561V46.0315C108.316 44.1018 109.882 42.5356 111.812 42.5356V42.5384Z" fill="url(#paint1_linear_6807_8169)"/>
<path d="M117.321 48.0478C118.22 48.0436 119.086 48.3859 119.74 49.0035C120.393 49.6212 120.783 50.4667 120.829 51.3644C120.875 52.2622 120.573 53.1432 119.987 53.8245C119.4 54.5057 118.574 54.9349 117.679 55.0228L117.324 55.0423H106.302C105.403 55.0465 104.537 54.7042 103.884 54.0866C103.231 53.469 102.841 52.6234 102.795 51.7257C102.749 50.8279 103.05 49.9469 103.637 49.2656C104.223 48.5844 105.05 48.1552 105.944 48.0674L106.302 48.0506H117.321V48.0478ZM97.7501 25.4617C99.5624 25.4617 101.05 26.8376 101.229 28.5996L101.246 28.9575V40.3876C101.243 41.2818 100.898 42.1409 100.281 42.7882C99.6639 43.4355 98.8224 43.8218 97.9294 43.8676C97.0364 43.9135 96.1598 43.6154 95.4798 43.0347C94.7999 42.454 94.3683 41.6348 94.2738 40.7456L94.2542 40.3876V28.9575C94.2542 27.0278 95.8204 25.4617 97.7501 25.4617Z" fill="url(#paint2_linear_6807_8169)"/>
<path d="M103.265 31.1781C104.164 31.1747 105.029 31.5175 105.682 32.1353C106.335 32.7532 106.724 33.5986 106.77 34.4962C106.816 35.3937 106.514 36.2743 105.927 36.9553C105.341 37.6362 104.515 38.0652 103.62 38.1531L103.265 38.1698H92.2406C91.3467 38.1663 90.4881 37.8204 89.8413 37.2032C89.1945 36.5861 88.8088 35.7447 88.7633 34.8519C88.7178 33.9591 89.0161 33.0828 89.5968 32.4031C90.1775 31.7235 90.9965 31.2921 91.8854 31.1977L92.2406 31.1781H103.265ZM46.4447 11.4866C48.257 11.4866 49.7448 12.8625 49.9238 14.6273L49.9406 14.9824V26.4153C49.9377 27.3095 49.5923 28.1686 48.9754 28.8159C48.3585 29.4632 47.517 29.8495 46.624 29.8953C45.731 29.9412 44.8544 29.6431 44.1744 29.0624C43.4945 28.4817 43.0629 27.6625 42.9684 26.7733L42.9489 26.4153V14.9824C42.9489 13.0527 44.515 11.4866 46.4447 11.4866Z" fill="url(#paint3_linear_6807_8169)"/>
<path d="M51.957 17.2032C52.856 17.199 53.722 17.5413 54.3752 18.1589C55.0283 18.7765 55.4185 19.622 55.4646 20.5198C55.5106 21.4176 55.2091 22.2986 54.6226 22.9799C54.0361 23.6611 53.2097 24.0902 52.315 24.1781L51.957 24.1949H40.9381C40.0439 24.192 39.1848 23.8466 38.5375 23.2297C37.8902 22.6128 37.5039 21.7713 37.4581 20.8783C37.4122 19.9853 37.7103 19.1087 38.291 18.4287C38.8717 17.7488 39.6909 17.3172 40.5801 17.2227L40.9381 17.2032H51.957Z" fill="url(#paint4_linear_6807_8169)"/>
<defs>
<linearGradient id="paint0_linear_6807_8169" x1="60.5469" y1="35.9734" x2="60.5469" y2="111.653" gradientUnits="userSpaceOnUse">
<stop stop-color="#5AC2EE"/>
<stop offset="1" stop-color="#6AFFDB"/>
</linearGradient>
<linearGradient id="paint1_linear_6807_8169" x1="60.5614" y1="42.5356" x2="60.5614" y2="101.857" gradientUnits="userSpaceOnUse">
<stop stop-color="#5AC2EE"/>
<stop offset="1" stop-color="#6AFFDB"/>
</linearGradient>
<linearGradient id="paint2_linear_6807_8169" x1="107.544" y1="25.4617" x2="107.544" y2="55.0424" gradientUnits="userSpaceOnUse">
<stop stop-color="#5AC2EE"/>
<stop offset="1" stop-color="#6AFFDB"/>
</linearGradient>
<linearGradient id="paint3_linear_6807_8169" x1="74.8616" y1="11.4866" x2="74.8616" y2="38.1698" gradientUnits="userSpaceOnUse">
<stop stop-color="#5AC2EE"/>
<stop offset="1" stop-color="#6AFFDB"/>
</linearGradient>
<linearGradient id="paint4_linear_6807_8169" x1="46.4613" y1="17.2031" x2="46.4613" y2="24.1949" gradientUnits="userSpaceOnUse">
<stop stop-color="#5AC2EE"/>
<stop offset="1" stop-color="#6AFFDB"/>
</linearGradient>
</defs>
</svg>
