<svg width="428" height="138" viewBox="0 0 428 138" fill="none" xmlns="http://www.w3.org/2000/svg">
<path d="M105.5 3.5H53L0.5 68.5H53L105.5 3.5Z" fill="#A2F3B2"/>
<path d="M105.5 68.5H53L0.5 134.5H53L105.5 68.5Z" fill="#23B2EF"/>
<path d="M141.235 72.6993C139.096 72.6993 137.126 72.1678 135.325 71.1049C133.58 70.042 132.173 68.6433 131.104 66.9091C130.035 65.1189 129.5 63.1608 129.5 61.035V23.9441C129.5 21.8182 130.035 19.8881 131.104 18.1538C132.173 16.3636 133.58 14.9371 135.325 13.8741C137.126 12.8112 139.096 12.2797 141.235 12.2797H190.115V23.4406H143.599C142.698 23.4406 141.966 23.6923 141.404 24.1958C140.897 24.6993 140.644 25.4266 140.644 26.3776V58.6014C140.644 59.4965 140.897 60.2238 141.404 60.7832C141.966 61.2867 142.698 61.5385 143.599 61.5385H190.115V72.6993H141.235Z" fill="white"/>
<path d="M211.919 72.6993C209.78 72.6993 207.838 72.1678 206.094 71.1049C204.349 70.042 202.942 68.6433 201.873 66.9091C200.803 65.1748 200.268 63.2448 200.268 61.1189V8H211.412V60.6993C211.412 60.979 211.497 61.2308 211.666 61.4545C211.891 61.6224 212.144 61.7063 212.425 61.7063H221.796V72.6993H211.919Z" fill="white"/>
<path d="M231.224 72.6993V24.028H242.284V72.6993H231.224ZM231.224 19.1608V8.08391H242.284V19.1608H231.224Z" fill="white"/>
<path d="M290.232 92V72.6993H263.132C260.937 72.6993 258.967 72.1678 257.223 71.1049C255.478 70.042 254.071 68.6433 253.002 66.9091C251.988 65.1748 251.482 63.2448 251.482 61.1189V35.6084C251.482 33.4825 251.988 31.5524 253.002 29.8182C254.071 28.0839 255.478 26.6853 257.223 25.6224C258.967 24.5594 260.937 24.028 263.132 24.028H301.291V92H290.232ZM263.639 61.7063H289.219C289.5 61.7063 289.725 61.6224 289.894 61.4545C290.119 61.2308 290.232 60.979 290.232 60.6993V36.028C290.232 35.7482 290.119 35.5245 289.894 35.3566C289.725 35.1329 289.5 35.021 289.219 35.021H263.639C263.357 35.021 263.104 35.1329 262.879 35.3566C262.71 35.5245 262.626 35.7482 262.626 36.028V60.6993C262.626 60.979 262.71 61.2308 262.879 61.4545C263.104 61.6224 263.357 61.7063 263.639 61.7063Z" fill="white"/>
<path d="M322.02 72.6993C319.881 72.6993 317.911 72.1678 316.11 71.1049C314.365 70.042 312.958 68.6433 311.889 66.9091C310.876 65.1748 310.369 63.2448 310.369 61.1189V24.028H321.429V60.6993C321.429 60.979 321.513 61.2308 321.682 61.4545C321.907 61.6224 322.16 61.7063 322.442 61.7063H348.022C348.303 61.7063 348.528 61.6224 348.697 61.4545C348.922 61.2308 349.035 60.979 349.035 60.6993V24.028H360.094V61.1189C360.094 63.2448 359.559 65.1748 358.49 66.9091C357.477 68.6433 356.098 70.042 354.353 71.1049C352.609 72.1678 350.639 72.6993 348.444 72.6993H322.02Z" fill="white"/>
<path d="M380.425 72.6993C378.287 72.6993 376.345 72.1678 374.6 71.1049C372.856 70.042 371.449 68.6433 370.379 66.9091C369.31 65.1748 368.775 63.2448 368.775 61.1189V35.6084C368.775 33.4825 369.31 31.5524 370.379 29.8182C371.449 28.0839 372.856 26.6853 374.6 25.6224C376.345 24.5594 378.287 24.028 380.425 24.028H406.85C408.988 24.028 410.93 24.5594 412.675 25.6224C414.476 26.6853 415.883 28.0839 416.896 29.8182C417.965 31.5524 418.5 33.4825 418.5 35.6084V53.9021H379.835V60.6993C379.835 60.979 379.919 61.2308 380.088 61.4545C380.313 61.6224 380.566 61.7063 380.848 61.7063H418.5V72.6993H380.425ZM379.835 44H407.441V36.028C407.441 35.7482 407.328 35.5245 407.103 35.3566C406.934 35.1329 406.709 35.021 406.428 35.021H380.848C380.566 35.021 380.313 35.1329 380.088 35.3566C379.919 35.5245 379.835 35.7482 379.835 36.028V44Z" fill="white"/>
<path d="M130.868 124V106.696H133.46V121.408H148.148V124H130.868ZM157.371 124C156.795 124 156.267 123.856 155.787 123.568C155.323 123.28 154.947 122.904 154.659 122.44C154.387 121.976 154.251 121.456 154.251 120.88V115.744H165.795V113.272C165.795 113.112 165.739 112.976 165.627 112.864C165.515 112.736 165.379 112.672 165.219 112.672H154.251V110.08H165.291C165.867 110.08 166.387 110.224 166.851 110.512C167.331 110.784 167.707 111.16 167.979 111.64C168.267 112.12 168.411 112.64 168.411 113.2V124H157.371ZM157.443 121.408H165.795V118.168H156.843V120.808C156.843 120.968 156.899 121.112 157.011 121.24C157.139 121.352 157.283 121.408 157.443 121.408ZM177.923 129.328V126.712H186.443C186.603 126.712 186.739 126.648 186.851 126.52C186.979 126.408 187.043 126.272 187.043 126.112V124H178.595C178.035 124 177.515 123.864 177.035 123.592C176.555 123.304 176.171 122.92 175.883 122.44C175.611 121.96 175.475 121.44 175.475 120.88V110.128H178.067V120.808C178.067 120.968 178.123 121.112 178.235 121.24C178.363 121.352 178.507 121.408 178.667 121.408H186.443C186.603 121.408 186.739 121.352 186.851 121.24C186.979 121.112 187.043 120.968 187.043 120.808V110.128H189.635V126.208C189.635 126.784 189.491 127.304 189.203 127.768C188.931 128.248 188.555 128.624 188.075 128.896C187.611 129.184 187.091 129.328 186.515 129.328H177.923ZM199.525 124C198.949 124 198.429 123.856 197.965 123.568C197.501 123.28 197.125 122.904 196.837 122.44C196.549 121.976 196.405 121.456 196.405 120.88V113.2C196.405 112.624 196.549 112.104 196.837 111.64C197.125 111.176 197.501 110.8 197.965 110.512C198.429 110.224 198.949 110.08 199.525 110.08H207.445C208.021 110.08 208.541 110.224 209.005 110.512C209.485 110.784 209.861 111.16 210.133 111.64C210.421 112.12 210.565 112.64 210.565 113.2V118.336H198.997V120.808C198.997 120.968 199.053 121.112 199.165 121.24C199.293 121.352 199.437 121.408 199.597 121.408H210.565V124H199.525ZM198.997 115.912H207.949V113.272C207.949 113.112 207.893 112.976 207.781 112.864C207.669 112.736 207.533 112.672 207.373 112.672H199.597C199.437 112.672 199.293 112.736 199.165 112.864C199.053 112.976 198.997 113.112 198.997 113.272V115.912ZM217.706 124V113.2C217.706 112.624 217.85 112.104 218.138 111.64C218.426 111.176 218.802 110.8 219.266 110.512C219.746 110.224 220.266 110.08 220.826 110.08H228.602V112.672H220.898C220.738 112.672 220.594 112.736 220.466 112.864C220.354 112.976 220.298 113.112 220.298 113.272V124H217.706ZM249.833 124C249.241 124 248.713 123.856 248.249 123.568C247.785 123.28 247.409 122.904 247.121 122.44C246.833 121.976 246.689 121.456 246.689 120.88V120.16H249.305V120.808C249.305 120.968 249.361 121.112 249.473 121.24C249.585 121.352 249.721 121.408 249.881 121.408H260.801C260.961 121.408 261.097 121.352 261.209 121.24C261.321 121.112 261.377 120.968 261.377 120.808V117.112C261.377 116.952 261.321 116.816 261.209 116.704C261.097 116.576 260.961 116.512 260.801 116.512H249.833V113.92H260.057C260.233 113.92 260.377 113.864 260.489 113.752C260.601 113.624 260.657 113.48 260.657 113.32V109.912C260.657 109.752 260.601 109.616 260.489 109.504C260.377 109.376 260.233 109.312 260.057 109.312H249.881C249.721 109.312 249.585 109.376 249.473 109.504C249.361 109.616 249.305 109.752 249.305 109.912V110.8H246.689V109.84C246.689 109.248 246.825 108.72 247.097 108.256C247.385 107.792 247.769 107.416 248.249 107.128C248.729 106.84 249.257 106.696 249.833 106.696H260.129C260.721 106.696 261.249 106.84 261.713 107.128C262.193 107.416 262.569 107.792 262.841 108.256C263.113 108.72 263.249 109.248 263.249 109.84V113.392C263.249 113.6 263.225 113.808 263.177 114.016C263.145 114.224 263.089 114.416 263.009 114.592C263.361 114.944 263.609 115.336 263.753 115.768C263.897 116.2 263.969 116.624 263.969 117.04V120.88C263.969 121.456 263.825 121.976 263.537 122.44C263.265 122.904 262.889 123.28 262.409 123.568C261.945 123.856 261.433 124 260.873 124H249.833ZM286.15 124C285.574 124 285.054 123.856 284.59 123.568C284.126 123.28 283.75 122.904 283.462 122.44C283.174 121.976 283.03 121.456 283.03 120.88V113.2C283.03 112.624 283.174 112.104 283.462 111.64C283.75 111.176 284.126 110.8 284.59 110.512C285.054 110.224 285.574 110.08 286.15 110.08H294.07C294.646 110.08 295.166 110.224 295.63 110.512C296.11 110.784 296.486 111.16 296.758 111.64C297.046 112.12 297.19 112.64 297.19 113.2V120.88C297.19 121.456 297.046 121.976 296.758 122.44C296.486 122.904 296.11 123.28 295.63 123.568C295.166 123.856 294.646 124 294.07 124H286.15ZM286.222 121.408H293.998C294.158 121.408 294.294 121.352 294.406 121.24C294.518 121.112 294.574 120.968 294.574 120.808V113.272C294.574 113.112 294.518 112.976 294.406 112.864C294.294 112.736 294.158 112.672 293.998 112.672H286.222C286.062 112.672 285.918 112.736 285.79 112.864C285.678 112.976 285.622 113.112 285.622 113.272V120.808C285.622 120.968 285.678 121.112 285.79 121.24C285.918 121.352 286.062 121.408 286.222 121.408ZM304.051 124V110.08H315.091C315.667 110.08 316.187 110.224 316.651 110.512C317.131 110.8 317.507 111.176 317.779 111.64C318.067 112.104 318.211 112.624 318.211 113.2V124H315.619V113.272C315.619 113.112 315.555 112.976 315.427 112.864C315.315 112.736 315.179 112.672 315.019 112.672H307.243C307.083 112.672 306.939 112.736 306.811 112.864C306.699 112.976 306.643 113.112 306.643 113.272V124H304.051ZM337.443 124V106.72H350.883C351.443 106.72 351.963 106.864 352.443 107.152C352.923 107.424 353.299 107.8 353.571 108.28C353.859 108.744 354.003 109.264 354.003 109.84V113.368C354.003 113.576 353.979 113.784 353.931 113.992C353.899 114.2 353.835 114.392 353.739 114.568C354.059 115.016 354.299 115.44 354.459 115.84C354.635 116.224 354.723 116.616 354.723 117.016V120.88C354.723 121.456 354.579 121.984 354.291 122.464C354.019 122.928 353.643 123.304 353.163 123.592C352.683 123.864 352.155 124 351.579 124H337.443ZM340.635 121.408H351.531C351.691 121.408 351.827 121.352 351.939 121.24C352.051 121.112 352.107 120.968 352.107 120.808V117.088C352.107 116.928 352.051 116.792 351.939 116.68C351.827 116.552 351.691 116.488 351.531 116.488H340.635C340.475 116.488 340.331 116.552 340.203 116.68C340.091 116.792 340.035 116.928 340.035 117.088V120.808C340.035 120.968 340.091 121.112 340.203 121.24C340.331 121.352 340.475 121.408 340.635 121.408ZM340.635 113.896H350.811C350.971 113.896 351.107 113.84 351.219 113.728C351.331 113.6 351.387 113.456 351.387 113.296V109.912C351.387 109.752 351.331 109.616 351.219 109.504C351.107 109.376 350.971 109.312 350.811 109.312H340.635C340.475 109.312 340.331 109.376 340.203 109.504C340.091 109.616 340.035 109.752 340.035 109.912V113.296C340.035 113.456 340.091 113.6 340.203 113.728C340.331 113.84 340.475 113.896 340.635 113.896ZM365.163 124C364.587 124 364.059 123.856 363.579 123.568C363.115 123.28 362.739 122.904 362.451 122.44C362.179 121.976 362.043 121.456 362.043 120.88V115.744H373.587V113.272C373.587 113.112 373.531 112.976 373.419 112.864C373.307 112.736 373.171 112.672 373.011 112.672H362.043V110.08H373.083C373.659 110.08 374.179 110.224 374.643 110.512C375.123 110.784 375.499 111.16 375.771 111.64C376.059 112.12 376.203 112.64 376.203 113.2V124H365.163ZM365.235 121.408H373.587V118.168H364.635V120.808C364.635 120.968 364.691 121.112 364.803 121.24C364.931 121.352 365.075 121.408 365.235 121.408ZM386.039 124C385.463 124 384.943 123.856 384.479 123.568C384.015 123.28 383.639 122.904 383.351 122.44C383.063 121.976 382.919 121.456 382.919 120.88V120.52H385.511V120.808C385.511 120.968 385.567 121.112 385.679 121.24C385.807 121.352 385.951 121.408 386.111 121.408H393.887C394.047 121.408 394.183 121.352 394.295 121.24C394.407 121.112 394.463 120.968 394.463 120.808V118.936C394.463 118.776 394.407 118.64 394.295 118.528C394.183 118.4 394.047 118.336 393.887 118.336H386.039C385.463 118.336 384.943 118.2 384.479 117.928C384.015 117.64 383.639 117.264 383.351 116.8C383.063 116.32 382.919 115.792 382.919 115.216V113.2C382.919 112.624 383.063 112.104 383.351 111.64C383.639 111.176 384.015 110.8 384.479 110.512C384.943 110.224 385.463 110.08 386.039 110.08H393.959C394.535 110.08 395.055 110.224 395.519 110.512C395.999 110.8 396.375 111.176 396.647 111.64C396.935 112.104 397.079 112.624 397.079 113.2V113.56H394.463V113.272C394.463 113.112 394.407 112.976 394.295 112.864C394.183 112.736 394.047 112.672 393.887 112.672H386.111C385.951 112.672 385.807 112.736 385.679 112.864C385.567 112.976 385.511 113.112 385.511 113.272V115.144C385.511 115.304 385.567 115.448 385.679 115.576C385.807 115.688 385.951 115.744 386.111 115.744H393.959C394.535 115.744 395.055 115.888 395.519 116.176C395.999 116.448 396.375 116.824 396.647 117.304C396.935 117.768 397.079 118.288 397.079 118.864V120.88C397.079 121.456 396.935 121.976 396.647 122.44C396.375 122.904 395.999 123.28 395.519 123.568C395.055 123.856 394.535 124 393.959 124H386.039ZM406.966 124C406.39 124 405.87 123.856 405.406 123.568C404.942 123.28 404.566 122.904 404.278 122.44C403.99 121.976 403.846 121.456 403.846 120.88V113.2C403.846 112.624 403.99 112.104 404.278 111.64C404.566 111.176 404.942 110.8 405.406 110.512C405.87 110.224 406.39 110.08 406.966 110.08H414.886C415.462 110.08 415.982 110.224 416.446 110.512C416.926 110.784 417.302 111.16 417.574 111.64C417.862 112.12 418.006 112.64 418.006 113.2V118.336H406.438V120.808C406.438 120.968 406.494 121.112 406.606 121.24C406.734 121.352 406.878 121.408 407.038 121.408H418.006V124H406.966ZM406.438 115.912H415.39V113.272C415.39 113.112 415.334 112.976 415.222 112.864C415.11 112.736 414.974 112.672 414.814 112.672H407.038C406.878 112.672 406.734 112.736 406.606 112.864C406.494 112.976 406.438 113.112 406.438 113.272V115.912Z" fill="white"/>
</svg>
