<svg width="88" height="88" viewBox="0 0 88 88" fill="none" xmlns="http://www.w3.org/2000/svg">
<path d="M63.2427 27.0251H24.7592C21.6436 27.0251 19.118 29.5508 19.118 32.6663V47.0451C19.118 50.1607 21.6436 52.6863 24.7592 52.6863H63.2427C66.3582 52.6863 68.8838 50.1607 68.8838 47.0451V32.6663C68.8838 29.5508 66.3582 27.0251 63.2427 27.0251Z" stroke="white" stroke-width="2" stroke-linecap="round" stroke-linejoin="round"/>
<path d="M64.383 17.05C64.9442 17.05 65.4999 17.1606 66.0184 17.3753C66.5369 17.5901 67.008 17.9049 67.4048 18.3017C67.8017 18.6986 68.1164 19.1697 68.3312 19.6882C68.546 20.2066 68.6565 20.7623 68.6565 21.3235V22.1119C68.6565 23.9207 69.375 25.6554 70.654 26.9343C71.933 28.2133 73.6677 28.9319 75.4765 28.9319C76.6099 28.9319 77.6969 29.3821 78.4983 30.1836C79.2998 30.985 79.75 32.072 79.75 33.2054V46.3284C79.75 47.4615 79.3 48.5482 78.499 49.3496C77.6979 50.1509 76.6114 50.6014 75.4783 50.6019C73.6696 50.6019 71.9349 51.3204 70.6559 52.5994C69.3769 53.8784 68.6583 55.6131 68.6583 57.4219V58.2102C68.6583 58.7716 68.5477 59.3274 68.3329 59.846C68.118 60.3646 67.803 60.8358 67.406 61.2327C67.009 61.6295 66.5377 61.9443 66.019 62.1589C65.5003 62.3736 64.9444 62.484 64.383 62.4837H30.063L23.8425 70.0224C22.3263 71.8594 19.3435 70.7869 19.3435 68.4054V57.4237C19.3435 56.5281 19.1671 55.6413 18.8244 54.8138C18.4816 53.9864 17.9793 53.2345 17.346 52.6012C16.7127 51.968 15.9608 51.4656 15.1334 51.1229C14.306 50.7801 13.4191 50.6037 12.5235 50.6037C11.9621 50.6037 11.4063 50.4931 10.8877 50.2782C10.3691 50.0634 9.89789 49.7484 9.50103 49.3514C9.10418 48.9544 8.78943 48.483 8.57477 47.9643C8.36012 47.4456 8.24976 46.8897 8.25 46.3284V33.2054C8.25 32.0723 8.69999 30.9856 9.50103 30.1842C10.3021 29.3828 11.3886 28.9324 12.5217 28.9319C14.3304 28.9319 16.0651 28.2133 17.3441 26.9343C18.6231 25.6554 19.3417 23.9207 19.3417 22.1119V21.3235C19.3419 20.7623 19.4527 20.2067 19.6677 19.6883C19.8827 19.1699 20.1976 18.6989 20.5946 18.3023C20.9916 17.9056 21.4629 17.591 21.9815 17.3765C22.5 17.1619 23.0558 17.0516 23.617 17.0519L64.383 17.05Z" stroke="white" stroke-width="2" stroke-linecap="round" stroke-linejoin="round"/>
<path d="M28.7778 36.7949C28.7778 35.5906 29.2563 34.4355 30.1079 33.5839C30.9595 32.7322 32.1146 32.2538 33.319 32.2538C34.5234 32.2538 35.6785 32.7322 36.5301 33.5839C37.3817 34.4355 37.8602 35.5906 37.8602 36.7949V41.976C37.8602 43.1803 37.3817 44.3354 36.5301 45.187C35.6785 46.0387 34.5234 46.5171 33.319 46.5171C32.1146 46.5171 30.9595 46.0387 30.1079 45.187C29.2563 44.3354 28.7778 43.1803 28.7778 41.976V36.7949ZM50.1398 36.7949C50.1398 35.5906 50.6183 34.4355 51.4699 33.5839C52.3215 32.7322 53.4766 32.2538 54.681 32.2538C55.8854 32.2538 57.0405 32.7322 57.8921 33.5839C58.7437 34.4355 59.2222 35.5906 59.2222 36.7949V41.976C59.2222 43.1803 58.7437 44.3354 57.8921 45.187C57.0405 46.0387 55.8854 46.5171 54.681 46.5171C53.4766 46.5171 52.3215 46.0387 51.4699 45.187C50.6183 44.3354 50.1398 43.1803 50.1398 41.976V36.7949Z" stroke="white" stroke-width="2" stroke-linecap="round" stroke-linejoin="round"/>
</svg>
