<svg width="89" height="88" viewBox="0 0 89 88" fill="none" xmlns="http://www.w3.org/2000/svg">
<circle cx="44.5" cy="44" r="11" stroke="white" stroke-width="2" stroke-linejoin="round"/>
<circle cx="13.3333" cy="12.8334" r="5.5" stroke="white" stroke-width="2" stroke-linejoin="round"/>
<path d="M79.0188 38.8146C81.8826 41.6785 81.8826 46.3217 79.0188 49.1855C76.1549 52.0494 71.5117 52.0494 68.6479 49.1855C65.784 46.3217 65.784 41.6785 68.6479 38.8146C71.5117 35.9508 76.1549 35.9508 79.0188 38.8146Z" stroke="white" stroke-width="2" stroke-linecap="round" stroke-linejoin="round"/>
<circle cx="15.1667" cy="73.3333" r="7.33333" stroke="white" stroke-width="2" stroke-linejoin="round"/>
<path d="M52.085 16.5665C51.0368 12.6544 53.3584 8.63331 57.2705 7.58507C61.1826 6.53683 65.2037 8.85844 66.252 12.7705C67.3002 16.6826 64.9786 20.7037 61.0665 21.752C57.1544 22.8002 53.1333 20.4786 52.085 16.5665Z" stroke="white" stroke-width="2" stroke-linecap="round" stroke-linejoin="round"/>
<path d="M65.8709 44L55.5 44" stroke="white" stroke-width="2" stroke-linejoin="round"/>
<path d="M17.7448 17.2449L36.0781 35.5782" stroke="white" stroke-width="2" stroke-linejoin="round"/>
<path d="M37.1667 52.0209L20.6667 67.8334" stroke="white" stroke-width="2" stroke-linejoin="round"/>
<path d="M48.1667 33L55.4998 22" stroke="white" stroke-width="2" stroke-linejoin="round"/>
</svg>
