<svg width="610" height="388" viewBox="0 0 610 388" fill="none" xmlns="http://www.w3.org/2000/svg">
<path d="M318.903 385.969C159.653 386.256 30.3712 266.924 30.0617 119.514C29.7521 -27.8965 158.532 -147.693 317.782 -147.98C477.031 -148.267 606.313 -28.9352 606.623 118.475C606.932 265.886 478.153 385.682 318.903 385.969Z" stroke="#EBEBEB"/>
<path d="M366.58 386.751C207.33 387.038 78.0481 267.706 77.7386 120.296C77.429 -27.1148 206.209 -146.911 365.458 -147.198C524.708 -147.485 653.99 -28.1534 654.3 119.257C654.609 266.668 525.829 386.464 366.58 386.751Z" stroke="#EBEBEB"/>
<path d="M32.1512 146.958L25.3424 125.902L25.2755 125.695L25.0621 125.652L2.59482 121.188L24.6331 114.162L24.8424 114.096L24.8937 113.882L30.1044 92.1335L36.9132 113.19L36.9801 113.397L37.1936 113.439L59.6608 117.903L37.6225 124.929L37.4132 124.996L37.362 125.21L32.1512 146.958Z" fill="#A7F46A" stroke="white" stroke-width="0.76"/>
</svg>
