<svg width="800" height="153" viewBox="0 0 800 153" fill="none" xmlns="http://www.w3.org/2000/svg">
<circle cx="723.967" cy="76.0331" r="76.0331" fill="#A5FFBE"/>
<path d="M665.802 55.2419V52.2727H683.881V55.2419L678.665 55.8736C678.625 58.4848 678.585 61.1381 678.546 63.8335C678.546 66.4868 678.546 69.1611 678.546 71.8566V75.7101C678.546 77.9423 678.546 80.3429 678.546 82.912C678.585 85.481 678.625 88.0922 678.665 90.7455H690.638L692.298 82.0275H696.447L695.855 94.1569H665.802V91.1877L670.781 90.6191C670.86 87.9658 670.899 85.3547 670.899 82.7856C670.899 80.1744 670.899 77.6685 670.899 75.2679V71.8566C670.899 69.119 670.899 66.4236 670.899 63.7703C670.899 61.0749 670.86 58.4216 670.781 55.8104L665.802 55.2419Z" fill="#303B33"/>
<path d="M714.875 95.0413C712.187 95.0413 709.757 94.4096 707.584 93.1461C705.45 91.8826 703.75 90.0506 702.486 87.65C701.221 85.2494 700.589 82.3855 700.589 79.0584C700.589 75.6891 701.241 72.8042 702.545 70.4036C703.889 68.003 705.647 66.1709 707.821 64.9074C709.994 63.644 712.345 63.0122 714.875 63.0122C717.404 63.0122 719.755 63.644 721.928 64.9074C724.102 66.1709 725.86 68.003 727.204 70.4036C728.548 72.762 729.219 75.647 729.219 79.0584C729.219 82.4276 728.567 85.3125 727.263 87.7132C725.999 90.0716 724.28 91.8826 722.106 93.1461C719.972 94.4096 717.562 95.0413 714.875 95.0413ZM714.875 91.9458C717.009 91.9458 718.629 90.8929 719.735 88.7871C720.881 86.6813 721.454 83.4595 721.454 79.1215C721.454 70.4457 719.261 66.1077 714.875 66.1077C710.528 66.1077 708.354 70.4457 708.354 79.1215C708.354 83.4595 708.907 86.6813 710.014 88.7871C711.12 90.8929 712.741 91.9458 714.875 91.9458Z" fill="#303B33"/>
<path d="M748.102 95.0413C745.415 95.0413 742.984 94.4096 740.811 93.1461C738.677 91.8826 736.978 90.0506 735.713 87.65C734.448 85.2494 733.816 82.3855 733.816 79.0584C733.816 75.6891 734.468 72.8042 735.772 70.4036C737.116 68.003 738.874 66.1709 741.048 64.9074C743.221 63.644 745.573 63.0122 748.102 63.0122C750.631 63.0122 752.982 63.644 755.156 64.9074C757.329 66.1709 759.088 68.003 760.431 70.4036C761.775 72.762 762.447 75.647 762.447 79.0584C762.447 82.4276 761.795 85.3125 760.491 87.7132C759.226 90.0716 757.507 91.8826 755.334 93.1461C753.2 94.4096 750.789 95.0413 748.102 95.0413ZM748.102 91.9458C750.236 91.9458 751.856 90.8929 752.963 88.7871C754.109 86.6813 754.682 83.4595 754.682 79.1215C754.682 70.4457 752.488 66.1077 748.102 66.1077C743.755 66.1077 741.581 70.4457 741.581 79.1215C741.581 83.4595 742.135 86.6813 743.241 88.7871C744.348 90.8929 745.968 91.9458 748.102 91.9458Z" fill="#303B33"/>
<path d="M776.779 95.0413C774.408 95.0413 772.55 94.4096 771.207 93.1461C769.863 91.8826 769.191 89.8611 769.191 87.0814C769.191 86.1128 769.191 85.2073 769.191 84.3649C769.231 83.4805 769.251 82.4276 769.251 81.2063V67.7503H764.864V64.4652L769.666 63.8335L771.918 55.1787H776.719L776.482 63.8967H783.595V67.7503H776.423V86.3865C776.423 87.9448 776.7 89.0819 777.253 89.7979C777.846 90.5139 778.616 90.8718 779.565 90.8718C780.632 90.8718 781.837 90.3454 783.181 89.2925L784.603 90.8718C783.852 92.1774 782.825 93.2093 781.521 93.9673C780.217 94.6833 778.636 95.0413 776.779 95.0413Z" fill="#303B33"/>
<path d="M6.23823 150.097C4.45588 150.097 2.97059 149.806 1.78235 149.222C0.594118 148.785 0 147.983 0 146.816C0 145.504 0.519853 144.483 1.55956 143.754C2.74779 143.025 4.23309 142.368 6.01544 141.785C10.3228 140.618 14.036 138.868 17.1551 136.535C20.4228 134.056 23.0221 130.702 24.9529 126.473C28.6662 117.869 32.2309 109.629 35.6471 101.754C39.0632 93.7334 42.3309 85.7856 45.45 77.9106C48.5691 70.0357 51.6882 62.015 54.8073 53.8484C58.075 45.6818 61.3426 37.0777 64.6103 28.0362C66.2441 23.5154 67.3581 20.0154 67.9522 17.5363C68.5463 15.0571 69.0662 13.2342 69.5118 12.0676C71.7397 11.4843 73.8191 10.9009 75.75 10.3176C77.6809 9.73428 79.8345 9.00512 82.211 8.13012C84.2904 7.1093 86.0728 5.79681 87.5581 4.19266C89.0434 2.58851 90.1573 1.34895 90.9 0.473957C91.3456 0.182289 91.7912 0.0364573 92.2368 0.0364573C92.6824 -0.109373 93.1279 0.182289 93.5735 0.911447C94.0191 1.78644 94.3904 2.66144 94.6875 3.53643C94.9846 4.41142 95.2816 5.35932 95.5787 6.38015C98.8463 16.7342 102.188 27.2341 105.604 37.8798C109.169 48.3797 112.66 58.8067 116.076 69.1607C119.492 79.369 122.76 89.2126 125.879 98.6917C129.146 108.025 132.117 116.629 134.79 124.504C136.127 128.441 137.761 131.577 139.692 133.91C141.771 136.243 143.999 138.066 146.376 139.379C148.901 140.545 151.649 141.493 154.619 142.222C156.55 142.66 158.035 143.243 159.075 143.972C160.115 144.702 160.635 145.722 160.635 147.035C160.635 147.91 160.115 148.566 159.075 149.004C158.184 149.441 156.996 149.66 155.51 149.66C152.837 149.66 149.421 149.587 145.262 149.441C141.251 149.295 137.093 149.149 132.785 149.004C128.478 148.712 124.616 148.566 121.2 148.566C118.229 148.566 114.887 148.639 111.174 148.785C107.61 148.931 103.971 149.077 100.257 149.222C96.6926 149.368 93.6478 149.441 91.1228 149.441C89.6375 149.441 88.3007 149.222 87.1125 148.785C86.0728 148.202 85.5529 147.399 85.5529 146.379C85.5529 145.212 86.1471 144.264 87.3353 143.535C88.5235 142.66 89.9346 142.077 91.5684 141.785C96.9154 140.91 100.777 139.597 103.154 137.848C105.53 135.952 106.421 133.254 105.827 129.754C105.382 127.275 104.713 124.358 103.822 121.004C102.931 117.504 101.965 113.931 100.926 110.285C100.035 106.494 99.0691 103.067 98.0294 100.004C97.7323 98.8375 97.2868 98.0354 96.6926 97.5979C96.0985 97.0146 94.9846 96.7229 93.3507 96.7229H53.2478C52.2081 96.7229 51.3912 97.0875 50.7971 97.8167C50.2029 98.4 49.7573 99.3479 49.4603 100.66C48.8662 102.556 48.1235 104.744 47.2323 107.223C46.4897 109.556 45.6728 112.035 44.7816 114.66C44.039 117.139 43.2963 119.473 42.5537 121.66C41.9596 123.848 41.514 125.743 41.2169 127.348C40.4743 131.285 41.1426 134.42 43.2221 136.754C45.45 138.941 49.2375 140.691 54.5846 142.004C58.5948 143.025 60.6 144.556 60.6 146.597C60.6 147.472 60.0801 148.202 59.0404 148.785C58.1493 149.222 56.8125 149.441 55.0301 149.441C51.614 149.441 48.0493 149.295 44.336 149.004C40.6228 148.858 36.5382 148.785 32.0823 148.785C27.6265 148.785 23.2449 149.004 18.9375 149.441C14.7787 149.879 10.5456 150.097 6.23823 150.097ZM59.2632 86.6605H90.2316C92.311 86.6605 93.3507 86.2231 93.3507 85.3481C93.3507 84.9106 93.2765 84.546 93.1279 84.2543C93.1279 83.9627 93.0537 83.5252 92.9051 82.9418L77.3096 32.4111C76.7154 30.3695 76.1956 29.3487 75.75 29.3487C75.4529 29.3487 74.9331 30.2966 74.1904 32.1924L55.4757 82.9418C55.1787 83.671 55.0301 84.2543 55.0301 84.6918C55.0301 85.421 55.4015 85.9314 56.1441 86.2231C57.0353 86.5147 58.075 86.6605 59.2632 86.6605Z" fill="black"/>
<path d="M239.175 152.066C228.629 152.066 218.678 150.316 209.32 146.816C199.963 143.316 191.645 138.431 184.367 132.16C177.238 125.743 171.594 118.16 167.435 109.41C163.425 100.66 161.42 91.0355 161.42 80.5356C161.42 70.1816 163.425 60.4108 167.435 51.2234C171.594 42.036 177.386 33.9423 184.813 26.9424C192.239 19.7967 201.003 14.1821 211.103 10.0989C221.351 5.86973 232.639 3.75517 244.967 3.75517C247.789 3.75517 251.28 4.04683 255.439 4.63016C259.597 5.06766 263.905 5.65099 268.361 6.38015C272.817 7.10931 276.901 7.91138 280.614 8.78637C284.476 9.66136 287.447 10.5364 289.526 11.4113C290.566 11.8488 291.383 12.4322 291.977 13.1613C292.571 13.7446 292.942 14.6196 293.091 15.7863C293.833 20.5987 294.428 25.1924 294.873 29.5674C295.319 33.9424 295.542 37.734 295.542 40.9423C295.542 42.1089 295.17 43.1298 294.428 44.0047C293.833 44.8797 293.017 45.3172 291.977 45.3172C290.343 45.3172 289.155 44.8068 288.412 43.786C287.67 42.6193 287.001 41.3798 286.407 40.0673C285.219 37.4423 283.882 34.8903 282.397 32.4111C280.911 29.7862 279.055 27.307 276.827 24.9737C275.342 23.5154 273.262 21.9841 270.589 20.38C268.064 18.63 264.796 17.1717 260.786 16.005C256.775 14.8384 251.874 14.2551 246.081 14.2551C237.912 14.2551 230.56 15.9321 224.025 19.2863C217.489 22.4946 211.994 27.0153 207.538 32.8486C203.082 38.6819 199.666 45.3172 197.289 52.7547C194.913 60.0462 193.725 67.7024 193.725 75.7232C193.725 85.7856 194.913 94.9 197.289 103.067C199.666 111.087 203.008 118.014 207.315 123.848C211.622 129.535 216.747 133.91 222.688 136.973C228.629 140.035 235.313 141.566 242.739 141.566C248.086 141.566 252.245 140.837 255.216 139.379C258.335 137.775 260.563 136.389 261.9 135.223C263.534 133.91 264.87 131.941 265.91 129.316C266.95 126.691 267.544 123.629 267.692 120.129C267.692 118.816 267.692 117.139 267.692 115.098C267.841 113.056 267.915 111.014 267.915 108.973C268.064 106.931 268.138 105.254 268.138 103.942C268.138 102.337 267.841 100.952 267.247 99.7854C266.801 98.4729 265.836 97.4521 264.35 96.7229C263.014 95.7021 261.306 94.8271 259.226 94.098C257.147 93.223 254.993 92.6396 252.765 92.348C250.686 91.9105 248.978 91.6188 247.641 91.473C246.601 91.3272 245.487 90.8897 244.299 90.1605C243.111 89.2855 242.517 88.2647 242.517 87.098C242.517 85.9314 243.036 85.0564 244.076 84.4731C245.264 83.8897 246.304 83.5981 247.195 83.5981C250.611 83.5981 254.102 83.671 257.667 83.8168C261.38 83.9627 265.019 84.1085 268.584 84.2543C272.297 84.4002 275.861 84.4731 279.278 84.4731C283.436 84.4731 287.521 84.3272 291.531 84.0356C295.69 83.7439 299.923 83.5981 304.231 83.5981C305.122 83.5981 306.013 83.8897 306.904 84.4731C307.944 84.9106 308.464 85.7856 308.464 87.098C308.464 88.2647 307.944 89.2126 306.904 89.9418C305.864 90.6709 304.899 91.1084 304.008 91.2543C299.997 92.2751 297.25 93.5876 295.764 95.1917C294.428 96.7959 293.536 99.0563 293.091 101.973C292.497 105.181 292.051 108.025 291.754 110.504C291.606 112.983 291.531 115.608 291.531 118.379V125.16C291.531 125.889 291.754 126.546 292.2 127.129C292.794 127.712 293.388 128.368 293.982 129.098C294.576 129.827 295.096 130.556 295.542 131.285C296.136 132.014 296.433 132.743 296.433 133.473C296.433 134.348 296.136 135.295 295.542 136.316C295.096 137.191 294.056 137.775 292.422 138.066C291.383 138.212 289.378 139.014 286.407 140.472C283.436 141.931 279.649 143.608 275.045 145.504C270.589 147.254 265.316 148.785 259.226 150.097C253.285 151.41 246.601 152.066 239.175 152.066Z" fill="black"/>
<path d="M324.879 150.097C323.245 150.097 321.983 149.733 321.092 149.004C320.2 148.42 319.755 147.764 319.755 147.035C319.755 145.868 320.275 144.993 321.314 144.41C322.354 143.681 323.394 143.17 324.433 142.879C329.781 141.566 333.717 139.962 336.242 138.066C338.767 136.025 340.029 132.743 340.029 128.223V27.5987C340.029 24.2445 339.583 21.6925 338.692 19.9425C337.95 18.1925 336.539 16.88 334.459 16.005C332.528 14.9842 329.632 14.1092 325.77 13.3801C321.908 12.6509 319.978 11.1197 319.978 8.78637C319.978 7.91138 320.497 7.25513 321.537 6.81763C322.577 6.23431 323.765 5.94264 325.102 5.94264C328.815 5.94264 332.306 6.01556 335.573 6.16139C338.989 6.30723 342.257 6.45306 345.376 6.59889C348.495 6.74472 351.614 6.81763 354.733 6.81763C358.15 6.81763 361.566 6.74472 364.982 6.59889C368.547 6.45306 372.111 6.30723 375.676 6.16139C379.389 6.01556 382.954 5.94264 386.37 5.94264C387.856 5.94264 389.044 6.23431 389.935 6.81763C390.826 7.25513 391.272 7.98429 391.272 9.00511C391.272 10.1718 390.752 11.1197 389.712 11.8488C388.821 12.4322 387.484 12.9426 385.702 13.3801C379.909 14.8384 375.602 16.4425 372.78 18.1925C370.106 19.7967 368.77 22.7133 368.77 26.9424V126.91C368.77 131.139 369.735 134.275 371.666 136.316C373.597 138.212 377.236 139.16 382.583 139.16H406.867C410.283 139.16 413.403 138.577 416.225 137.41C419.047 136.243 421.349 134.785 423.131 133.035C425.805 130.702 428.033 128.223 429.815 125.598C431.597 122.973 433.306 119.91 434.939 116.41C435.979 114.223 436.945 112.546 437.836 111.379C438.727 110.212 439.618 109.629 440.509 109.629C441.549 109.629 442.292 110.139 442.737 111.16C443.183 112.035 443.406 112.983 443.406 114.004C443.406 114.15 443.331 114.587 443.183 115.316C443.034 116.046 442.96 116.629 442.96 117.066C441.772 121.296 440.732 124.941 439.841 128.004C439.098 131.066 438.43 134.056 437.836 136.973C437.39 139.743 436.945 142.806 436.499 146.16C436.35 147.181 436.053 148.129 435.608 149.004C435.162 149.733 434.271 150.097 432.934 150.097C428.478 150.097 423.131 150.024 416.893 149.879C410.655 149.733 404.045 149.587 397.064 149.441C390.083 149.441 383.028 149.368 375.899 149.222C368.918 149.077 362.308 149.004 356.07 149.004C352.803 149.004 349.015 149.077 344.708 149.222C340.549 149.368 336.613 149.514 332.9 149.66C329.186 149.952 326.513 150.097 324.879 150.097Z" fill="black"/>
<path d="M529.395 150.535C525.385 150.535 520.558 150.389 514.914 150.097C509.27 149.806 503.551 149.514 497.759 149.222C492.114 149.077 487.436 149.004 483.723 149.004C480.752 149.004 477.707 149.004 474.588 149.004C471.617 149.149 468.498 149.295 465.231 149.441C461.963 149.733 458.473 149.879 454.759 149.879C453.423 149.879 452.234 149.587 451.195 149.004C450.155 148.566 449.635 147.837 449.635 146.816C449.635 145.504 450.081 144.556 450.972 143.972C452.012 143.389 453.497 142.952 455.428 142.66C461.072 141.493 464.934 139.889 467.013 137.848C469.092 135.806 470.132 132.379 470.132 127.566V28.6924C470.132 23.7341 469.092 20.2342 467.013 18.1925C465.082 16.1509 461.22 14.5467 455.428 13.3801C453.497 13.0884 452.012 12.6509 450.972 12.0676C450.081 11.3384 449.635 10.3176 449.635 9.00511C449.635 7.98429 450.155 7.25513 451.195 6.81763C452.234 6.23431 453.423 5.94264 454.759 5.94264C458.324 5.94264 461.74 6.01556 465.008 6.16139C468.275 6.16139 471.469 6.30722 474.588 6.59889C477.856 6.74472 481.123 6.81763 484.391 6.81763C486.619 6.81763 489.589 6.74472 493.303 6.59889C497.164 6.30722 501.249 6.08847 505.556 5.94264C510.012 5.65098 514.171 5.43224 518.033 5.28641C521.895 4.99474 525.014 4.84891 527.39 4.84891C539.867 4.84891 551.081 6.59889 561.032 10.0989C570.984 13.5988 579.45 18.4842 586.431 24.7549C593.56 31.0257 598.981 38.4631 602.695 47.0672C606.408 55.6713 608.264 65.0045 608.264 75.0669C608.264 85.1293 606.408 94.6813 602.695 103.723C598.981 112.764 593.634 120.785 586.653 127.785C579.821 134.785 571.503 140.327 561.701 144.41C552.046 148.493 541.278 150.535 529.395 150.535ZM526.053 140.472C536.748 140.472 545.808 137.993 553.234 133.035C560.809 127.931 566.528 120.858 570.389 111.817C574.251 102.629 576.182 92.0563 576.182 80.0981C576.182 70.1816 574.845 61.2129 572.172 53.1922C569.647 45.0256 566.008 38.1715 561.255 32.6299C556.65 26.9424 551.081 22.5675 544.545 19.505C538.159 16.4425 531.178 14.9113 523.603 14.9113C518.256 14.9113 513.725 15.0571 510.012 15.3488C506.448 15.6405 503.7 16.5155 501.769 17.9738C499.987 19.2863 499.095 21.5466 499.095 24.7549V121.004C499.095 126.108 500.209 130.118 502.437 133.035C504.814 135.806 508.007 137.775 512.017 138.941C516.176 139.962 520.855 140.472 526.053 140.472Z" fill="black"/>
</svg>
