<svg focusable="false" aria-hidden="true" viewBox="0 0 253 44" height="44" width="253" xmlns="http://www.w3.org/2000/svg">
<path d="M24.3411 43.5704C24.6658 43.5704 24.9781 43.508 25.2779 43.3831C25.5776 43.2582 25.8524 43.0833 26.0773 42.846L45.2754 23.6478C45.5003 23.423 45.6876 23.1482 45.8125 22.8484C45.9374 22.5486 45.9999 22.2364 45.9999 21.9116C45.9999 21.5869 45.9374 21.2746 45.8125 20.9748C45.6876 20.675 45.5127 20.4002 45.2754 20.1754L26.0773 0.977266C25.8524 0.752434 25.5776 0.565074 25.2779 0.440168C24.9781 0.315261 24.6658 0.252808 24.3411 0.252808V43.5704Z" fill="#6667AB"></path>
<path d="M21.6557 35.489C21.0312 35.489 20.3941 35.3391 19.9195 35.0393L0.721336 23.0108C-0.240445 22.4112 -0.240445 21.437 0.721336 20.8374L19.9195 8.7964C20.3941 8.49663 21.0312 8.34674 21.6557 8.34674V35.489Z" fill="#6667AB" opacity="0.5"></path>
<path d="M21.6557 27.3701C21.0312 27.3701 20.3941 27.2202 19.9195 26.9204L0.721336 14.8919C-0.240445 14.2923 -0.240445 13.3181 0.721336 12.7185L19.9195 0.677508C20.3941 0.377732 21.0312 0.227844 21.6557 0.227844V27.3701Z" fill="#6667AB" opacity="0.5"></path>
<path d="M21.6557 43.608C21.0312 43.608 20.3941 43.4581 19.9195 43.1583L0.721336 31.1173C-0.240445 30.5177 -0.240445 29.5435 0.721336 28.9439L19.9195 16.9029C20.3941 16.6031 21.0312 16.4532 21.6557 16.4532V43.5955V43.608Z" fill="#6667AB" opacity="0.5"></path>
<path d="M53.482 36.738L64.7985 7.09763H72.805L84.1216 36.738H76.3898L73.7168 30.018H63.8242L61.2012 36.738H53.4695H53.482ZM64.8485 24.5471H72.7176L68.7581 14.2423L64.8485 24.5471Z" fill="#6667AB" opacity="0.5"></path>
<path d="M86.7196 36.7381V7.09775H94.1266V31.0299H108.116V36.7381H86.7196Z" fill="#6667AB" opacity="0.5"></path>
<path d="M147.149 36.7381L158.466 7.09775H166.473L177.789 36.7381H170.057L167.384 30.0181H157.492L154.869 36.7381H147.137H147.149ZM158.516 24.5472H166.385L162.426 14.2424L158.516 24.5472Z" fill="#6667AB"></path>
<path d="M182.898 36.7381V25.8337L172.268 7.09775H180L186.62 19.3886L193.253 7.09775H200.984L190.355 25.8337V36.7381H182.898Z" fill="#6667AB"></path>
<path d="M203.47 36.7381V7.09775H225.329V12.806H210.877V19.0263H223.617V24.822H210.877V31.0299H225.329V36.7381H203.47Z" fill="#6667AB"></path>
<path d="M227.827 36.7381V7.09775H242.641C246.138 7.09775 248.711 8.02206 250.372 9.85818C252.034 11.6943 252.858 14.1675 252.858 17.2651C252.858 19.2637 252.358 21.0123 251.334 22.5112C250.322 24.0101 248.936 25.1343 247.187 25.8712C247.599 26.1835 247.949 26.5707 248.224 26.9954C248.549 27.545 248.836 28.1195 249.073 28.7191L252.571 36.7256H244.839L241.529 29.1812C241.254 28.5442 240.904 28.0696 240.467 27.7823C240.043 27.495 239.418 27.3451 238.631 27.3451H235.221V36.7381H227.814H227.827ZM235.234 21.6369H240.705C242.141 21.6369 243.278 21.2747 244.09 20.5502C244.901 19.8257 245.314 18.7266 245.314 17.2651C245.314 14.2924 243.89 12.806 241.029 12.806H235.234V21.6369Z" fill="#6667AB"></path>
<path d="M144.626 31.0298H130.637V7.09773H130.574V7.08524H123.167V36.7506H130.574V36.7381H144.626V31.0298Z" fill="#6667AB"></path>
<path d="M104.344 12.806H113.187V36.7381H120.482V7.09775H104.344V12.806Z" fill="#6667AB" opacity="0.5"></path>
</svg>