<svg width="2000" height="316" viewBox="0 0 2000 316" fill="none" xmlns="http://www.w3.org/2000/svg">
<g clip-path="url(#clip0_3687_4887)">
<path d="M0 313.941V0H150.484C192.494 0 224.688 2.67395 247.074 8.02208C269.46 13.3702 290.864 23.2841 311.295 37.7558C331.725 52.2195 347.28 69.7804 357.958 90.4145C368.628 111.064 373.967 133.997 373.967 159.237C373.967 180.358 369.322 200.449 360.025 219.511C350.727 238.58 337.695 255.207 320.935 269.4C304.176 283.592 286.036 293.817 266.531 300.052C247.018 306.294 228.703 310.173 211.608 311.674C194.497 313.19 165.863 313.941 125.688 313.941H0ZM161.505 119.733H158.057V192.148H162.192C181.473 192.148 195.471 189.234 204.202 183.407C212.925 177.58 217.29 168.289 217.29 155.533C217.29 142.913 212.925 133.798 204.202 128.17C195.471 122.543 181.241 119.733 161.505 119.733Z" fill="#231815"/>
<path d="M543.046 260.452L522.735 313.941H362.61L490.365 0H715.915L837.126 313.941H678.725L658.063 260.452H543.046ZM571.281 186.8H629.828L600.898 110.067L571.281 186.8Z" fill="#231815"/>
<path d="M870.868 313.941V0H1028.93C1083.79 0 1120.53 1.10154 1139.12 3.28875C1157.72 5.49183 1173.9 10.4647 1187.68 18.2075C1201.44 25.9582 1212.52 36.5186 1220.9 49.8888C1229.28 63.259 1233.47 77.4275 1233.47 92.3702C1233.47 123.916 1220.04 147.647 1193.18 163.556C1231.98 201.958 1255.05 252.086 1262.4 313.941H1098.14V311.059C1098.14 274.165 1092.28 246.052 1080.58 226.711C1068.87 207.37 1052.34 197.704 1030.99 197.704H1028.93V313.941H870.868ZM1031.68 64.6002H1028.93V125.081H1033.06C1048.44 125.081 1059.57 122.615 1066.46 117.674C1073.35 112.741 1076.79 104.854 1076.79 94.0145C1076.79 74.4103 1061.75 64.6002 1031.68 64.6002Z" fill="#231815"/>
<path d="M1458.33 235.148H1596.77V313.941H1300.28V0H1596.77V78.7926H1458.33V117.674H1555.1V196.474H1458.33V235.148Z" fill="#231815"/>
<path d="M1803.03 218.689V313.94H1644.97V0H1757.92L1841.94 104.918V0H2000V316H1879.82L1803.03 218.689Z" fill="#231815"/>
<path d="M468.93 98.7815C468.93 98.7815 649.83 6.80785 732.18 160.069C732.18 160.069 517.039 267.271 468.93 98.7815Z" fill="#F0C623"/>
<path d="M599.869 168.812C606.157 168.812 611.255 154.184 611.255 136.14C611.255 118.096 606.157 103.469 599.869 103.469C593.581 103.469 588.483 118.096 588.483 136.14C588.483 154.184 593.581 168.812 599.869 168.812Z" fill="#231815"/>
<path d="M1183.08 62.5178C1183.08 62.5178 1002.18 -29.4558 919.826 123.806C919.826 123.806 1134.97 231.008 1183.08 62.5178Z" fill="#F08619" stroke="#231815" stroke-width="3" stroke-miterlimit="10"/>
<path d="M1052.86 127.512C1059.15 127.512 1064.25 112.885 1064.25 94.8407C1064.25 76.7967 1059.15 62.1691 1052.86 62.1691C1046.57 62.1691 1041.47 76.7967 1041.47 94.8407C1041.47 112.885 1046.57 127.512 1052.86 127.512Z" fill="#231815"/>
</g>
<defs>
<clipPath id="clip0_3687_4887">
<rect width="2000" height="316" fill="white"/>
</clipPath>
</defs>
</svg>
