<svg width="176" height="56" viewBox="0 0 176 56" fill="none" xmlns="http://www.w3.org/2000/svg">
<g clip-path="url(#clip0_906_2459)">
<path d="M148.164 0H27.8357C12.4624 0 0 12.4927 0 27.9032C0 43.3137 12.4624 55.8064 27.8357 55.8064H148.164C163.538 55.8064 176 43.3137 176 27.9032C176 12.4927 163.538 0 148.164 0Z" fill="#575643"/>
<mask id="mask0_906_2459" style="mask-type:alpha" maskUnits="userSpaceOnUse" x="9" y="8" width="146" height="40">
<path d="M9.19336 8.67215H154.561V47.5982H9.19336V8.67215Z" fill="white"/>
</mask>
<g mask="url(#mask0_906_2459)">
<path fill-rule="evenodd" clip-rule="evenodd" d="M47.2165 27.7225C47.2165 38.2437 38.6966 46.7737 28.1868 46.7737C17.6779 46.7737 9.15625 38.2437 9.15625 27.7225C9.15625 17.2016 17.6779 8.67215 28.1868 8.67215C38.6966 8.67215 47.2165 17.2016 47.2165 27.7225Z" fill="#B2BC44"/>
<path fill-rule="evenodd" clip-rule="evenodd" d="M19.028 36.7735H24.74V25.3428H19.028V36.7735Z" fill="#FFFFFE"/>
<path fill-rule="evenodd" clip-rule="evenodd" d="M33.1024 26.0129C32.9709 25.7521 32.8925 25.4611 32.8925 25.1496C32.8925 24.7663 33.0059 24.4113 33.2 24.1131L37.344 17.7225H31.293L26.9494 24.421C26.7552 24.7192 26.6418 25.0748 26.6418 25.4575C26.6418 25.7696 26.7208 26.0612 26.8529 26.3202L32.1682 36.7716H38.5763L33.1024 26.0129Z" fill="#FFFFFE"/>
<path fill-rule="evenodd" clip-rule="evenodd" d="M25.2152 20.581C25.2152 22.4217 23.7257 23.914 21.8852 23.914C20.0453 23.914 18.554 22.4217 18.554 20.581C18.554 18.7404 20.0453 17.2469 21.8852 17.2469C23.7257 17.2469 25.2152 18.7404 25.2152 20.581Z" fill="#FFFFFE"/>
<path fill-rule="evenodd" clip-rule="evenodd" d="M54.0697 38.0594H59.9097V16.9717H54.0697V38.0594Z" fill="white"/>
<path fill-rule="evenodd" clip-rule="evenodd" d="M74.356 38.0594L68.0938 26.0402L74.084 16.9717H67.1633L61.3138 26.2105L67.3418 38.0594H74.356Z" fill="white"/>
<path fill-rule="evenodd" clip-rule="evenodd" d="M133.853 38.0594H139.69V16.9717H133.853V38.0594Z" fill="white"/>
<path fill-rule="evenodd" clip-rule="evenodd" d="M154.135 38.0594L147.872 26.0402L153.864 16.9717H146.943L141.096 26.2105L147.121 38.0594H154.135Z" fill="white"/>
<path fill-rule="evenodd" clip-rule="evenodd" d="M77.0326 38.0594H82.8997V16.9717H77.0326V38.0594Z" fill="white"/>
<path fill-rule="evenodd" clip-rule="evenodd" d="M98.2185 38.4802C104.719 38.4802 109.595 33.571 109.595 27.5162V27.455C109.595 21.399 104.78 16.5502 98.2757 16.5502C91.7786 16.5502 86.903 21.46 86.903 27.5162V27.5771C86.903 33.6313 91.7176 38.4802 98.2185 38.4802ZM98.2757 33.2089C95.0887 33.2089 92.8913 30.5581 92.8913 27.5162V27.455C92.8913 24.412 95.0277 21.8216 98.2185 21.8216C101.437 21.8216 103.632 24.4729 103.632 27.5162V27.5771C103.632 30.6185 101.498 33.2089 98.2757 33.2089Z" fill="white"/>
<path d="M24.2936 36.9204H18.5692V25.441H24.2936V36.9204Z" fill="white"/>
<path d="M32.6741 26.1141C32.5423 25.8524 32.4634 25.56 32.4634 25.2474C32.4634 24.8625 32.5773 24.5056 32.7718 24.2065L36.9247 17.7885H30.8613L26.5081 24.5155C26.3133 24.8152 26.1996 25.1723 26.1996 25.5564C26.1996 25.8697 26.2791 26.1626 26.4113 26.4227L31.7377 36.9193H38.1597L32.6741 26.1141Z" fill="white"/>
<path d="M24.7697 20.6588C24.7697 22.5072 23.2766 24.0063 21.4325 24.0063C19.5891 24.0063 18.0945 22.5072 18.0945 20.6588C18.0945 18.8104 19.5891 17.3108 21.4325 17.3108C23.2766 17.3108 24.7697 18.8104 24.7697 20.6588Z" fill="white"/>
</g>
<path fill-rule="evenodd" clip-rule="evenodd" d="M111.762 34.9258L115.015 31.0393C117.092 32.6956 119.408 33.571 121.844 33.571C123.409 33.571 124.251 33.0284 124.251 32.1234V32.0625C124.251 31.1912 123.56 30.7084 120.701 30.0462C116.217 29.0211 112.755 27.7565 112.755 23.4171V23.3586C112.755 19.4419 115.857 16.6106 120.913 16.6106C124.492 16.6106 127.29 17.5747 129.577 19.4123L126.658 23.5391C124.734 22.1826 122.628 21.46 120.758 21.46C119.346 21.46 118.656 22.0631 118.656 22.8165V22.8756C118.656 23.8397 119.375 24.2629 122.296 24.9251C127.139 25.9786 130.151 27.545 130.151 31.4914V31.5522C130.151 35.8585 126.75 38.4204 121.634 38.4204C117.902 38.4204 114.353 37.2458 111.762 34.9258Z" fill="white"/>
<path fill-rule="evenodd" clip-rule="evenodd" d="M157.761 18.3643C157.761 18.3263 157.753 18.2919 157.739 18.2605C157.722 18.2285 157.696 18.2031 157.66 18.1832C157.628 18.1651 157.591 18.153 157.55 18.1476C157.51 18.1421 157.458 18.1391 157.394 18.1391H157.26V18.651H157.363C157.427 18.651 157.488 18.6456 157.542 18.6348C157.597 18.6245 157.64 18.6064 157.67 18.581C157.702 18.5587 157.724 18.5297 157.739 18.4947C157.753 18.4597 157.761 18.4162 157.761 18.3643ZM158.51 19.6387H157.961L157.434 18.9764H157.26V19.6387H156.831V17.8252H157.492C157.614 17.8252 157.712 17.8306 157.787 17.8403C157.862 17.85 157.935 17.8753 158.008 17.9164C158.089 17.9641 158.148 18.0202 158.185 18.0848C158.221 18.15 158.24 18.2321 158.24 18.3317C158.24 18.4669 158.203 18.5768 158.13 18.6607C158.059 18.7452 157.965 18.8116 157.851 18.8593L158.51 19.6387ZM158.944 18.776C158.944 18.3836 158.805 18.0474 158.528 17.7661C158.251 17.4847 157.917 17.3447 157.526 17.3447C157.134 17.3447 156.8 17.4847 156.523 17.7661C156.246 18.0474 156.107 18.3836 156.107 18.776C156.107 19.1678 156.246 19.5047 156.523 19.7854C156.8 20.0667 157.134 20.2074 157.526 20.2074C157.917 20.2074 158.251 20.0667 158.528 19.7854C158.805 19.5047 158.944 19.1678 158.944 18.776ZM159.347 18.776C159.347 19.2789 159.169 19.7087 158.813 20.0643C158.457 20.4205 158.028 20.5985 157.526 20.5985C157.023 20.5985 156.594 20.4205 156.238 20.0643C155.882 19.7087 155.704 19.2789 155.704 18.776C155.704 18.2732 155.882 17.8433 156.238 17.4871C156.594 17.131 157.023 16.9529 157.526 16.9529C158.028 16.9529 158.457 17.131 158.813 17.4871C159.169 17.8433 159.347 18.2732 159.347 18.776Z" fill="white"/>
<path d="M74.4067 47.7031L75.4099 42.0227H76.2595L75.2564 47.7031H74.4067Z" fill="white"/>
<path d="M80.66 45.2198L80.2226 47.7031H79.3898L79.802 45.3247C79.8261 45.1784 79.8424 45.0336 79.8424 44.9107C79.8424 44.3751 79.6479 44.1245 79.1547 44.1245C78.6375 44.1245 78.2332 44.5301 78.0867 45.3323L77.674 47.7031H76.8414L77.5937 43.4414H78.4265L78.3617 43.8073C78.5968 43.5645 78.9279 43.3525 79.4134 43.3525C80.2473 43.3525 80.7161 43.8073 80.7161 44.6758C80.7161 44.8373 80.692 45.0335 80.66 45.2198Z" fill="white"/>
<path d="M84.3883 42.6466C84.2831 42.5903 84.1218 42.542 83.9273 42.542C83.6282 42.542 83.523 42.6798 83.4668 42.9883L83.3852 43.4412H84.1375L84.0003 44.2214H83.2475L82.6327 47.7029H81.7993L82.4146 44.2214H81.8652L82.0024 43.4412H82.5524L82.6489 42.8975C82.7783 42.0948 83.1748 41.8107 83.8384 41.8107C84.1375 41.8107 84.3642 41.8757 84.5098 41.9488L84.3883 42.6466Z" fill="white"/>
<path d="M88.4171 45.4473C88.5218 44.2294 87.8267 43.3525 86.7016 43.3525C85.6903 43.3525 84.6878 44.2452 84.5912 45.7066C84.4939 46.9245 85.1889 47.7917 86.2894 47.7917C87.3239 47.7917 88.3206 46.9079 88.4171 45.4473ZM87.5837 45.4141C87.5349 46.3069 87.0338 46.9971 86.3631 46.9971C85.7147 46.9971 85.3842 46.4781 85.4324 45.7384C85.4813 44.8136 85.9745 44.1481 86.6289 44.1481C87.2998 44.1481 87.6323 44.6758 87.5837 45.4141Z" fill="white"/>
<path d="M92.122 44.3993C91.9926 44.2939 91.7908 44.1968 91.5237 44.1968C91.0136 44.1968 90.6334 44.4733 90.4799 45.3734L90.0751 47.7031H89.2417L89.994 43.4414H90.8281L90.7544 43.8315C90.9979 43.5479 91.3458 43.3525 91.7496 43.3525C92.0891 43.3525 92.3243 43.459 92.4693 43.5881L92.122 44.3993Z" fill="white"/>
<path d="M98.9567 45.2434L98.5283 47.7031H97.6949L98.1155 45.3247C98.1397 45.1714 98.1638 44.9759 98.1638 44.8539C98.1638 44.3751 97.962 44.14 97.5002 44.14C96.9915 44.14 96.6264 44.5467 96.4898 45.3323L96.077 47.7031H95.2431L95.6564 45.3247C95.6805 45.1714 95.7125 44.9841 95.7125 44.8539C95.7125 44.3751 95.5029 44.1245 95.0414 44.1245C94.5318 44.1245 94.1757 44.5543 94.0385 45.3323L93.6258 47.7031H92.7919L93.5371 43.4414H94.371L94.3064 43.8238C94.5402 43.5645 94.8399 43.3525 95.3174 43.3525C95.8753 43.3525 96.2064 43.5811 96.4011 43.9943C96.7322 43.6374 97.1365 43.3525 97.7687 43.3525C98.5524 43.3525 99.0213 43.8238 99.0213 44.6513C99.0213 44.8215 98.9972 45.0493 98.9567 45.2434Z" fill="white"/>
<path d="M103.681 44.5225C103.681 43.7102 103.089 43.3525 102.177 43.3525C101.658 43.3525 101.124 43.5158 100.761 43.7018L100.995 44.3673C101.319 44.205 101.683 44.0998 102.078 44.0998C102.612 44.0998 102.856 44.2536 102.856 44.6195C102.856 44.6834 102.848 44.7805 102.832 44.8623L102.775 45.1714C102.557 45.0575 102.135 44.9604 101.724 44.9604C100.841 44.9604 100.016 45.4057 99.9434 46.4134C99.8623 47.3287 100.502 47.7917 101.278 47.7917C101.764 47.7917 102.135 47.581 102.403 47.3211L102.338 47.7028H103.154L103.648 44.8702C103.665 44.7487 103.681 44.6356 103.681 44.5225ZM102.66 45.8605L102.539 46.5507C102.305 46.8179 101.917 47.0702 101.489 47.0702C100.963 47.0702 100.728 46.7853 100.753 46.4039C100.777 45.9168 101.148 45.6496 101.683 45.6496C102.111 45.6496 102.434 45.7384 102.66 45.8605Z" fill="white"/>
<path d="M107.208 44.2051H106.206L105.808 46.4858C105.792 46.5669 105.784 46.6479 105.784 46.7126C105.784 46.9322 105.922 47.0211 106.165 47.0211C106.423 47.0211 106.585 46.9567 106.771 46.8338L106.528 47.6295C106.318 47.7434 106.058 47.7918 105.856 47.7918C105.243 47.7918 104.926 47.4756 104.926 46.9404C104.926 46.8504 104.943 46.7533 104.959 46.6479L105.388 44.2051H104.781L104.918 43.4415H105.525L105.736 42.2413L106.634 41.7867L106.342 43.4415H107.346L107.208 44.2051Z" fill="white"/>
<path d="M108.818 47.7029H107.984L108.729 43.4412H109.561L108.818 47.7029ZM109.319 42.8899C109.028 42.8899 108.793 42.6466 108.793 42.3541C108.793 42.0545 109.028 41.8107 109.319 41.8107C109.602 41.8107 109.837 42.0545 109.837 42.3541C109.837 42.6466 109.602 42.8899 109.319 42.8899Z" fill="white"/>
<path d="M114.245 45.4473C114.35 44.2294 113.656 43.3525 112.53 43.3525C111.519 43.3525 110.516 44.2452 110.419 45.7066C110.322 46.9245 111.017 47.7917 112.119 47.7917C113.154 47.7917 114.149 46.9079 114.245 45.4473ZM113.412 45.4141C113.363 46.3069 112.861 46.9971 112.191 46.9971C111.543 46.9971 111.212 46.4781 111.261 45.7384C111.309 44.8136 111.802 44.1481 112.457 44.1481C113.13 44.1481 113.46 44.6758 113.412 45.4141Z" fill="white"/>
<path d="M118.88 45.2198L118.443 47.7031H117.611L118.023 45.3247C118.048 45.1784 118.064 45.0336 118.064 44.9107C118.064 44.3751 117.869 44.1245 117.376 44.1245C116.858 44.1245 116.453 44.5301 116.308 45.3323L115.895 47.7031H115.063L115.814 43.4414H116.648L116.583 43.8073C116.817 43.5645 117.15 43.3525 117.635 43.3525C118.467 43.3525 118.936 43.8073 118.936 44.6758C118.936 44.8373 118.913 45.0335 118.88 45.2198Z" fill="white"/>
<path d="M126.152 43.3935C125.82 43.0208 125.424 42.7446 124.768 42.7446C124.138 42.7446 123.83 43.0774 123.806 43.4495C123.782 43.8315 123.976 44.0429 124.923 44.4075C125.86 44.7729 126.517 45.2198 126.428 46.2098C126.338 47.1993 125.505 47.7917 124.348 47.7917C123.288 47.7917 122.576 47.2967 122.212 46.7532L122.892 46.2014C123.296 46.7209 123.814 46.9723 124.462 46.9723C125.052 46.9723 125.537 46.6798 125.562 46.1612C125.578 45.7303 125.302 45.4715 124.372 45.114C123.385 44.7326 122.876 44.3349 122.956 43.4093C123.038 42.4774 123.838 41.9326 124.906 41.9326C125.812 41.9326 126.403 42.2974 126.824 42.809L126.152 43.3935Z" fill="white"/>
<path d="M134.814 44.5301C134.492 44.2784 134.087 44.0913 133.618 44.0913C133.262 44.0913 133.044 44.237 133.036 44.4893C133.019 44.7326 133.117 44.8457 133.82 45.1714C134.564 45.5123 134.993 45.8197 134.929 46.526C134.855 47.484 134.071 47.7917 133.351 47.7917C132.615 47.7917 132.017 47.5087 131.644 47.1588L132.089 46.5426C132.445 46.8421 132.865 47.0539 133.425 47.0539C133.836 47.0539 134.104 46.8748 134.111 46.5668C134.128 46.3229 133.99 46.1612 133.391 45.9089C132.55 45.5443 132.153 45.2434 132.219 44.5385C132.283 43.7262 132.889 43.3525 133.691 43.3525C134.385 43.3525 134.904 43.6047 135.243 43.8641L134.814 44.5301Z" fill="white"/>
<path d="M138.577 44.2051H137.574L137.177 46.4858C137.161 46.5669 137.153 46.6479 137.153 46.7126C137.153 46.9322 137.29 47.0211 137.533 47.0211C137.791 47.0211 137.954 46.9567 138.14 46.8338L137.898 47.6295C137.686 47.7434 137.428 47.7918 137.226 47.7918C136.611 47.7918 136.296 47.4756 136.296 46.9404C136.296 46.8504 136.311 46.7533 136.327 46.6479L136.756 44.2051H136.15L136.287 43.4415H136.894L137.105 42.2413L138.002 41.7867L137.711 43.4415H138.714L138.577 44.2051Z" fill="white"/>
<path d="M142.887 45.0738C142.887 44.0837 142.369 43.3525 141.35 43.3525C140.275 43.3525 139.393 44.2536 139.288 45.7142C139.183 46.9723 139.853 47.7917 140.954 47.7917C141.496 47.7917 141.948 47.6212 142.385 47.2885L142.022 46.7046C141.707 46.899 141.415 47.0373 141.068 47.0373C140.444 47.0373 140.024 46.5994 140.089 45.8605H142.782C142.846 45.6248 142.887 45.3489 142.887 45.0738ZM142.095 45.1866H140.194C140.347 44.5627 140.696 44.1079 141.261 44.1079C141.892 44.1079 142.152 44.5709 142.095 45.1866Z" fill="white"/>
<path d="M149.934 45.2434L149.505 47.7031H148.671L149.092 45.3247C149.116 45.1714 149.141 44.9759 149.141 44.8539C149.141 44.3751 148.939 44.14 148.478 44.14C147.968 44.14 147.604 44.5467 147.467 45.3323L147.054 47.7031H146.22L146.633 45.3247C146.657 45.1714 146.69 44.9841 146.69 44.8539C146.69 44.3751 146.479 44.1245 146.018 44.1245C145.51 44.1245 145.153 44.5543 145.015 45.3323L144.603 47.7031H143.77L144.514 43.4414H145.346L145.282 43.8238C145.517 43.5645 145.816 43.3525 146.293 43.3525C146.851 43.3525 147.183 43.5811 147.377 43.9943C147.709 43.6374 148.113 43.3525 148.744 43.3525C149.529 43.3525 149.998 43.8238 149.998 44.6513C149.998 44.8215 149.974 45.0493 149.934 45.2434Z" fill="white"/>
<path d="M153.962 44.5301C153.638 44.2784 153.233 44.0913 152.765 44.0913C152.409 44.0913 152.19 44.237 152.182 44.4893C152.165 44.7326 152.263 44.8457 152.967 45.1714C153.71 45.5123 154.139 45.8197 154.075 46.526C154.002 47.484 153.217 47.7917 152.498 47.7917C151.761 47.7917 151.162 47.5087 150.79 47.1588L151.235 46.5426C151.591 46.8421 152.012 47.0539 152.57 47.0539C152.983 47.0539 153.249 46.8748 153.258 46.5668C153.273 46.3229 153.137 46.1612 152.538 45.9089C151.696 45.5443 151.3 45.2434 151.364 44.5385C151.43 43.7262 152.036 43.3525 152.836 43.3525C153.533 43.3525 154.051 43.6047 154.391 43.8641L153.962 44.5301Z" fill="white"/>
<path d="M128.53 49.2039H127.64L128.473 47.6781L127.665 43.4414H128.547L128.958 46.0152C128.975 46.1772 129.041 46.5994 129.048 46.6965C129.081 46.591 129.282 46.1848 129.355 46.0152L130.698 43.4414H131.588L128.53 49.2039Z" fill="white"/>
</g>
<defs>
<clipPath id="clip0_906_2459">
<rect width="176" height="56" fill="white"/>
</clipPath>
</defs>
</svg>
