<svg width="1691" height="414" viewBox="0 0 1691 414" fill="none" xmlns="http://www.w3.org/2000/svg">
<g clip-path="url(#clip0_115_620)">
<path d="M1367.51 347C1364.44 346.167 1361.58 344.706 1359.1 342.71L1362.27 335.6C1364.5 337.316 1367.01 338.638 1369.69 339.51C1372.53 340.503 1375.51 341.014 1378.52 341.02C1382.18 341.02 1384.91 340.44 1386.71 339.26C1387.53 338.797 1388.22 338.123 1388.69 337.307C1389.17 336.492 1389.42 335.564 1389.42 334.62C1389.44 333.965 1389.31 333.313 1389.05 332.712C1388.79 332.111 1388.4 331.574 1387.91 331.14C1386.8 330.165 1385.49 329.433 1384.08 328.99C1382.53 328.477 1380.42 327.89 1377.74 327.23C1374.65 326.536 1371.61 325.645 1368.63 324.56C1366.31 323.68 1364.25 322.241 1362.63 320.37C1360.88 318.2 1359.99 315.456 1360.14 312.67C1360.11 310.031 1360.88 307.445 1362.35 305.25C1364.02 302.869 1366.34 301.024 1369.04 299.94C1372.51 298.519 1376.23 297.838 1379.98 297.94C1382.97 297.937 1385.95 298.314 1388.84 299.06C1391.51 299.708 1394.06 300.803 1396.37 302.3L1393.48 309.4C1391.36 308.158 1389.09 307.19 1386.73 306.52C1384.51 305.875 1382.21 305.538 1379.9 305.52C1376.29 305.52 1373.6 306.13 1371.85 307.35C1371.03 307.866 1370.36 308.584 1369.89 309.435C1369.43 310.286 1369.2 311.242 1369.21 312.21C1369.19 312.86 1369.32 313.505 1369.58 314.1C1369.84 314.695 1370.23 315.225 1370.72 315.65C1371.84 316.61 1373.15 317.331 1374.56 317.77C1376.11 318.28 1378.22 318.87 1380.89 319.52C1383.95 320.191 1386.95 321.073 1389.89 322.16C1392.2 323.057 1394.25 324.493 1395.89 326.35C1397.64 328.482 1398.53 331.194 1398.39 333.95C1398.42 336.579 1397.64 339.153 1396.17 341.33C1394.49 343.705 1392.15 345.539 1389.45 346.61C1385.96 348.026 1382.21 348.707 1378.45 348.61C1374.74 348.617 1371.06 348.074 1367.51 347V347Z" fill="black"/>
<path d="M1439.79 345.86C1438.68 346.741 1437.4 347.387 1436.03 347.76C1434.51 348.186 1432.93 348.398 1431.35 348.39C1427.22 348.39 1424.04 347.31 1421.78 345.15C1419.52 342.99 1418.41 339.85 1418.41 335.73V317.64H1412.22V310.64H1418.41V302H1427.2V310.58H1437.26V317.58H1427.2V335.45C1427.1 336.966 1427.58 338.463 1428.54 339.64C1429.05 340.142 1429.65 340.53 1430.32 340.778C1430.99 341.027 1431.7 341.129 1432.41 341.08C1434.18 341.148 1435.92 340.6 1437.33 339.53L1439.79 345.86Z" fill="black"/>
<path d="M1494 310.33V347.9H1485.63V343.11C1484.21 344.812 1482.4 346.153 1480.36 347.02C1478.2 347.941 1475.88 348.407 1473.53 348.39C1468.51 348.39 1464.56 346.993 1461.68 344.2C1458.8 341.407 1457.36 337.27 1457.35 331.79V310.33H1466.15V330.59C1466.15 333.97 1466.91 336.49 1468.43 338.15C1469.27 339.01 1470.29 339.678 1471.41 340.109C1472.54 340.541 1473.74 340.725 1474.94 340.65C1476.32 340.718 1477.71 340.493 1479 339.99C1480.29 339.487 1481.46 338.717 1482.43 337.73C1484.28 335.777 1485.2 332.973 1485.21 329.32V310.32L1494 310.33Z" fill="black"/>
<path d="M1552.85 295.7V347.9H1544.41V343C1542.98 344.762 1541.13 346.137 1539.03 347C1536.78 347.913 1534.38 348.368 1531.95 348.34C1528.55 348.39 1525.2 347.567 1522.21 345.95C1519.35 344.375 1516.99 342.021 1515.42 339.16C1513.74 336.063 1512.89 332.583 1512.96 329.06C1512.89 325.55 1513.74 322.082 1515.42 319C1517 316.154 1519.35 313.813 1522.21 312.25C1525.2 310.628 1528.55 309.805 1531.95 309.86C1534.29 309.833 1536.61 310.261 1538.78 311.12C1540.81 311.948 1542.62 313.251 1544.05 314.92V295.7H1552.85ZM1538.71 339.42C1540.4 338.449 1541.79 337.022 1542.71 335.3C1543.68 333.382 1544.19 331.261 1544.19 329.11C1544.19 326.959 1543.68 324.838 1542.71 322.92C1541.79 321.204 1540.4 319.78 1538.71 318.81C1536.96 317.859 1535 317.36 1533.01 317.36C1531.02 317.36 1529.06 317.859 1527.31 318.81C1525.62 319.78 1524.23 321.204 1523.31 322.92C1522.34 324.838 1521.83 326.959 1521.83 329.11C1521.83 331.261 1522.34 333.382 1523.31 335.3C1524.23 337.022 1525.62 338.449 1527.31 339.42C1529.06 340.365 1531.02 340.86 1533.01 340.86C1535 340.86 1536.96 340.365 1538.71 339.42V339.42Z" fill="black"/>
<path d="M1575.36 302.62C1574.85 302.137 1574.44 301.554 1574.16 300.907C1573.88 300.261 1573.74 299.564 1573.74 298.86C1573.74 298.156 1573.88 297.459 1574.16 296.813C1574.44 296.166 1574.85 295.583 1575.36 295.1C1576.44 294.089 1577.88 293.544 1579.36 293.58C1580.83 293.54 1582.26 294.058 1583.36 295.03C1583.88 295.476 1584.3 296.032 1584.58 296.658C1584.86 297.284 1584.99 297.964 1584.98 298.65C1585 299.374 1584.87 300.093 1584.59 300.764C1584.32 301.434 1583.92 302.042 1583.4 302.55C1582.87 303.077 1582.24 303.49 1581.54 303.763C1580.84 304.037 1580.1 304.165 1579.35 304.14C1577.87 304.174 1576.44 303.628 1575.36 302.62V302.62ZM1574.94 310.33H1583.73V347.9H1574.94V310.33Z" fill="black"/>
<path d="M1612.44 345.93C1609.46 344.357 1606.98 341.981 1605.29 339.07C1603.61 336.026 1602.73 332.606 1602.73 329.13C1602.73 325.654 1603.61 322.234 1605.29 319.19C1607 316.299 1609.47 313.938 1612.44 312.37C1615.63 310.753 1619.16 309.91 1622.75 309.91C1626.33 309.91 1629.86 310.753 1633.05 312.37C1636.02 313.934 1638.49 316.296 1640.19 319.19C1641.88 322.232 1642.76 325.653 1642.76 329.13C1642.76 332.608 1641.88 336.028 1640.19 339.07C1638.5 341.982 1636.03 344.359 1633.05 345.93C1629.86 347.548 1626.33 348.391 1622.75 348.391C1619.16 348.391 1615.63 347.548 1612.44 345.93V345.93ZM1630.73 337.62C1632.77 335.259 1633.89 332.241 1633.89 329.12C1633.89 325.999 1632.77 322.982 1630.73 320.62C1629.69 319.557 1628.45 318.72 1627.07 318.162C1625.69 317.604 1624.22 317.338 1622.73 317.38C1621.24 317.331 1619.76 317.594 1618.39 318.152C1617.01 318.71 1615.76 319.551 1614.73 320.62C1612.71 322.994 1611.61 326.006 1611.61 329.12C1611.61 332.234 1612.71 335.247 1614.73 337.62C1615.76 338.69 1617.01 339.531 1618.39 340.089C1619.76 340.647 1621.24 340.91 1622.73 340.86C1624.22 340.902 1625.69 340.636 1627.07 340.078C1628.45 339.521 1629.69 338.684 1630.73 337.62V337.62Z" fill="black"/>
<path d="M1664.43 347.19C1661.94 346.598 1659.57 345.583 1657.43 344.19L1660.81 337.5C1662.68 338.713 1664.73 339.627 1666.89 340.21C1669.16 340.87 1671.52 341.206 1673.89 341.21C1679.14 341.21 1681.77 339.827 1681.77 337.06C1681.79 336.446 1681.6 335.844 1681.24 335.348C1680.88 334.852 1680.36 334.491 1679.77 334.32C1677.68 333.621 1675.52 333.125 1673.33 332.84C1670.77 332.489 1668.25 331.947 1665.77 331.22C1663.83 330.618 1662.08 329.515 1660.7 328.02C1659.19 326.26 1658.42 323.978 1658.56 321.66C1658.52 319.975 1658.91 318.307 1659.69 316.812C1660.47 315.317 1661.62 314.044 1663.02 313.11C1666 310.97 1670.02 309.904 1675.09 309.91C1677.69 309.911 1680.29 310.207 1682.83 310.79C1685.05 311.237 1687.19 312.03 1689.16 313.14L1685.78 319.83C1682.52 317.929 1678.8 316.954 1675.02 317.01C1672.99 316.893 1670.97 317.292 1669.14 318.17C1668.56 318.445 1668.06 318.876 1667.71 319.416C1667.35 319.957 1667.16 320.585 1667.14 321.23C1667.11 321.897 1667.31 322.554 1667.69 323.097C1668.08 323.641 1668.64 324.039 1669.28 324.23C1671.43 325.006 1673.66 325.562 1675.93 325.89C1678.43 326.25 1680.9 326.788 1683.32 327.5C1685.22 328.087 1686.95 329.155 1688.32 330.6C1689.8 332.312 1690.54 334.534 1690.4 336.79C1690.43 338.472 1690.02 340.132 1689.22 341.61C1688.41 343.089 1687.24 344.335 1685.82 345.23C1682.77 347.337 1678.62 348.394 1673.37 348.4C1670.35 348.403 1667.34 347.995 1664.43 347.19Z" fill="black"/>
<path d="M664 139.05C664.088 147.207 662.804 155.32 660.2 163.05C657.736 170.253 653.536 176.737 647.97 181.93C642.363 187.21 635.08 191.327 626.12 194.28C617.16 197.233 606.263 198.713 593.43 198.72H515.43V253.72H468.43V79.6301H593.39C606.23 79.6301 617.126 81.0868 626.08 84.0001C635.033 86.9135 642.316 91.0101 647.93 96.2901C653.483 101.466 657.683 107.924 660.16 115.1C662.782 122.81 664.08 130.907 664 139.05V139.05ZM616.49 139.81C616.573 136.251 615.994 132.707 614.78 129.36C613.656 126.464 611.692 123.971 609.14 122.2C606.036 120.143 602.544 118.741 598.88 118.08C593.742 117.11 588.518 116.664 583.29 116.75H515.34V161.6H583.25C588.467 161.667 593.681 161.309 598.84 160.53C602.477 160.023 605.969 158.77 609.1 156.85C611.633 155.225 613.602 152.857 614.74 150.07C615.966 146.792 616.547 143.308 616.45 139.81H616.49Z" fill="black"/>
<path d="M865 220.77H768L751.66 253.71H699.15L790.25 79.6301H842.71L933.81 253.71H881.35L865 220.77ZM784.79 186.77H848.4L816.72 122.66L784.79 186.77Z" fill="black"/>
<path d="M993.45 253.71V79.6301H1040.45V253.71H993.45Z" fill="black"/>
<path d="M1347.42 253.71V131.45L1282.81 253.71H1237.7L1173.08 131.45V253.71H1126.08V79.6301H1189.93L1260.25 211.4L1330.57 79.6301H1394.18V253.71H1347.42Z" fill="black"/>
<path d="M1619.67 220.77H1522.62L1506.28 253.71H1453.82L1544.92 79.6301H1597.38L1688.47 253.71H1636L1619.67 220.77ZM1539.47 186.77H1603.08L1571.4 122.66L1539.47 186.77Z" fill="black"/>
<path d="M155.16 12.0701C82.8699 13.7201 22.7599 59.8101 3.15992 123.07C0.199922 111 -2.35008 73.5401 3.65992 62.9001C18.4499 36.6701 69.7799 -1.94995 134.35 0.0800517C149.78 0.550052 180.1 6.55005 183.23 12.6301C183.62 13.3801 167.93 11.7801 155.16 12.0701Z" fill="black"/>
<path d="M386.67 252.74L386.42 252.64C386.305 252.581 386.184 252.535 386.06 252.5C385.915 252.476 385.771 252.443 385.63 252.4C385.47 252.39 385.31 252.39 385.15 252.4C384.98 252.4 384.82 252.4 384.64 252.4H384.1H383.52C383.35 252.4 383.14 252.48 382.93 252.51C382.54 252.6 382.14 252.65 381.74 252.78C380.897 253.029 380.072 253.333 379.27 253.69C378.423 254.043 377.598 254.447 376.8 254.9C375.99 255.37 375.15 255.77 374.37 256.33L372 257.92L369.69 259.67L368.53 260.56L367.41 261.5L365.18 263.4C363.7 264.71 362.3 266.08 360.84 267.4L356.42 271.54C354.94 272.92 353.42 274.21 351.85 275.54C345.683 280.753 339.108 285.465 332.19 289.63C328.76 291.72 325.19 293.63 321.62 295.43C318.049 297.233 314.376 298.826 310.62 300.2C314.276 298.58 317.835 296.75 321.28 294.72C324.72 292.72 328.1 290.58 331.35 288.28C337.873 283.734 344.022 278.675 349.74 273.15C351.14 271.75 352.58 270.4 353.92 268.95L357.99 264.6C359.38 263.12 360.73 261.6 362.18 260.16L364.38 258.02L365.48 256.95L366.65 255.95L368.98 253.95L371.48 252.03C372.28 251.37 373.23 250.84 374.1 250.25C375.014 249.654 375.959 249.107 376.93 248.61C378.425 247.885 379.973 247.273 381.56 246.78C381.593 246.768 381.623 246.747 381.646 246.719C381.669 246.692 381.685 246.66 381.692 246.625C381.699 246.589 381.697 246.553 381.686 246.519C381.675 246.485 381.656 246.454 381.63 246.43C361.13 227.3 350.57 248.98 316.07 249.43C312.279 249.479 308.49 249.262 304.73 248.78L304.16 248.71C281.56 245.71 253.37 233.63 240.36 223.71C233.48 218.44 228.01 213.81 224.03 211.38C222.693 210.416 221.128 209.817 219.49 209.64C212.589 209.752 205.7 210.269 198.86 211.19L110.61 210.84C107.788 210.85 104.999 211.443 102.418 212.582C99.8364 213.721 97.5186 215.382 95.6099 217.46C94.1011 219.129 92.319 220.529 90.3399 221.6C87.327 223.182 83.962 223.973 80.5599 223.9C75.3999 223.9 67.9499 221.58 61.7399 210.56C57.9099 203.77 55.0599 194.39 53.4599 183.41C50.96 165.201 51.7731 146.69 55.8599 128.77C60.8299 108.08 69.9999 94.4601 82.1999 89.4301C100.8 81.7701 113.82 88.0001 126.41 94.0001C136.41 98.8001 146.79 103.77 161.99 103.77C177.19 103.77 187.55 98.7701 197.58 94.0001C210.15 88.0001 223.16 81.7301 241.78 89.3901C254.03 94.3901 263.16 108.04 268.2 128.73C272.3 146.648 273.117 165.161 270.61 183.37C269.01 194.37 266.15 203.73 262.33 210.52C260.811 213.29 258.913 215.835 256.69 218.08C256.415 218.34 256.201 218.657 256.063 219.009C255.925 219.361 255.866 219.739 255.891 220.116C255.916 220.493 256.024 220.861 256.207 221.191C256.39 221.522 256.644 221.809 256.95 222.03C265.54 228.21 280.26 234.65 293.75 238.49C296.75 239.36 299.75 240.07 302.59 240.63L302.87 240.7C304.51 241.02 306.11 241.3 307.63 241.51L307.68 241.42L308.24 241.48C318.304 242.364 328.445 241.552 338.24 239.08C334.72 216.86 325.49 197.16 322.01 191.64C321.706 191.107 321.332 190.616 320.9 190.18C317.344 195.58 312.81 200.268 307.53 204C318.15 188.55 325.02 184.21 321.65 157.83C318.226 124.681 304.548 93.4256 282.52 68.4186C260.492 43.4116 231.212 25.8987 198.76 18.3201L198.07 18.1601C197.52 18.0401 196.98 17.9101 196.43 17.8001C195.6 17.6201 194.77 17.4401 193.95 17.2801L190.95 16.7101L190.48 16.6301C189.4 16.4401 188.32 16.2601 187.22 16.0901L185 15.7701C184.33 15.6701 183.67 15.5801 183 15.5001L181 15.2501L177 14.8401L175 14.6701C170.9 14.3501 166.76 14.1901 162.58 14.1901C138.51 14.1388 114.741 19.5442 93.0599 30.0001C91.3099 30.8301 89.5699 31.7101 87.8599 32.6301C86.7099 33.2301 85.5799 33.8501 84.4499 34.4801C83.9699 34.7401 83.4499 35.0201 82.9899 35.3001C80.0099 37.0001 77.0933 38.8001 74.2399 40.7001L72.3999 42.0001C71.8099 42.4001 71.2099 42.8101 70.6299 43.2201C70.0499 43.6301 69.3799 44.1001 68.7699 44.5501C56.7985 53.204 46.0776 63.4673 36.9099 75.0501L37.1099 74.7201C26.3579 88.2104 17.8551 103.349 11.9299 119.55H12.0699C12.0199 119.68 11.9799 119.82 11.9299 119.95C11.8799 120.08 11.6499 120.46 11.4699 120.85C11.1014 121.677 10.8037 122.533 10.5799 123.41V123.41C10.4799 123.81 10.3799 124.26 10.2899 124.73C-2.80176 165.112 0.674162 209.04 19.9539 246.861C39.2337 284.682 72.7399 313.301 113.11 326.43C134.76 292.92 167.29 275.6 196.33 263.66C162.11 283.96 164.52 303.34 175.13 320.92C169.06 317.29 157.87 300.92 157.87 300.92C157.87 300.92 142.31 306.05 125.01 329.78L124.62 330.31C120.07 336.667 115.995 343.352 112.43 350.31C107.28 399.68 191.49 424.53 179.97 408.16C168.45 391.79 188.81 335.91 188.81 335.91C188.81 335.91 197.86 352.35 237.88 352.11C277.9 351.87 327.21 333 348.65 318.74C360.6 310.77 398.29 275 386.67 252.74ZM282 279.87C281.94 280.301 281.843 280.726 281.71 281.14C281.71 281.28 281.62 281.42 281.57 281.55C281.42 281.948 281.243 282.336 281.04 282.71C280.983 282.827 280.919 282.94 280.85 283.05C280.562 283.541 280.227 284.003 279.85 284.43C279.772 284.522 279.688 284.608 279.6 284.69C279.45 284.85 279.3 284.99 279.13 285.14L278.75 285.46C278.59 285.58 278.43 285.7 278.26 285.81C278.16 285.882 278.057 285.949 277.95 286.01L277.52 286.26L277.04 286.5C276.404 286.801 275.731 287.019 275.04 287.15C274.892 287.183 274.741 287.207 274.59 287.22C274.375 287.258 274.158 287.282 273.94 287.29H273.41C272.258 287.291 271.117 287.065 270.053 286.624C268.989 286.183 268.023 285.536 267.21 284.72C267.007 284.525 266.817 284.318 266.64 284.1C266.55 283.99 266.46 283.88 266.38 283.76C266.125 283.42 265.894 283.063 265.69 282.69C265.56 282.45 265.43 282.19 265.32 281.93C265.21 281.67 265.11 281.39 265.03 281.12C264.497 279.421 264.497 277.599 265.03 275.9C265.11 275.624 265.207 275.354 265.32 275.09C265.45 274.78 265.6 274.48 265.77 274.19C265.95 273.865 266.154 273.554 266.38 273.26C266.46 273.14 266.55 273.03 266.64 272.92C266.817 272.702 267.007 272.495 267.21 272.3C268.104 271.413 269.178 270.728 270.359 270.292C271.541 269.856 272.803 269.68 274.058 269.774C275.314 269.869 276.535 270.233 277.638 270.842C278.741 271.45 279.7 272.288 280.45 273.3C280.792 273.748 281.087 274.231 281.33 274.74C281.906 275.927 282.204 277.23 282.2 278.55C282.169 278.995 282.102 279.436 282 279.87Z" fill="black"/>
<path d="M265.62 282.71C265.824 283.083 266.055 283.44 266.31 283.78C266.051 283.443 265.821 283.085 265.62 282.71V282.71Z" fill="black"/>
<path d="M209.48 159.88C213.407 159.88 216.59 156.697 216.59 152.77C216.59 148.843 213.407 145.66 209.48 145.66C205.553 145.66 202.37 148.843 202.37 152.77C202.37 156.697 205.553 159.88 209.48 159.88Z" fill="black"/>
<path d="M234.81 159.88C238.736 159.88 241.92 156.697 241.92 152.77C241.92 148.843 238.736 145.66 234.81 145.66C230.883 145.66 227.7 148.843 227.7 152.77C227.7 156.697 230.883 159.88 234.81 159.88Z" fill="black"/>
<path d="M222.14 147.22C226.067 147.22 229.25 144.037 229.25 140.11C229.25 136.183 226.067 133 222.14 133C218.213 133 215.03 136.183 215.03 140.11C215.03 144.037 218.213 147.22 222.14 147.22Z" fill="black"/>
<path d="M222.14 172.55C226.067 172.55 229.25 169.367 229.25 165.44C229.25 161.513 226.067 158.33 222.14 158.33C218.213 158.33 215.03 161.513 215.03 165.44C215.03 169.367 218.213 172.55 222.14 172.55Z" fill="black"/>
<path d="M114.1 145.67H108.54V140.11C108.576 139.155 108.419 138.202 108.078 137.308C107.737 136.415 107.219 135.6 106.556 134.911C105.893 134.222 105.097 133.675 104.217 133.3C103.337 132.926 102.391 132.733 101.435 132.733C100.479 132.733 99.5325 132.926 98.6526 133.3C97.7727 133.675 96.9773 134.222 96.314 134.911C95.6507 135.6 95.1331 136.415 94.7922 137.308C94.4513 138.202 94.2941 139.155 94.3299 140.11V145.67H88.7699C86.9317 145.739 85.1917 146.518 83.9156 147.843C82.6395 149.168 81.9265 150.935 81.9265 152.775C81.9265 154.615 82.6395 156.382 83.9156 157.707C85.1917 159.032 86.9317 159.811 88.7699 159.88H94.3299V165.44C94.3989 167.278 95.1776 169.018 96.5025 170.294C97.8274 171.57 99.5954 172.283 101.435 172.283C103.274 172.283 105.042 171.57 106.367 170.294C107.692 169.018 108.471 167.278 108.54 165.44V159.88H114.1C115.055 159.916 116.008 159.759 116.902 159.418C117.795 159.077 118.61 158.559 119.299 157.896C119.988 157.233 120.535 156.437 120.91 155.557C121.284 154.677 121.477 153.731 121.477 152.775C121.477 151.819 121.284 150.873 120.91 149.993C120.535 149.113 119.988 148.317 119.299 147.654C118.61 146.991 117.795 146.473 116.902 146.132C116.008 145.791 115.055 145.634 114.1 145.67V145.67Z" fill="black"/>
</g>
<defs>
<clipPath id="clip0_115_620">
<rect width="1690.39" height="413.15" fill="white"/>
</clipPath>
</defs>
</svg>
