<svg width="216" height="35" viewBox="0 0 216 35" fill="none" xmlns="http://www.w3.org/2000/svg">
<path fill-rule="evenodd" clip-rule="evenodd" d="M17.5528 0.0064171C20.7616 0.102181 23.7308 1.08399 26.2692 2.71223C26.9874 3.16724 27.1551 4.149 26.6283 4.84339C20.618 12.913 11.6383 18.6359 1.29406 20.4319C0.767205 20.5276 0.264275 20.1445 0.192498 19.6177C0.0728691 18.8515 0.000847582 18.0613 0.000847582 17.2471C-0.0948555 7.62104 7.92687 -0.25695 17.5528 0.0064171ZM32.3512 9.5608C33.1652 11.213 33.7159 13.0568 33.9554 14.9724C33.9794 15.1161 33.9315 15.2598 33.7877 15.3555C26.5802 22.18 16.8585 26.3465 6.1549 26.3465C5.05334 26.3465 3.9757 26.2986 2.89831 26.2028C2.75451 26.2028 2.61096 26.107 2.53918 25.9873C2.06017 25.1971 1.62902 24.359 1.26989 23.497C1.12634 23.1857 1.34191 22.8505 1.67712 22.8265C13.2906 22.0603 23.7548 17.0796 31.5848 9.44099C31.8243 9.20161 32.2074 9.27338 32.3512 9.5608ZM10.2257 28.2858C8.50158 28.2858 6.80138 28.19 5.12512 28.0224C4.69421 27.9745 4.40685 28.5013 4.71813 28.8365C7.83117 32.0931 12.1891 34.1045 17.0502 34.1045C24.1617 34.1045 30.2679 29.7225 32.8302 23.5206C32.9977 23.1136 32.5668 22.7065 32.1595 22.922C25.5985 26.3462 18.1276 28.2858 10.2257 28.2858ZM210.938 16.2296V30.8521H215.991V16.4367C215.991 16.1803 215.953 15.6183 215.802 15.0859C214.971 12.1574 212.373 10.008 209.294 10.008C207.736 10.008 206.31 10.5601 205.167 11.4771C204.024 10.5503 202.598 10.008 201.04 10.008C198.169 10.008 195.723 11.8715 194.731 14.5041C194.316 15.6085 194.401 16.1212 194.401 16.1212V30.8521H199.463V16.486C199.463 16.1508 199.529 16.1113 199.529 16.1113C199.85 15.5789 200.407 15.1943 201.049 15.2239C202.967 15.3127 202.617 17.1762 202.617 16.486V30.8521H207.679V16.2296C207.679 16.2296 207.755 15.2239 209.304 15.2239C210.484 15.2239 210.938 16.2296 210.938 16.2296ZM170.846 20.292C170.846 26.1193 175.37 30.8521 180.961 30.8521C186.543 30.8521 191.076 26.1193 191.076 20.292C191.076 14.4647 186.552 9.73188 180.961 9.73188C175.379 9.73188 170.846 14.4548 170.846 20.292ZM175.861 20.292C175.861 17.3537 178.147 14.9676 180.961 14.9676C183.776 14.9676 186.061 17.3438 186.061 20.292C186.061 23.2303 183.776 25.6164 180.961 25.6164C178.147 25.6164 175.861 23.2303 175.861 20.292ZM158.436 22.9443C157.029 20.4004 157.869 17.1466 160.306 15.6775C162.365 14.4351 164.906 14.869 166.473 16.5649L170.279 13.1336C167.144 9.57411 161.959 8.62757 157.784 11.1419C152.949 14.0604 151.287 20.5188 154.082 25.5671C156.878 30.6155 163.064 32.3508 167.899 29.4323C168.485 29.0872 169.014 28.673 169.505 28.2293L165.633 24.7389C165.557 24.7882 165.482 24.8473 165.397 24.8966C162.96 26.3658 159.843 25.4882 158.436 22.9443ZM145.139 28.4167C145.139 29.8464 146.253 31 147.613 31C148.973 31 150.078 29.8464 150.087 28.4167C150.087 26.987 148.973 25.8333 147.613 25.8333C146.243 25.8333 145.139 26.9968 145.139 28.4167ZM125.116 27.0363C127.015 29.2055 129.744 30.5662 132.776 30.5662C138.508 30.5662 143.165 25.715 143.155 19.7201C143.155 15.4507 140.785 11.763 137.347 9.99812H131.227L128.856 14.1689C128.856 14.1689 132.747 14.0309 132.804 14.0111C135.817 14.0309 138.254 16.5846 138.254 19.73C138.254 22.8852 135.798 25.4488 132.776 25.4488C131.123 25.4488 129.65 24.6896 128.648 23.4866C127.742 22.4809 127.175 21.1301 127.175 19.6314C127.175 19.2271 127.222 18.8327 127.298 18.4482C127.292 18.4367 127.29 18.4285 127.289 18.4197C127.288 18.4136 127.288 18.4071 127.288 18.3989L120.3 24.6896L120.262 24.6403C119.44 25.2516 118.43 25.6066 117.343 25.6066C114.529 25.6066 112.244 23.2204 112.244 20.2821C112.244 17.3438 114.529 14.9577 117.343 14.9577C119.912 14.9577 122.037 16.9494 122.387 19.5328L126.514 15.8155C124.899 12.2166 121.405 9.72199 117.343 9.72199C115.492 9.72199 113.773 10.2446 112.281 11.1419V5.5611H107.219V15.076L96.5089 24.7389C96.5089 24.7389 95.7819 25.5079 93.6473 25.6066C93.2506 25.6263 92.8541 25.5474 92.4762 25.4587L102.865 15.7958C102.865 15.7958 102.681 15.4724 102.558 15.2608C102.471 15.1103 102.415 15.0164 102.478 15.1352C100.75 11.9109 97.444 9.72199 93.6473 9.72199C88.0658 9.72199 83.5323 14.445 83.5323 20.2821C83.5323 26.1094 88.0563 30.8422 93.6473 30.8422C95.9801 30.8422 98.1334 30.014 99.8429 28.6237L99.8807 28.673L107.351 21.9386C108.116 26.987 112.3 30.8422 117.343 30.8422C120.47 30.8422 123.265 29.3632 125.116 27.0363ZM93.6473 14.9676C94.3746 14.9676 95.0641 15.1253 95.6874 15.4113L88.7645 21.8499C88.6229 21.3569 88.5472 20.8343 88.5472 20.292C88.5472 17.3537 90.8329 14.9676 93.6473 14.9676ZM131.85 8.89381H137.781L139.028 6.67524H133.116L131.85 8.89381ZM123.728 5.28498V5.55122H126.92H133.748H139.651L139.802 5.27515L140.841 3.33271H123.728V5.28498ZM123.728 8.40721e-06V2.21851H141.436L142.626 8.40721e-06H123.728ZM63.7084 27.2729C65.5594 29.4618 68.2701 30.8521 71.2924 30.8521C76.7889 30.8521 81.2562 26.2672 81.4073 20.5681H81.4169V5.5611H76.3546V19.4539H76.3263L76.3546 19.6807V20.5681H76.3922C76.2506 23.3782 74.0311 25.6164 71.3019 25.6164C68.6669 25.6164 66.4945 23.5261 66.2301 20.8441C66.2301 20.7566 66.2323 20.6667 66.2347 20.5756C66.2372 20.4819 66.2396 20.3869 66.2396 20.292V19.6807C66.2489 19.6018 66.2584 19.5328 66.2679 19.4539H66.2396V5.5611H61.1774V19.4539H61.149C61.1583 19.5328 61.1678 19.6018 61.1774 19.6807V20.292C61.1774 20.4793 61.1774 20.6568 61.1869 20.8441C60.9222 23.5261 58.7501 25.6164 56.1151 25.6164C53.3856 25.6164 51.1661 23.3782 51.0245 20.5681H51.0624V19.6807L51.0907 19.4539H51.0624V5.5611H46.0001V20.5681H46.0189C46.1608 26.277 50.6278 30.8521 56.1246 30.8521C59.1468 30.8521 61.8573 29.4618 63.7084 27.2729Z" fill="black"/>
</svg>
